G04 #@! TF.GenerationSoftware,KiCad,Pcbnew,9.0.2*
G04 #@! TF.CreationDate,2026-08-11T20:35:35+03:00*
G04 #@! TF.ProjectId,fixed_new_new_2026_copyright,66697865-645f-46e6-9577-5f6e65775f32,rev?*
G04 #@! TF.SameCoordinates,Original*
G04 #@! TF.FileFunction,Legend,Top*
G04 #@! TF.FilePolarity,Positive*
%FSLAX46Y46*%
G04 Gerber Fmt 4.6, Leading zero omitted, Abs format (unit mm)*
G04 Created by KiCad (PCBNEW 9.0.2) date 2026-08-11 20:35:35*
%MOMM*%
%LPD*%
G01*
G04 APERTURE LIST*
%ADD10C,0.200000*%
%ADD11C,0.150000*%
%ADD12C,0.120000*%
%ADD13R,1.700000X1.700000*%
%ADD14C,1.700000*%
%ADD15C,1.600000*%
G04 APERTURE END LIST*
D10*
G36*
X190767219Y-61523607D02*
G01*
X190767219Y-61714488D01*
X190745064Y-61758797D01*
X190700754Y-61780952D01*
X190652730Y-61780952D01*
X190608421Y-61758797D01*
X190586266Y-61714487D01*
X190586266Y-61504762D01*
X190757796Y-61504762D01*
X190767219Y-61523607D01*
G37*
G36*
X190712746Y-60010758D02*
G01*
X190737414Y-60035425D01*
X190767219Y-60095035D01*
X190767219Y-60190678D01*
X190737414Y-60250287D01*
X190712746Y-60274954D01*
X190653135Y-60304761D01*
X190414635Y-60304761D01*
X190355025Y-60274956D01*
X190330357Y-60250287D01*
X190300552Y-60190677D01*
X190300552Y-60095035D01*
X190330357Y-60035425D01*
X190355025Y-60010756D01*
X190414635Y-59980952D01*
X190653135Y-59980952D01*
X190712746Y-60010758D01*
G37*
G36*
X190767219Y-56952178D02*
G01*
X190767219Y-57143059D01*
X190745064Y-57187368D01*
X190700754Y-57209523D01*
X190652730Y-57209523D01*
X190608421Y-57187368D01*
X190586266Y-57143058D01*
X190586266Y-56933333D01*
X190757796Y-56933333D01*
X190767219Y-56952178D01*
G37*
G36*
X189031893Y-56308637D02*
G01*
X189102802Y-56344092D01*
X189127470Y-56368759D01*
X189157275Y-56428369D01*
X189157275Y-56476393D01*
X189127470Y-56536002D01*
X189102802Y-56560669D01*
X189031893Y-56596124D01*
X188864012Y-56638095D01*
X188650536Y-56638095D01*
X188482655Y-56596124D01*
X188411748Y-56560671D01*
X188387080Y-56536002D01*
X188357275Y-56476392D01*
X188357275Y-56428369D01*
X188387080Y-56368759D01*
X188411748Y-56344090D01*
X188482655Y-56308637D01*
X188650536Y-56266667D01*
X188864012Y-56266667D01*
X189031893Y-56308637D01*
G37*
G36*
X190706296Y-55385260D02*
G01*
X190737414Y-55416377D01*
X190767219Y-55475987D01*
X190767219Y-55571630D01*
X190737414Y-55631239D01*
X190712746Y-55655906D01*
X190653135Y-55685713D01*
X190557492Y-55685713D01*
X190497882Y-55655908D01*
X190468739Y-55626764D01*
X190441791Y-55586342D01*
X190446498Y-55583204D01*
X190450631Y-55579819D01*
X190455046Y-55576821D01*
X190695045Y-55376821D01*
X190706296Y-55385260D01*
G37*
G36*
X190093697Y-55439328D02*
G01*
X190122839Y-55468469D01*
X190157277Y-55520126D01*
X190089087Y-55542856D01*
X190033683Y-55542856D01*
X189989374Y-55520701D01*
X189967219Y-55476391D01*
X189967219Y-55475987D01*
X189989374Y-55431677D01*
X190033683Y-55409523D01*
X190034088Y-55409523D01*
X190093697Y-55439328D01*
G37*
G36*
X189102802Y-54391711D02*
G01*
X189127470Y-54416378D01*
X189157275Y-54475988D01*
X189157275Y-54619250D01*
X189127470Y-54678859D01*
X189102802Y-54703526D01*
X189043191Y-54733333D01*
X188852310Y-54733333D01*
X188792700Y-54703528D01*
X188768032Y-54678859D01*
X188738227Y-54619249D01*
X188738227Y-54475988D01*
X188768032Y-54416378D01*
X188792700Y-54391709D01*
X188852310Y-54361905D01*
X189043191Y-54361905D01*
X189102802Y-54391711D01*
G37*
G36*
X190712746Y-54201234D02*
G01*
X190737414Y-54225901D01*
X190767219Y-54285511D01*
X190767219Y-54428773D01*
X190757797Y-54447618D01*
X190309975Y-54447618D01*
X190300552Y-54428772D01*
X190300552Y-54285511D01*
X190330357Y-54225901D01*
X190355025Y-54201232D01*
X190414635Y-54171428D01*
X190653135Y-54171428D01*
X190712746Y-54201234D01*
G37*
G36*
X190411905Y-53590475D02*
G01*
X190367016Y-53590475D01*
X190322707Y-53568320D01*
X190300552Y-53524010D01*
X190300552Y-53380749D01*
X190322707Y-53336439D01*
X190357607Y-53318989D01*
X190411905Y-53590475D01*
G37*
G36*
X190767219Y-52475987D02*
G01*
X190767219Y-52666868D01*
X190745064Y-52711177D01*
X190700754Y-52733332D01*
X190652730Y-52733332D01*
X190608421Y-52711177D01*
X190586266Y-52666867D01*
X190586266Y-52457142D01*
X190757796Y-52457142D01*
X190767219Y-52475987D01*
G37*
G36*
X190411905Y-50971427D02*
G01*
X190367016Y-50971427D01*
X190322707Y-50949272D01*
X190300552Y-50904962D01*
X190300552Y-50761701D01*
X190322707Y-50717391D01*
X190357607Y-50699941D01*
X190411905Y-50971427D01*
G37*
G36*
X190767219Y-49856939D02*
G01*
X190767219Y-50000201D01*
X190737414Y-50059810D01*
X190712746Y-50084477D01*
X190653135Y-50114284D01*
X190414635Y-50114284D01*
X190355025Y-50084479D01*
X190330357Y-50059810D01*
X190300552Y-50000200D01*
X190300552Y-49856939D01*
X190309975Y-49838094D01*
X190757796Y-49838094D01*
X190767219Y-49856939D01*
G37*
G36*
X190411905Y-47495236D02*
G01*
X190367016Y-47495236D01*
X190322707Y-47473081D01*
X190300552Y-47428771D01*
X190300552Y-47285510D01*
X190322707Y-47241200D01*
X190357607Y-47223750D01*
X190411905Y-47495236D01*
G37*
G36*
X191409742Y-62092063D02*
G01*
X187905227Y-62092063D01*
X187905227Y-61547619D01*
X190100552Y-61547619D01*
X190100552Y-61738095D01*
X190102473Y-61757604D01*
X190103848Y-61760924D01*
X190104103Y-61764508D01*
X190111109Y-61782816D01*
X190158728Y-61878054D01*
X190169171Y-61894644D01*
X190198648Y-61920209D01*
X190235664Y-61932547D01*
X190274584Y-61929782D01*
X190309482Y-61912333D01*
X190335047Y-61882856D01*
X190347386Y-61845840D01*
X190344620Y-61806920D01*
X190337614Y-61788611D01*
X190300552Y-61714487D01*
X190300552Y-61571226D01*
X190322707Y-61526916D01*
X190367016Y-61504762D01*
X190376843Y-61504762D01*
X190386266Y-61523607D01*
X190386266Y-61738095D01*
X190388187Y-61757604D01*
X190389562Y-61760924D01*
X190389817Y-61764508D01*
X190396823Y-61782816D01*
X190444442Y-61878054D01*
X190446495Y-61881317D01*
X190447009Y-61882856D01*
X190448671Y-61884772D01*
X190454885Y-61894644D01*
X190464355Y-61902857D01*
X190472573Y-61912333D01*
X190482446Y-61918547D01*
X190484362Y-61920209D01*
X190485900Y-61920721D01*
X190489164Y-61922776D01*
X190584401Y-61970395D01*
X190602710Y-61977401D01*
X190606293Y-61977655D01*
X190609614Y-61979031D01*
X190629123Y-61980952D01*
X190724361Y-61980952D01*
X190743870Y-61979031D01*
X190747190Y-61977655D01*
X190750773Y-61977401D01*
X190769082Y-61970395D01*
X190864321Y-61922776D01*
X190867584Y-61920722D01*
X190869123Y-61920209D01*
X190871039Y-61918546D01*
X190880911Y-61912333D01*
X190889125Y-61902861D01*
X190898600Y-61894645D01*
X190904812Y-61884774D01*
X190906476Y-61882857D01*
X190906989Y-61881316D01*
X190909043Y-61878054D01*
X190956662Y-61782817D01*
X190963668Y-61764508D01*
X190963922Y-61760924D01*
X190965298Y-61757604D01*
X190967219Y-61738095D01*
X190967219Y-61500000D01*
X190965298Y-61480491D01*
X190963922Y-61477170D01*
X190963668Y-61473587D01*
X190956662Y-61455278D01*
X190954360Y-61450675D01*
X190965298Y-61424271D01*
X190965298Y-61385253D01*
X190950366Y-61349205D01*
X190922776Y-61321615D01*
X190886728Y-61306683D01*
X190867219Y-61304762D01*
X190343409Y-61304762D01*
X190323900Y-61306683D01*
X190320579Y-61308058D01*
X190316996Y-61308313D01*
X190298687Y-61315319D01*
X190203450Y-61362938D01*
X190200186Y-61364992D01*
X190198648Y-61365505D01*
X190196732Y-61367166D01*
X190186859Y-61373381D01*
X190178641Y-61382856D01*
X190169171Y-61391070D01*
X190162957Y-61400941D01*
X190161295Y-61402858D01*
X190160781Y-61404396D01*
X190158728Y-61407660D01*
X190111109Y-61502898D01*
X190104103Y-61521206D01*
X190103848Y-61524789D01*
X190102473Y-61528110D01*
X190100552Y-61547619D01*
X187905227Y-61547619D01*
X187905227Y-60909062D01*
X189769140Y-60909062D01*
X189769140Y-60948080D01*
X189784072Y-60984128D01*
X189811662Y-61011718D01*
X189847710Y-61026650D01*
X189867219Y-61028571D01*
X190100552Y-61028571D01*
X190100552Y-61071428D01*
X190102473Y-61090937D01*
X190117405Y-61126985D01*
X190144995Y-61154575D01*
X190181043Y-61169507D01*
X190220061Y-61169507D01*
X190256109Y-61154575D01*
X190283699Y-61126985D01*
X190298631Y-61090937D01*
X190300552Y-61071428D01*
X190300552Y-61028571D01*
X190724361Y-61028571D01*
X190743870Y-61026650D01*
X190747190Y-61025274D01*
X190750773Y-61025020D01*
X190769082Y-61018014D01*
X190864321Y-60970395D01*
X190867584Y-60968341D01*
X190869123Y-60967828D01*
X190871039Y-60966165D01*
X190880911Y-60959952D01*
X190889125Y-60950480D01*
X190898600Y-60942264D01*
X190904812Y-60932393D01*
X190906476Y-60930476D01*
X190906989Y-60928935D01*
X190909043Y-60925673D01*
X190956662Y-60830436D01*
X190963668Y-60812127D01*
X190963922Y-60808543D01*
X190965298Y-60805223D01*
X190967219Y-60785714D01*
X190967219Y-60690476D01*
X190965298Y-60670967D01*
X190950366Y-60634919D01*
X190922776Y-60607329D01*
X190886728Y-60592397D01*
X190847710Y-60592397D01*
X190811662Y-60607329D01*
X190784072Y-60634919D01*
X190769140Y-60670967D01*
X190767219Y-60690476D01*
X190767219Y-60762107D01*
X190745064Y-60806416D01*
X190700754Y-60828571D01*
X190300552Y-60828571D01*
X190300552Y-60690476D01*
X190298631Y-60670967D01*
X190283699Y-60634919D01*
X190256109Y-60607329D01*
X190220061Y-60592397D01*
X190181043Y-60592397D01*
X190144995Y-60607329D01*
X190117405Y-60634919D01*
X190102473Y-60670967D01*
X190100552Y-60690476D01*
X190100552Y-60828571D01*
X189867219Y-60828571D01*
X189847710Y-60830492D01*
X189811662Y-60845424D01*
X189784072Y-60873014D01*
X189769140Y-60909062D01*
X187905227Y-60909062D01*
X187905227Y-60071428D01*
X190100552Y-60071428D01*
X190100552Y-60214285D01*
X190102473Y-60233794D01*
X190103848Y-60237114D01*
X190104103Y-60240698D01*
X190111109Y-60259006D01*
X190158728Y-60354244D01*
X190164013Y-60362640D01*
X190165024Y-60365080D01*
X190167277Y-60367826D01*
X190169171Y-60370834D01*
X190171165Y-60372563D01*
X190177460Y-60380234D01*
X190225079Y-60427852D01*
X190232745Y-60434144D01*
X190234478Y-60436142D01*
X190237486Y-60438035D01*
X190240232Y-60440289D01*
X190242672Y-60441299D01*
X190251069Y-60446585D01*
X190346306Y-60494204D01*
X190364615Y-60501210D01*
X190368198Y-60501464D01*
X190371519Y-60502840D01*
X190391028Y-60504761D01*
X190676742Y-60504761D01*
X190696251Y-60502840D01*
X190699571Y-60501464D01*
X190703155Y-60501210D01*
X190721463Y-60494204D01*
X190816701Y-60446585D01*
X190825093Y-60441301D01*
X190827537Y-60440290D01*
X190830286Y-60438033D01*
X190833291Y-60436142D01*
X190835020Y-60434147D01*
X190842690Y-60427853D01*
X190890310Y-60380235D01*
X190896603Y-60372566D01*
X190898600Y-60370835D01*
X190900493Y-60367826D01*
X190902747Y-60365081D01*
X190903757Y-60362640D01*
X190909043Y-60354244D01*
X190956662Y-60259007D01*
X190963668Y-60240698D01*
X190963922Y-60237114D01*
X190965298Y-60233794D01*
X190967219Y-60214285D01*
X190967219Y-60071428D01*
X190965298Y-60051919D01*
X190963922Y-60048598D01*
X190963668Y-60045015D01*
X190956662Y-60026706D01*
X190909043Y-59931469D01*
X190903757Y-59923072D01*
X190902747Y-59920632D01*
X190900493Y-59917886D01*
X190898600Y-59914878D01*
X190896603Y-59913146D01*
X190890310Y-59905478D01*
X190842690Y-59857860D01*
X190835020Y-59851565D01*
X190833291Y-59849571D01*
X190830286Y-59847679D01*
X190827537Y-59845423D01*
X190825093Y-59844411D01*
X190816701Y-59839128D01*
X190721463Y-59791509D01*
X190703155Y-59784503D01*
X190699571Y-59784248D01*
X190696251Y-59782873D01*
X190676742Y-59780952D01*
X190391028Y-59780952D01*
X190371519Y-59782873D01*
X190368198Y-59784248D01*
X190364615Y-59784503D01*
X190346306Y-59791509D01*
X190251069Y-59839128D01*
X190242672Y-59844413D01*
X190240232Y-59845424D01*
X190237486Y-59847677D01*
X190234478Y-59849571D01*
X190232745Y-59851568D01*
X190225079Y-59857861D01*
X190177460Y-59905479D01*
X190171165Y-59913149D01*
X190169171Y-59914879D01*
X190167277Y-59917886D01*
X190165024Y-59920633D01*
X190164013Y-59923072D01*
X190158728Y-59931469D01*
X190111109Y-60026707D01*
X190104103Y-60045015D01*
X190103848Y-60048598D01*
X190102473Y-60051919D01*
X190100552Y-60071428D01*
X187905227Y-60071428D01*
X187905227Y-58738095D01*
X190100552Y-58738095D01*
X190100552Y-58880952D01*
X190102473Y-58900461D01*
X190103848Y-58903781D01*
X190104103Y-58907365D01*
X190111109Y-58925673D01*
X190158728Y-59020911D01*
X190160552Y-59023809D01*
X190158728Y-59026707D01*
X190111109Y-59121945D01*
X190104103Y-59140253D01*
X190103848Y-59143836D01*
X190102473Y-59147157D01*
X190100552Y-59166666D01*
X190100552Y-59309523D01*
X190102473Y-59329032D01*
X190103848Y-59332352D01*
X190104103Y-59335936D01*
X190111109Y-59354244D01*
X190127400Y-59386827D01*
X190117405Y-59396823D01*
X190102473Y-59432871D01*
X190102473Y-59471889D01*
X190117405Y-59507937D01*
X190144995Y-59535527D01*
X190181043Y-59550459D01*
X190200552Y-59552380D01*
X190867219Y-59552380D01*
X190886728Y-59550459D01*
X190922776Y-59535527D01*
X190950366Y-59507937D01*
X190965298Y-59471889D01*
X190965298Y-59432871D01*
X190950366Y-59396823D01*
X190922776Y-59369233D01*
X190886728Y-59354301D01*
X190867219Y-59352380D01*
X190337212Y-59352380D01*
X190330357Y-59345525D01*
X190300552Y-59285915D01*
X190300552Y-59190273D01*
X190322707Y-59145963D01*
X190367016Y-59123809D01*
X190867219Y-59123809D01*
X190886728Y-59121888D01*
X190922776Y-59106956D01*
X190950366Y-59079366D01*
X190965298Y-59043318D01*
X190965298Y-59004300D01*
X190950366Y-58968252D01*
X190922776Y-58940662D01*
X190886728Y-58925730D01*
X190867219Y-58923809D01*
X190367016Y-58923809D01*
X190322707Y-58901654D01*
X190300552Y-58857344D01*
X190300552Y-58761701D01*
X190322706Y-58717391D01*
X190367016Y-58695237D01*
X190867219Y-58695237D01*
X190886728Y-58693316D01*
X190922776Y-58678384D01*
X190950366Y-58650794D01*
X190965298Y-58614746D01*
X190965298Y-58575728D01*
X190950366Y-58539680D01*
X190922776Y-58512090D01*
X190886728Y-58497158D01*
X190867219Y-58495237D01*
X190343409Y-58495237D01*
X190323900Y-58497158D01*
X190320579Y-58498533D01*
X190316996Y-58498788D01*
X190298687Y-58505794D01*
X190203450Y-58553413D01*
X190200187Y-58555466D01*
X190198647Y-58555980D01*
X190196729Y-58557643D01*
X190186859Y-58563856D01*
X190178642Y-58573330D01*
X190169171Y-58581545D01*
X190162957Y-58591416D01*
X190161295Y-58593333D01*
X190160781Y-58594871D01*
X190158728Y-58598135D01*
X190111109Y-58693374D01*
X190104103Y-58711683D01*
X190103848Y-58715265D01*
X190102473Y-58718586D01*
X190100552Y-58738095D01*
X187905227Y-58738095D01*
X187905227Y-57309524D01*
X188157275Y-57309524D01*
X188157275Y-57547619D01*
X188159196Y-57567128D01*
X188160571Y-57570448D01*
X188160826Y-57574032D01*
X188167832Y-57592340D01*
X188215451Y-57687578D01*
X188220736Y-57695974D01*
X188221747Y-57698414D01*
X188224000Y-57701160D01*
X188225894Y-57704168D01*
X188227888Y-57705897D01*
X188234183Y-57713568D01*
X188281802Y-57761186D01*
X188296955Y-57773623D01*
X188333004Y-57788554D01*
X188372022Y-57788554D01*
X188408070Y-57773623D01*
X188435660Y-57746033D01*
X188450591Y-57709985D01*
X188450591Y-57670967D01*
X188435660Y-57634918D01*
X188423223Y-57619765D01*
X188387080Y-57583621D01*
X188357275Y-57524011D01*
X188357275Y-57333131D01*
X188387080Y-57273521D01*
X188411748Y-57248852D01*
X188471358Y-57219048D01*
X188526762Y-57219048D01*
X188631826Y-57254069D01*
X189186564Y-57808806D01*
X189201718Y-57821242D01*
X189237766Y-57836174D01*
X189276784Y-57836174D01*
X189312832Y-57821242D01*
X189340422Y-57793652D01*
X189343710Y-57785714D01*
X190100552Y-57785714D01*
X190100552Y-57976190D01*
X190102473Y-57995699D01*
X190103848Y-57999019D01*
X190104103Y-58002603D01*
X190111109Y-58020911D01*
X190158728Y-58116149D01*
X190164013Y-58124545D01*
X190165024Y-58126985D01*
X190167277Y-58129731D01*
X190169171Y-58132739D01*
X190171165Y-58134468D01*
X190177460Y-58142139D01*
X190225079Y-58189757D01*
X190232745Y-58196049D01*
X190234478Y-58198047D01*
X190237486Y-58199940D01*
X190240232Y-58202194D01*
X190242672Y-58203204D01*
X190251069Y-58208490D01*
X190346306Y-58256109D01*
X190364615Y-58263115D01*
X190368198Y-58263369D01*
X190371519Y-58264745D01*
X190391028Y-58266666D01*
X190676742Y-58266666D01*
X190696251Y-58264745D01*
X190699571Y-58263369D01*
X190703155Y-58263115D01*
X190721463Y-58256109D01*
X190816701Y-58208490D01*
X190825093Y-58203206D01*
X190827537Y-58202195D01*
X190830286Y-58199938D01*
X190833291Y-58198047D01*
X190835020Y-58196052D01*
X190842690Y-58189758D01*
X190890310Y-58142140D01*
X190896603Y-58134471D01*
X190898600Y-58132740D01*
X190900493Y-58129731D01*
X190902747Y-58126986D01*
X190903757Y-58124545D01*
X190909043Y-58116149D01*
X190956662Y-58020912D01*
X190963668Y-58002603D01*
X190963922Y-57999019D01*
X190965298Y-57995699D01*
X190967219Y-57976190D01*
X190967219Y-57785714D01*
X190965298Y-57766205D01*
X190963922Y-57762884D01*
X190963668Y-57759301D01*
X190956662Y-57740992D01*
X190909043Y-57645755D01*
X190898600Y-57629164D01*
X190869123Y-57603600D01*
X190832107Y-57591261D01*
X190793187Y-57594027D01*
X190758288Y-57611476D01*
X190732724Y-57640953D01*
X190720385Y-57677969D01*
X190723151Y-57716889D01*
X190730157Y-57735197D01*
X190767219Y-57809321D01*
X190767219Y-57952583D01*
X190737414Y-58012192D01*
X190712746Y-58036859D01*
X190653135Y-58066666D01*
X190414635Y-58066666D01*
X190355025Y-58036861D01*
X190330357Y-58012192D01*
X190300552Y-57952582D01*
X190300552Y-57809321D01*
X190337614Y-57735198D01*
X190344620Y-57716889D01*
X190347386Y-57677969D01*
X190335047Y-57640953D01*
X190309482Y-57611476D01*
X190274584Y-57594027D01*
X190235664Y-57591262D01*
X190198648Y-57603600D01*
X190169171Y-57629165D01*
X190158728Y-57645755D01*
X190111109Y-57740993D01*
X190104103Y-57759301D01*
X190103848Y-57762884D01*
X190102473Y-57766205D01*
X190100552Y-57785714D01*
X189343710Y-57785714D01*
X189355354Y-57757604D01*
X189357275Y-57738095D01*
X189357275Y-57119048D01*
X189355354Y-57099539D01*
X189340422Y-57063491D01*
X189312832Y-57035901D01*
X189276784Y-57020969D01*
X189237766Y-57020969D01*
X189201718Y-57035901D01*
X189174128Y-57063491D01*
X189159196Y-57099539D01*
X189157275Y-57119048D01*
X189157275Y-57496673D01*
X188756557Y-57095956D01*
X188741403Y-57083520D01*
X188738084Y-57082145D01*
X188735369Y-57079790D01*
X188717468Y-57071799D01*
X188574612Y-57024180D01*
X188564940Y-57021980D01*
X188562498Y-57020969D01*
X188558959Y-57020620D01*
X188555496Y-57019833D01*
X188552862Y-57020020D01*
X188542989Y-57019048D01*
X188447751Y-57019048D01*
X188428242Y-57020969D01*
X188424921Y-57022344D01*
X188421338Y-57022599D01*
X188403029Y-57029605D01*
X188307792Y-57077224D01*
X188299395Y-57082509D01*
X188296955Y-57083520D01*
X188294209Y-57085773D01*
X188291201Y-57087667D01*
X188289468Y-57089664D01*
X188281802Y-57095957D01*
X188234183Y-57143575D01*
X188227888Y-57151245D01*
X188225894Y-57152975D01*
X188224000Y-57155982D01*
X188221747Y-57158729D01*
X188220736Y-57161168D01*
X188215451Y-57169565D01*
X188167832Y-57264803D01*
X188160826Y-57283111D01*
X188160571Y-57286694D01*
X188159196Y-57290015D01*
X188157275Y-57309524D01*
X187905227Y-57309524D01*
X187905227Y-56976190D01*
X190100552Y-56976190D01*
X190100552Y-57166666D01*
X190102473Y-57186175D01*
X190103848Y-57189495D01*
X190104103Y-57193079D01*
X190111109Y-57211387D01*
X190158728Y-57306625D01*
X190169171Y-57323215D01*
X190198648Y-57348780D01*
X190235664Y-57361118D01*
X190274584Y-57358353D01*
X190309482Y-57340904D01*
X190335047Y-57311427D01*
X190347386Y-57274411D01*
X190344620Y-57235491D01*
X190337614Y-57217182D01*
X190300552Y-57143058D01*
X190300552Y-56999797D01*
X190322707Y-56955487D01*
X190367016Y-56933333D01*
X190376843Y-56933333D01*
X190386266Y-56952178D01*
X190386266Y-57166666D01*
X190388187Y-57186175D01*
X190389562Y-57189495D01*
X190389817Y-57193079D01*
X190396823Y-57211387D01*
X190444442Y-57306625D01*
X190446495Y-57309888D01*
X190447009Y-57311427D01*
X190448671Y-57313343D01*
X190454885Y-57323215D01*
X190464355Y-57331428D01*
X190472573Y-57340904D01*
X190482446Y-57347118D01*
X190484362Y-57348780D01*
X190485900Y-57349292D01*
X190489164Y-57351347D01*
X190584401Y-57398966D01*
X190602710Y-57405972D01*
X190606293Y-57406226D01*
X190609614Y-57407602D01*
X190629123Y-57409523D01*
X190724361Y-57409523D01*
X190743870Y-57407602D01*
X190747190Y-57406226D01*
X190750773Y-57405972D01*
X190769082Y-57398966D01*
X190864321Y-57351347D01*
X190867584Y-57349293D01*
X190869123Y-57348780D01*
X190871039Y-57347117D01*
X190880911Y-57340904D01*
X190889125Y-57331432D01*
X190898600Y-57323216D01*
X190904812Y-57313345D01*
X190906476Y-57311428D01*
X190906989Y-57309887D01*
X190909043Y-57306625D01*
X190956662Y-57211388D01*
X190963668Y-57193079D01*
X190963922Y-57189495D01*
X190965298Y-57186175D01*
X190967219Y-57166666D01*
X190967219Y-56928571D01*
X190965298Y-56909062D01*
X190963922Y-56905741D01*
X190963668Y-56902158D01*
X190956662Y-56883849D01*
X190954360Y-56879246D01*
X190965298Y-56852842D01*
X190965298Y-56813824D01*
X190950366Y-56777776D01*
X190922776Y-56750186D01*
X190886728Y-56735254D01*
X190867219Y-56733333D01*
X190343409Y-56733333D01*
X190323900Y-56735254D01*
X190320579Y-56736629D01*
X190316996Y-56736884D01*
X190298687Y-56743890D01*
X190203450Y-56791509D01*
X190200186Y-56793563D01*
X190198648Y-56794076D01*
X190196732Y-56795737D01*
X190186859Y-56801952D01*
X190178641Y-56811427D01*
X190169171Y-56819641D01*
X190162957Y-56829512D01*
X190161295Y-56831429D01*
X190160781Y-56832967D01*
X190158728Y-56836231D01*
X190111109Y-56931469D01*
X190104103Y-56949777D01*
X190103848Y-56953360D01*
X190102473Y-56956681D01*
X190100552Y-56976190D01*
X187905227Y-56976190D01*
X187905227Y-56404762D01*
X188157275Y-56404762D01*
X188157275Y-56500000D01*
X188159196Y-56519509D01*
X188160571Y-56522829D01*
X188160826Y-56526413D01*
X188167832Y-56544721D01*
X188215451Y-56639959D01*
X188220736Y-56648355D01*
X188221747Y-56650795D01*
X188224000Y-56653541D01*
X188225894Y-56656549D01*
X188227888Y-56658278D01*
X188234183Y-56665949D01*
X188281802Y-56713567D01*
X188289468Y-56719859D01*
X188291201Y-56721857D01*
X188294209Y-56723750D01*
X188296955Y-56726004D01*
X188299395Y-56727014D01*
X188307792Y-56732300D01*
X188403029Y-56779919D01*
X188404457Y-56780465D01*
X188405037Y-56780895D01*
X188413213Y-56783816D01*
X188421338Y-56786925D01*
X188422058Y-56786976D01*
X188423497Y-56787490D01*
X188613973Y-56835109D01*
X188617354Y-56835609D01*
X188618718Y-56836174D01*
X188626068Y-56836897D01*
X188633366Y-56837977D01*
X188634824Y-56837759D01*
X188638227Y-56838095D01*
X188876322Y-56838095D01*
X188879724Y-56837759D01*
X188881183Y-56837977D01*
X188888480Y-56836897D01*
X188895831Y-56836174D01*
X188897194Y-56835609D01*
X188900576Y-56835109D01*
X189091051Y-56787490D01*
X189092488Y-56786976D01*
X189093211Y-56786925D01*
X189101335Y-56783816D01*
X189109512Y-56780895D01*
X189110092Y-56780464D01*
X189111519Y-56779919D01*
X189206757Y-56732300D01*
X189215149Y-56727016D01*
X189217593Y-56726005D01*
X189220342Y-56723748D01*
X189223347Y-56721857D01*
X189225076Y-56719862D01*
X189232746Y-56713568D01*
X189280366Y-56665950D01*
X189286659Y-56658281D01*
X189288656Y-56656550D01*
X189290549Y-56653541D01*
X189292803Y-56650796D01*
X189293813Y-56648355D01*
X189299099Y-56639959D01*
X189346718Y-56544722D01*
X189353724Y-56526413D01*
X189353978Y-56522829D01*
X189355354Y-56519509D01*
X189357275Y-56500000D01*
X189357275Y-56404762D01*
X189355354Y-56385253D01*
X189353978Y-56381932D01*
X189353724Y-56378349D01*
X189346718Y-56360040D01*
X189335514Y-56337633D01*
X189769140Y-56337633D01*
X189769140Y-56376651D01*
X189784072Y-56412699D01*
X189811662Y-56440289D01*
X189847710Y-56455221D01*
X189867219Y-56457142D01*
X190100552Y-56457142D01*
X190100552Y-56499999D01*
X190102473Y-56519508D01*
X190117405Y-56555556D01*
X190144995Y-56583146D01*
X190181043Y-56598078D01*
X190220061Y-56598078D01*
X190256109Y-56583146D01*
X190283699Y-56555556D01*
X190298631Y-56519508D01*
X190300552Y-56499999D01*
X190300552Y-56457142D01*
X190724361Y-56457142D01*
X190743870Y-56455221D01*
X190747190Y-56453845D01*
X190750773Y-56453591D01*
X190769082Y-56446585D01*
X190864321Y-56398966D01*
X190867584Y-56396912D01*
X190869123Y-56396399D01*
X190871039Y-56394736D01*
X190880911Y-56388523D01*
X190889125Y-56379051D01*
X190898600Y-56370835D01*
X190904812Y-56360964D01*
X190906476Y-56359047D01*
X190906989Y-56357506D01*
X190909043Y-56354244D01*
X190956662Y-56259007D01*
X190963668Y-56240698D01*
X190963922Y-56237114D01*
X190965298Y-56233794D01*
X190967219Y-56214285D01*
X190967219Y-56119047D01*
X190965298Y-56099538D01*
X190950366Y-56063490D01*
X190922776Y-56035900D01*
X190886728Y-56020968D01*
X190847710Y-56020968D01*
X190811662Y-56035900D01*
X190784072Y-56063490D01*
X190769140Y-56099538D01*
X190767219Y-56119047D01*
X190767219Y-56190678D01*
X190745064Y-56234987D01*
X190700754Y-56257142D01*
X190300552Y-56257142D01*
X190300552Y-56119047D01*
X190298631Y-56099538D01*
X190283699Y-56063490D01*
X190256109Y-56035900D01*
X190220061Y-56020968D01*
X190181043Y-56020968D01*
X190144995Y-56035900D01*
X190117405Y-56063490D01*
X190102473Y-56099538D01*
X190100552Y-56119047D01*
X190100552Y-56257142D01*
X189867219Y-56257142D01*
X189847710Y-56259063D01*
X189811662Y-56273995D01*
X189784072Y-56301585D01*
X189769140Y-56337633D01*
X189335514Y-56337633D01*
X189299099Y-56264803D01*
X189293813Y-56256406D01*
X189292803Y-56253966D01*
X189290549Y-56251220D01*
X189288656Y-56248212D01*
X189286659Y-56246480D01*
X189280366Y-56238812D01*
X189232746Y-56191194D01*
X189225076Y-56184899D01*
X189223347Y-56182905D01*
X189220342Y-56181013D01*
X189217593Y-56178757D01*
X189215149Y-56177745D01*
X189206757Y-56172462D01*
X189111519Y-56124843D01*
X189110092Y-56124297D01*
X189109512Y-56123867D01*
X189101335Y-56120945D01*
X189093211Y-56117837D01*
X189092488Y-56117785D01*
X189091051Y-56117272D01*
X188900576Y-56069653D01*
X188897194Y-56069152D01*
X188895831Y-56068588D01*
X188888480Y-56067864D01*
X188881183Y-56066785D01*
X188879724Y-56067002D01*
X188876322Y-56066667D01*
X188638227Y-56066667D01*
X188634824Y-56067002D01*
X188633366Y-56066785D01*
X188626068Y-56067864D01*
X188618718Y-56068588D01*
X188617354Y-56069152D01*
X188613973Y-56069653D01*
X188423497Y-56117272D01*
X188422058Y-56117785D01*
X188421338Y-56117837D01*
X188413213Y-56120945D01*
X188405037Y-56123867D01*
X188404457Y-56124296D01*
X188403029Y-56124843D01*
X188307792Y-56172462D01*
X188299395Y-56177747D01*
X188296955Y-56178758D01*
X188294209Y-56181011D01*
X188291201Y-56182905D01*
X188289468Y-56184902D01*
X188281802Y-56191195D01*
X188234183Y-56238813D01*
X188227888Y-56246483D01*
X188225894Y-56248213D01*
X188224000Y-56251220D01*
X188221747Y-56253967D01*
X188220736Y-56256406D01*
X188215451Y-56264803D01*
X188167832Y-56360041D01*
X188160826Y-56378349D01*
X188160571Y-56381932D01*
X188159196Y-56385253D01*
X188157275Y-56404762D01*
X187905227Y-56404762D01*
X187905227Y-55404762D01*
X188157275Y-55404762D01*
X188157275Y-55642857D01*
X188159196Y-55662366D01*
X188160571Y-55665686D01*
X188160826Y-55669270D01*
X188167832Y-55687578D01*
X188215451Y-55782816D01*
X188220736Y-55791212D01*
X188221747Y-55793652D01*
X188224000Y-55796398D01*
X188225894Y-55799406D01*
X188227888Y-55801135D01*
X188234183Y-55808806D01*
X188281802Y-55856424D01*
X188296955Y-55868861D01*
X188333004Y-55883792D01*
X188372022Y-55883792D01*
X188408070Y-55868861D01*
X188435660Y-55841271D01*
X188450591Y-55805223D01*
X188450591Y-55766205D01*
X188435660Y-55730156D01*
X188423223Y-55715003D01*
X188387080Y-55678859D01*
X188357275Y-55619249D01*
X188357275Y-55428369D01*
X188387080Y-55368759D01*
X188411748Y-55344090D01*
X188471358Y-55314286D01*
X188526762Y-55314286D01*
X188631826Y-55349307D01*
X189186564Y-55904044D01*
X189201718Y-55916480D01*
X189237766Y-55931412D01*
X189276784Y-55931412D01*
X189312832Y-55916480D01*
X189340422Y-55888890D01*
X189355354Y-55852842D01*
X189357275Y-55833333D01*
X189357275Y-55452380D01*
X189767219Y-55452380D01*
X189767219Y-55499999D01*
X189769140Y-55519508D01*
X189770515Y-55522828D01*
X189770770Y-55526412D01*
X189777776Y-55544720D01*
X189825395Y-55639958D01*
X189827448Y-55643221D01*
X189827962Y-55644760D01*
X189829624Y-55646676D01*
X189835838Y-55656548D01*
X189845308Y-55664761D01*
X189853526Y-55674237D01*
X189863399Y-55680451D01*
X189865315Y-55682113D01*
X189866853Y-55682625D01*
X189870117Y-55684680D01*
X189965354Y-55732299D01*
X189983663Y-55739305D01*
X189987246Y-55739559D01*
X189990567Y-55740935D01*
X190010076Y-55742856D01*
X190105314Y-55742856D01*
X190115187Y-55741883D01*
X190117821Y-55742071D01*
X190121284Y-55741283D01*
X190124823Y-55740935D01*
X190127265Y-55739923D01*
X190136937Y-55737724D01*
X190272268Y-55692613D01*
X190307823Y-55745945D01*
X190307867Y-55745999D01*
X190307881Y-55746032D01*
X190314061Y-55753563D01*
X190320243Y-55761112D01*
X190320272Y-55761131D01*
X190320317Y-55761186D01*
X190367936Y-55808804D01*
X190375602Y-55815096D01*
X190377335Y-55817094D01*
X190380343Y-55818987D01*
X190383089Y-55821241D01*
X190385529Y-55822251D01*
X190393926Y-55827537D01*
X190489163Y-55875156D01*
X190507472Y-55882162D01*
X190511055Y-55882416D01*
X190514376Y-55883792D01*
X190533885Y-55885713D01*
X190676742Y-55885713D01*
X190696251Y-55883792D01*
X190699571Y-55882416D01*
X190703155Y-55882162D01*
X190721463Y-55875156D01*
X190816701Y-55827537D01*
X190825093Y-55822253D01*
X190827537Y-55821242D01*
X190830286Y-55818985D01*
X190833291Y-55817094D01*
X190835020Y-55815099D01*
X190842690Y-55808805D01*
X190890310Y-55761187D01*
X190896603Y-55753518D01*
X190898600Y-55751787D01*
X190900493Y-55748778D01*
X190902747Y-55746033D01*
X190903757Y-55743592D01*
X190909043Y-55735196D01*
X190956662Y-55639959D01*
X190963668Y-55621650D01*
X190963922Y-55618066D01*
X190965298Y-55614746D01*
X190967219Y-55595237D01*
X190967219Y-55452380D01*
X190965298Y-55432871D01*
X190963922Y-55429550D01*
X190963668Y-55425967D01*
X190956662Y-55407658D01*
X190909043Y-55312421D01*
X190903757Y-55304024D01*
X190902747Y-55301584D01*
X190900493Y-55298838D01*
X190898600Y-55295830D01*
X190896603Y-55294098D01*
X190890310Y-55286430D01*
X190842690Y-55238812D01*
X190841902Y-55238165D01*
X190890310Y-55189758D01*
X190896602Y-55182091D01*
X190898600Y-55180359D01*
X190900493Y-55177350D01*
X190902747Y-55174605D01*
X190903757Y-55172164D01*
X190909043Y-55163768D01*
X190956662Y-55068531D01*
X190963668Y-55050222D01*
X190963922Y-55046638D01*
X190965298Y-55043318D01*
X190967219Y-55023809D01*
X190967219Y-54976189D01*
X190965298Y-54956680D01*
X190950366Y-54920632D01*
X190922776Y-54893042D01*
X190886728Y-54878110D01*
X190847710Y-54878110D01*
X190811662Y-54893042D01*
X190784072Y-54920632D01*
X190769140Y-54956680D01*
X190767219Y-54976189D01*
X190767219Y-55000202D01*
X190737414Y-55059811D01*
X190680964Y-55116261D01*
X190641504Y-55086666D01*
X190633023Y-55081520D01*
X190631027Y-55079789D01*
X190627782Y-55078340D01*
X190624744Y-55076497D01*
X190622182Y-55075840D01*
X190613126Y-55071798D01*
X190470270Y-55024179D01*
X190460598Y-55021979D01*
X190458156Y-55020968D01*
X190454617Y-55020619D01*
X190451154Y-55019832D01*
X190448520Y-55020019D01*
X190438647Y-55019047D01*
X190343409Y-55019047D01*
X190323900Y-55020968D01*
X190287852Y-55035900D01*
X190260262Y-55063490D01*
X190245330Y-55099538D01*
X190245330Y-55138556D01*
X190260262Y-55174604D01*
X190287852Y-55202194D01*
X190323900Y-55217126D01*
X190343409Y-55219047D01*
X190422420Y-55219047D01*
X190529238Y-55254653D01*
X190331115Y-55419755D01*
X190330851Y-55419932D01*
X190283757Y-55349291D01*
X190283713Y-55349237D01*
X190283699Y-55349203D01*
X190277554Y-55341717D01*
X190271337Y-55334124D01*
X190271305Y-55334102D01*
X190271262Y-55334050D01*
X190223644Y-55286431D01*
X190215973Y-55280136D01*
X190214244Y-55278142D01*
X190211236Y-55276248D01*
X190208490Y-55273995D01*
X190206050Y-55272984D01*
X190197654Y-55267699D01*
X190102416Y-55220080D01*
X190084108Y-55213074D01*
X190080524Y-55212819D01*
X190077204Y-55211444D01*
X190057695Y-55209523D01*
X190010076Y-55209523D01*
X189990567Y-55211444D01*
X189987246Y-55212819D01*
X189983663Y-55213074D01*
X189965354Y-55220080D01*
X189870117Y-55267699D01*
X189866853Y-55269753D01*
X189865315Y-55270266D01*
X189863399Y-55271927D01*
X189853526Y-55278142D01*
X189845308Y-55287617D01*
X189835838Y-55295831D01*
X189829624Y-55305702D01*
X189827962Y-55307619D01*
X189827448Y-55309157D01*
X189825395Y-55312421D01*
X189777776Y-55407659D01*
X189770770Y-55425967D01*
X189770515Y-55429550D01*
X189769140Y-55432871D01*
X189767219Y-55452380D01*
X189357275Y-55452380D01*
X189357275Y-55214286D01*
X189355354Y-55194777D01*
X189340422Y-55158729D01*
X189312832Y-55131139D01*
X189276784Y-55116207D01*
X189237766Y-55116207D01*
X189201718Y-55131139D01*
X189174128Y-55158729D01*
X189159196Y-55194777D01*
X189157275Y-55214286D01*
X189157275Y-55591911D01*
X188756557Y-55191194D01*
X188741403Y-55178758D01*
X188738084Y-55177383D01*
X188735369Y-55175028D01*
X188717468Y-55167037D01*
X188574612Y-55119418D01*
X188564940Y-55117218D01*
X188562498Y-55116207D01*
X188558959Y-55115858D01*
X188555496Y-55115071D01*
X188552862Y-55115258D01*
X188542989Y-55114286D01*
X188447751Y-55114286D01*
X188428242Y-55116207D01*
X188424921Y-55117582D01*
X188421338Y-55117837D01*
X188403029Y-55124843D01*
X188307792Y-55172462D01*
X188299395Y-55177747D01*
X188296955Y-55178758D01*
X188294209Y-55181011D01*
X188291201Y-55182905D01*
X188289468Y-55184902D01*
X188281802Y-55191195D01*
X188234183Y-55238813D01*
X188227888Y-55246483D01*
X188225894Y-55248213D01*
X188224000Y-55251220D01*
X188221747Y-55253967D01*
X188220736Y-55256406D01*
X188215451Y-55264803D01*
X188167832Y-55360041D01*
X188160826Y-55378349D01*
X188160571Y-55381932D01*
X188159196Y-55385253D01*
X188157275Y-55404762D01*
X187905227Y-55404762D01*
X187905227Y-54357143D01*
X188157275Y-54357143D01*
X188157275Y-54547619D01*
X188159196Y-54567128D01*
X188160571Y-54570448D01*
X188160826Y-54574032D01*
X188167832Y-54592340D01*
X188215451Y-54687578D01*
X188220736Y-54695974D01*
X188221747Y-54698414D01*
X188224000Y-54701160D01*
X188225894Y-54704168D01*
X188227888Y-54705897D01*
X188234183Y-54713568D01*
X188281802Y-54761186D01*
X188281854Y-54761229D01*
X188281876Y-54761261D01*
X188289469Y-54767478D01*
X188296955Y-54773623D01*
X188296989Y-54773637D01*
X188297043Y-54773681D01*
X188439900Y-54868919D01*
X188450669Y-54874661D01*
X188452656Y-54876133D01*
X188455001Y-54876971D01*
X188457198Y-54878142D01*
X188459621Y-54878621D01*
X188471116Y-54882728D01*
X188661592Y-54930347D01*
X188664973Y-54930847D01*
X188666337Y-54931412D01*
X188673687Y-54932135D01*
X188680985Y-54933215D01*
X188682443Y-54932997D01*
X188685846Y-54933333D01*
X189066798Y-54933333D01*
X189086307Y-54931412D01*
X189089627Y-54930036D01*
X189093211Y-54929782D01*
X189111519Y-54922776D01*
X189206757Y-54875157D01*
X189215149Y-54869873D01*
X189217593Y-54868862D01*
X189220342Y-54866605D01*
X189223347Y-54864714D01*
X189225076Y-54862719D01*
X189232746Y-54856425D01*
X189280366Y-54808807D01*
X189286659Y-54801138D01*
X189288656Y-54799407D01*
X189290549Y-54796398D01*
X189292803Y-54793653D01*
X189293813Y-54791212D01*
X189299099Y-54782816D01*
X189346718Y-54687579D01*
X189353724Y-54669270D01*
X189353978Y-54665686D01*
X189355354Y-54662366D01*
X189357275Y-54642857D01*
X189357275Y-54452381D01*
X189355354Y-54432872D01*
X189353978Y-54429551D01*
X189353724Y-54425968D01*
X189346718Y-54407659D01*
X189299099Y-54312422D01*
X189293813Y-54304025D01*
X189292803Y-54301585D01*
X189290549Y-54298839D01*
X189288656Y-54295831D01*
X189286659Y-54294099D01*
X189280366Y-54286431D01*
X189255838Y-54261904D01*
X190100552Y-54261904D01*
X190100552Y-54452380D01*
X190102473Y-54471889D01*
X190103848Y-54475209D01*
X190104103Y-54478793D01*
X190111109Y-54497101D01*
X190113410Y-54501704D01*
X190102473Y-54528109D01*
X190102473Y-54567127D01*
X190117405Y-54603175D01*
X190144995Y-54630765D01*
X190181043Y-54645697D01*
X190200552Y-54647618D01*
X191200552Y-54647618D01*
X191220061Y-54645697D01*
X191256109Y-54630765D01*
X191283699Y-54603175D01*
X191298631Y-54567127D01*
X191298631Y-54528109D01*
X191283699Y-54492061D01*
X191256109Y-54464471D01*
X191220061Y-54449539D01*
X191200552Y-54447618D01*
X190967219Y-54447618D01*
X190967219Y-54261904D01*
X190965298Y-54242395D01*
X190963922Y-54239074D01*
X190963668Y-54235491D01*
X190956662Y-54217182D01*
X190909043Y-54121945D01*
X190903757Y-54113548D01*
X190902747Y-54111108D01*
X190900493Y-54108362D01*
X190898600Y-54105354D01*
X190896603Y-54103622D01*
X190890310Y-54095954D01*
X190842690Y-54048336D01*
X190835020Y-54042041D01*
X190833291Y-54040047D01*
X190830286Y-54038155D01*
X190827537Y-54035899D01*
X190825093Y-54034887D01*
X190816701Y-54029604D01*
X190721463Y-53981985D01*
X190703155Y-53974979D01*
X190699571Y-53974724D01*
X190696251Y-53973349D01*
X190676742Y-53971428D01*
X190391028Y-53971428D01*
X190371519Y-53973349D01*
X190368198Y-53974724D01*
X190364615Y-53974979D01*
X190346306Y-53981985D01*
X190251069Y-54029604D01*
X190242672Y-54034889D01*
X190240232Y-54035900D01*
X190237486Y-54038153D01*
X190234478Y-54040047D01*
X190232745Y-54042044D01*
X190225079Y-54048337D01*
X190177460Y-54095955D01*
X190171165Y-54103625D01*
X190169171Y-54105355D01*
X190167277Y-54108362D01*
X190165024Y-54111109D01*
X190164013Y-54113548D01*
X190158728Y-54121945D01*
X190111109Y-54217183D01*
X190104103Y-54235491D01*
X190103848Y-54239074D01*
X190102473Y-54242395D01*
X190100552Y-54261904D01*
X189255838Y-54261904D01*
X189232746Y-54238813D01*
X189225076Y-54232518D01*
X189223347Y-54230524D01*
X189220342Y-54228632D01*
X189217593Y-54226376D01*
X189215149Y-54225364D01*
X189206757Y-54220081D01*
X189111519Y-54172462D01*
X189093211Y-54165456D01*
X189089627Y-54165201D01*
X189086307Y-54163826D01*
X189066798Y-54161905D01*
X188828703Y-54161905D01*
X188809194Y-54163826D01*
X188805873Y-54165201D01*
X188802290Y-54165456D01*
X188783981Y-54172462D01*
X188688744Y-54220081D01*
X188680347Y-54225366D01*
X188677907Y-54226377D01*
X188675161Y-54228630D01*
X188672153Y-54230524D01*
X188670420Y-54232521D01*
X188662754Y-54238814D01*
X188615135Y-54286432D01*
X188608840Y-54294102D01*
X188606846Y-54295832D01*
X188604952Y-54298839D01*
X188602699Y-54301586D01*
X188601688Y-54304025D01*
X188596403Y-54312422D01*
X188548784Y-54407660D01*
X188541778Y-54425968D01*
X188541523Y-54429551D01*
X188540148Y-54432872D01*
X188538227Y-54452381D01*
X188538227Y-54642857D01*
X188540148Y-54662366D01*
X188541523Y-54665686D01*
X188541778Y-54669270D01*
X188548784Y-54687578D01*
X188553590Y-54697191D01*
X188536428Y-54692901D01*
X188416221Y-54612763D01*
X188387080Y-54583621D01*
X188357275Y-54524011D01*
X188357275Y-54357143D01*
X188355354Y-54337634D01*
X188340422Y-54301586D01*
X188312832Y-54273996D01*
X188276784Y-54259064D01*
X188237766Y-54259064D01*
X188201718Y-54273996D01*
X188174128Y-54301586D01*
X188159196Y-54337634D01*
X188157275Y-54357143D01*
X187905227Y-54357143D01*
X187905227Y-53357142D01*
X190100552Y-53357142D01*
X190100552Y-53547618D01*
X190102473Y-53567127D01*
X190103848Y-53570447D01*
X190104103Y-53574031D01*
X190111109Y-53592339D01*
X190158728Y-53687577D01*
X190160781Y-53690840D01*
X190161295Y-53692379D01*
X190162957Y-53694295D01*
X190169171Y-53704167D01*
X190178641Y-53712380D01*
X190186859Y-53721856D01*
X190196732Y-53728070D01*
X190198648Y-53729732D01*
X190200186Y-53730244D01*
X190203450Y-53732299D01*
X190298687Y-53779918D01*
X190316996Y-53786924D01*
X190320579Y-53787178D01*
X190323900Y-53788554D01*
X190343409Y-53790475D01*
X190533990Y-53790475D01*
X190724361Y-53790475D01*
X190743870Y-53788554D01*
X190747190Y-53787178D01*
X190750773Y-53786924D01*
X190769082Y-53779918D01*
X190864321Y-53732299D01*
X190867584Y-53730245D01*
X190869123Y-53729732D01*
X190871039Y-53728069D01*
X190880911Y-53721856D01*
X190889125Y-53712384D01*
X190898600Y-53704168D01*
X190904812Y-53694297D01*
X190906476Y-53692380D01*
X190906989Y-53690839D01*
X190909043Y-53687577D01*
X190956662Y-53592340D01*
X190963668Y-53574031D01*
X190963922Y-53570447D01*
X190965298Y-53567127D01*
X190967219Y-53547618D01*
X190967219Y-53357142D01*
X190965298Y-53337633D01*
X190963922Y-53334312D01*
X190963668Y-53330729D01*
X190956662Y-53312420D01*
X190909043Y-53217183D01*
X190898600Y-53200592D01*
X190869123Y-53175028D01*
X190832107Y-53162689D01*
X190793187Y-53165455D01*
X190758288Y-53182904D01*
X190732724Y-53212381D01*
X190720385Y-53249397D01*
X190723151Y-53288317D01*
X190730157Y-53306625D01*
X190767219Y-53380749D01*
X190767219Y-53524011D01*
X190745064Y-53568320D01*
X190700754Y-53590475D01*
X190615865Y-53590475D01*
X190536705Y-53194673D01*
X190530995Y-53175920D01*
X190525543Y-53167779D01*
X190521794Y-53158728D01*
X190514794Y-53151728D01*
X190509284Y-53143500D01*
X190501130Y-53138064D01*
X190494204Y-53131138D01*
X190485057Y-53127349D01*
X190476819Y-53121857D01*
X190467208Y-53119955D01*
X190458156Y-53116206D01*
X190438647Y-53114285D01*
X190343409Y-53114285D01*
X190323900Y-53116206D01*
X190320579Y-53117581D01*
X190316996Y-53117836D01*
X190298687Y-53124842D01*
X190203450Y-53172461D01*
X190200186Y-53174515D01*
X190198648Y-53175028D01*
X190196732Y-53176689D01*
X190186859Y-53182904D01*
X190178641Y-53192379D01*
X190169171Y-53200593D01*
X190162957Y-53210464D01*
X190161295Y-53212381D01*
X190160781Y-53213919D01*
X190158728Y-53217183D01*
X190111109Y-53312421D01*
X190104103Y-53330729D01*
X190103848Y-53334312D01*
X190102473Y-53337633D01*
X190100552Y-53357142D01*
X187905227Y-53357142D01*
X187905227Y-52766205D01*
X188016338Y-52766205D01*
X188016338Y-52805223D01*
X188031270Y-52841271D01*
X188043706Y-52856425D01*
X188091325Y-52904043D01*
X188091377Y-52904086D01*
X188091399Y-52904118D01*
X188098992Y-52910335D01*
X188106478Y-52916480D01*
X188106512Y-52916494D01*
X188106566Y-52916538D01*
X188249425Y-53011776D01*
X188254905Y-53014698D01*
X188260173Y-53018014D01*
X188355410Y-53065633D01*
X188362038Y-53068169D01*
X188368509Y-53071058D01*
X188511366Y-53118677D01*
X188517427Y-53120055D01*
X188523377Y-53121867D01*
X188761472Y-53169486D01*
X188761540Y-53169492D01*
X188761575Y-53169507D01*
X188771464Y-53170480D01*
X188780979Y-53171428D01*
X188781013Y-53171421D01*
X188781084Y-53171428D01*
X188971560Y-53171428D01*
X188971630Y-53171421D01*
X188971665Y-53171428D01*
X188981179Y-53170480D01*
X188991069Y-53169507D01*
X188991103Y-53169492D01*
X188991172Y-53169486D01*
X189229267Y-53121867D01*
X189235215Y-53120055D01*
X189241279Y-53118677D01*
X189384135Y-53071058D01*
X189390605Y-53068169D01*
X189397234Y-53065633D01*
X189492472Y-53018014D01*
X189497735Y-53014700D01*
X189503221Y-53011776D01*
X189646078Y-52916538D01*
X189646132Y-52916493D01*
X189646165Y-52916480D01*
X189653696Y-52910299D01*
X189661245Y-52904118D01*
X189661264Y-52904088D01*
X189661319Y-52904044D01*
X189708937Y-52856425D01*
X189721374Y-52841272D01*
X189736305Y-52805223D01*
X189736305Y-52766205D01*
X189721374Y-52730157D01*
X189693784Y-52702567D01*
X189657736Y-52687636D01*
X189618718Y-52687636D01*
X189582669Y-52702567D01*
X189567516Y-52715004D01*
X189526897Y-52755621D01*
X189397464Y-52841910D01*
X189314145Y-52883570D01*
X189183941Y-52926971D01*
X188961658Y-52971428D01*
X188790985Y-52971428D01*
X188568701Y-52926971D01*
X188438499Y-52883570D01*
X188355182Y-52841911D01*
X188225744Y-52755620D01*
X188185128Y-52715003D01*
X188169974Y-52702567D01*
X188133926Y-52687635D01*
X188094908Y-52687635D01*
X188058860Y-52702567D01*
X188031270Y-52730157D01*
X188016338Y-52766205D01*
X187905227Y-52766205D01*
X187905227Y-52071428D01*
X188490608Y-52071428D01*
X188490608Y-52261904D01*
X188492529Y-52281413D01*
X188493904Y-52284733D01*
X188494159Y-52288317D01*
X188501165Y-52306625D01*
X188548784Y-52401863D01*
X188554069Y-52410259D01*
X188555080Y-52412699D01*
X188557333Y-52415445D01*
X188559227Y-52418453D01*
X188561221Y-52420182D01*
X188567516Y-52427853D01*
X188615135Y-52475471D01*
X188622801Y-52481763D01*
X188624534Y-52483761D01*
X188627542Y-52485654D01*
X188630288Y-52487908D01*
X188632728Y-52488918D01*
X188641125Y-52494204D01*
X188736362Y-52541823D01*
X188754671Y-52548829D01*
X188758254Y-52549083D01*
X188761575Y-52550459D01*
X188781084Y-52552380D01*
X189066798Y-52552380D01*
X189086307Y-52550459D01*
X189089627Y-52549083D01*
X189093211Y-52548829D01*
X189111519Y-52541823D01*
X189195167Y-52499999D01*
X190100552Y-52499999D01*
X190100552Y-52690475D01*
X190102473Y-52709984D01*
X190103848Y-52713304D01*
X190104103Y-52716888D01*
X190111109Y-52735196D01*
X190158728Y-52830434D01*
X190169171Y-52847024D01*
X190198648Y-52872589D01*
X190235664Y-52884927D01*
X190274584Y-52882162D01*
X190309482Y-52864713D01*
X190335047Y-52835236D01*
X190347386Y-52798220D01*
X190344620Y-52759300D01*
X190337614Y-52740991D01*
X190300552Y-52666867D01*
X190300552Y-52523606D01*
X190322707Y-52479296D01*
X190367016Y-52457142D01*
X190376843Y-52457142D01*
X190386266Y-52475987D01*
X190386266Y-52690475D01*
X190388187Y-52709984D01*
X190389562Y-52713304D01*
X190389817Y-52716888D01*
X190396823Y-52735196D01*
X190444442Y-52830434D01*
X190446495Y-52833697D01*
X190447009Y-52835236D01*
X190448671Y-52837152D01*
X190454885Y-52847024D01*
X190464355Y-52855237D01*
X190472573Y-52864713D01*
X190482446Y-52870927D01*
X190484362Y-52872589D01*
X190485900Y-52873101D01*
X190489164Y-52875156D01*
X190584401Y-52922775D01*
X190602710Y-52929781D01*
X190606293Y-52930035D01*
X190609614Y-52931411D01*
X190629123Y-52933332D01*
X190724361Y-52933332D01*
X190743870Y-52931411D01*
X190747190Y-52930035D01*
X190750773Y-52929781D01*
X190769082Y-52922775D01*
X190864321Y-52875156D01*
X190867584Y-52873102D01*
X190869123Y-52872589D01*
X190871039Y-52870926D01*
X190880911Y-52864713D01*
X190889125Y-52855241D01*
X190898600Y-52847025D01*
X190904812Y-52837154D01*
X190906476Y-52835237D01*
X190906989Y-52833696D01*
X190909043Y-52830434D01*
X190956662Y-52735197D01*
X190963668Y-52716888D01*
X190963922Y-52713304D01*
X190965298Y-52709984D01*
X190967219Y-52690475D01*
X190967219Y-52452380D01*
X190965298Y-52432871D01*
X190963922Y-52429550D01*
X190963668Y-52425967D01*
X190956662Y-52407658D01*
X190954360Y-52403055D01*
X190965298Y-52376651D01*
X190965298Y-52337633D01*
X190950366Y-52301585D01*
X190922776Y-52273995D01*
X190886728Y-52259063D01*
X190867219Y-52257142D01*
X190343409Y-52257142D01*
X190323900Y-52259063D01*
X190320579Y-52260438D01*
X190316996Y-52260693D01*
X190298687Y-52267699D01*
X190203450Y-52315318D01*
X190200186Y-52317372D01*
X190198648Y-52317885D01*
X190196732Y-52319546D01*
X190186859Y-52325761D01*
X190178641Y-52335236D01*
X190169171Y-52343450D01*
X190162957Y-52353321D01*
X190161295Y-52355238D01*
X190160781Y-52356776D01*
X190158728Y-52360040D01*
X190111109Y-52455278D01*
X190104103Y-52473586D01*
X190103848Y-52477169D01*
X190102473Y-52480490D01*
X190100552Y-52499999D01*
X189195167Y-52499999D01*
X189206757Y-52494204D01*
X189215149Y-52488920D01*
X189217593Y-52487909D01*
X189220342Y-52485652D01*
X189223347Y-52483761D01*
X189225076Y-52481766D01*
X189232746Y-52475472D01*
X189280366Y-52427854D01*
X189286659Y-52420185D01*
X189288656Y-52418454D01*
X189290549Y-52415445D01*
X189292803Y-52412700D01*
X189293813Y-52410259D01*
X189299099Y-52401863D01*
X189346718Y-52306626D01*
X189353724Y-52288317D01*
X189353978Y-52284733D01*
X189355354Y-52281413D01*
X189357275Y-52261904D01*
X189357275Y-52071428D01*
X189355354Y-52051919D01*
X189353978Y-52048598D01*
X189353724Y-52045015D01*
X189346718Y-52026706D01*
X189299099Y-51931469D01*
X189288656Y-51914878D01*
X189259179Y-51889314D01*
X189222163Y-51876975D01*
X189183243Y-51879741D01*
X189148344Y-51897190D01*
X189122780Y-51926667D01*
X189110441Y-51963683D01*
X189113207Y-52002603D01*
X189120213Y-52020911D01*
X189157275Y-52095035D01*
X189157275Y-52238297D01*
X189127470Y-52297906D01*
X189102802Y-52322573D01*
X189043191Y-52352380D01*
X188804691Y-52352380D01*
X188745081Y-52322575D01*
X188720413Y-52297906D01*
X188690608Y-52238296D01*
X188690608Y-52095035D01*
X188727670Y-52020912D01*
X188734676Y-52002603D01*
X188737442Y-51963683D01*
X188725103Y-51926667D01*
X188699538Y-51897190D01*
X188664640Y-51879741D01*
X188625720Y-51876976D01*
X188588704Y-51889314D01*
X188559227Y-51914879D01*
X188548784Y-51931469D01*
X188501165Y-52026707D01*
X188494159Y-52045015D01*
X188493904Y-52048598D01*
X188492529Y-52051919D01*
X188490608Y-52071428D01*
X187905227Y-52071428D01*
X187905227Y-51623347D01*
X188016338Y-51623347D01*
X188016338Y-51662365D01*
X188031270Y-51698413D01*
X188058860Y-51726003D01*
X188094908Y-51740935D01*
X188133926Y-51740935D01*
X188169974Y-51726003D01*
X188185128Y-51713567D01*
X188225744Y-51672949D01*
X188355182Y-51586658D01*
X188438499Y-51544999D01*
X188568701Y-51501598D01*
X188790985Y-51457142D01*
X188961658Y-51457142D01*
X189183941Y-51501598D01*
X189314145Y-51544999D01*
X189397464Y-51586659D01*
X189526897Y-51672948D01*
X189567516Y-51713566D01*
X189582669Y-51726003D01*
X189618718Y-51740934D01*
X189657736Y-51740934D01*
X189693784Y-51726003D01*
X189721374Y-51698413D01*
X189736305Y-51662365D01*
X189736305Y-51623347D01*
X189721374Y-51587298D01*
X189708937Y-51572145D01*
X189684411Y-51547618D01*
X190100552Y-51547618D01*
X190100552Y-51738094D01*
X190102473Y-51757603D01*
X190103848Y-51760923D01*
X190104103Y-51764507D01*
X190111109Y-51782815D01*
X190158728Y-51878053D01*
X190164013Y-51886449D01*
X190165024Y-51888889D01*
X190167277Y-51891635D01*
X190169171Y-51894643D01*
X190171165Y-51896372D01*
X190177460Y-51904043D01*
X190225079Y-51951661D01*
X190232745Y-51957953D01*
X190234478Y-51959951D01*
X190237486Y-51961844D01*
X190240232Y-51964098D01*
X190242672Y-51965108D01*
X190251069Y-51970394D01*
X190346306Y-52018013D01*
X190364615Y-52025019D01*
X190368198Y-52025273D01*
X190371519Y-52026649D01*
X190391028Y-52028570D01*
X190676742Y-52028570D01*
X190696251Y-52026649D01*
X190699571Y-52025273D01*
X190703155Y-52025019D01*
X190721463Y-52018013D01*
X190816701Y-51970394D01*
X190825093Y-51965110D01*
X190827537Y-51964099D01*
X190830286Y-51961842D01*
X190833291Y-51959951D01*
X190835020Y-51957956D01*
X190842690Y-51951662D01*
X190890310Y-51904044D01*
X190896603Y-51896375D01*
X190898600Y-51894644D01*
X190900493Y-51891635D01*
X190902747Y-51888890D01*
X190903757Y-51886449D01*
X190909043Y-51878053D01*
X190956662Y-51782816D01*
X190963668Y-51764507D01*
X190963922Y-51760923D01*
X190965298Y-51757603D01*
X190967219Y-51738094D01*
X190967219Y-51547618D01*
X190965298Y-51528109D01*
X190963922Y-51524788D01*
X190963668Y-51521205D01*
X190956662Y-51502896D01*
X190909043Y-51407659D01*
X190898600Y-51391068D01*
X190869123Y-51365504D01*
X190832107Y-51353165D01*
X190793187Y-51355931D01*
X190758288Y-51373380D01*
X190732724Y-51402857D01*
X190720385Y-51439873D01*
X190723151Y-51478793D01*
X190730157Y-51497101D01*
X190767219Y-51571225D01*
X190767219Y-51714487D01*
X190737414Y-51774096D01*
X190712746Y-51798763D01*
X190653135Y-51828570D01*
X190414635Y-51828570D01*
X190355025Y-51798765D01*
X190330357Y-51774096D01*
X190300552Y-51714486D01*
X190300552Y-51571225D01*
X190337614Y-51497102D01*
X190344620Y-51478793D01*
X190347386Y-51439873D01*
X190335047Y-51402857D01*
X190309482Y-51373380D01*
X190274584Y-51355931D01*
X190235664Y-51353166D01*
X190198648Y-51365504D01*
X190169171Y-51391069D01*
X190158728Y-51407659D01*
X190111109Y-51502897D01*
X190104103Y-51521205D01*
X190103848Y-51524788D01*
X190102473Y-51528109D01*
X190100552Y-51547618D01*
X189684411Y-51547618D01*
X189661319Y-51524526D01*
X189661264Y-51524481D01*
X189661245Y-51524452D01*
X189653696Y-51518270D01*
X189646165Y-51512090D01*
X189646132Y-51512076D01*
X189646078Y-51512032D01*
X189503221Y-51416794D01*
X189497735Y-51413869D01*
X189492472Y-51410556D01*
X189397234Y-51362937D01*
X189390605Y-51360400D01*
X189384135Y-51357512D01*
X189241279Y-51309893D01*
X189235215Y-51308514D01*
X189229267Y-51306703D01*
X188991172Y-51259084D01*
X188991103Y-51259077D01*
X188991069Y-51259063D01*
X188981179Y-51258089D01*
X188971665Y-51257142D01*
X188971630Y-51257148D01*
X188971560Y-51257142D01*
X188781084Y-51257142D01*
X188781013Y-51257148D01*
X188780979Y-51257142D01*
X188771464Y-51258089D01*
X188761575Y-51259063D01*
X188761540Y-51259077D01*
X188761472Y-51259084D01*
X188523377Y-51306703D01*
X188517427Y-51308514D01*
X188511366Y-51309893D01*
X188368509Y-51357512D01*
X188362038Y-51360400D01*
X188355410Y-51362937D01*
X188260173Y-51410556D01*
X188254905Y-51413871D01*
X188249425Y-51416794D01*
X188106566Y-51512032D01*
X188106512Y-51512075D01*
X188106478Y-51512090D01*
X188098992Y-51518234D01*
X188091399Y-51524452D01*
X188091377Y-51524483D01*
X188091325Y-51524527D01*
X188043706Y-51572145D01*
X188031270Y-51587299D01*
X188016338Y-51623347D01*
X187905227Y-51623347D01*
X187905227Y-50738094D01*
X190100552Y-50738094D01*
X190100552Y-50928570D01*
X190102473Y-50948079D01*
X190103848Y-50951399D01*
X190104103Y-50954983D01*
X190111109Y-50973291D01*
X190158728Y-51068529D01*
X190160781Y-51071792D01*
X190161295Y-51073331D01*
X190162957Y-51075247D01*
X190169171Y-51085119D01*
X190178641Y-51093332D01*
X190186859Y-51102808D01*
X190196732Y-51109022D01*
X190198648Y-51110684D01*
X190200186Y-51111196D01*
X190203450Y-51113251D01*
X190298687Y-51160870D01*
X190316996Y-51167876D01*
X190320579Y-51168130D01*
X190323900Y-51169506D01*
X190343409Y-51171427D01*
X190533990Y-51171427D01*
X190724361Y-51171427D01*
X190743870Y-51169506D01*
X190747190Y-51168130D01*
X190750773Y-51167876D01*
X190769082Y-51160870D01*
X190864321Y-51113251D01*
X190867584Y-51111197D01*
X190869123Y-51110684D01*
X190871039Y-51109021D01*
X190880911Y-51102808D01*
X190889125Y-51093336D01*
X190898600Y-51085120D01*
X190904812Y-51075249D01*
X190906476Y-51073332D01*
X190906989Y-51071791D01*
X190909043Y-51068529D01*
X190956662Y-50973292D01*
X190963668Y-50954983D01*
X190963922Y-50951399D01*
X190965298Y-50948079D01*
X190967219Y-50928570D01*
X190967219Y-50738094D01*
X190965298Y-50718585D01*
X190963922Y-50715264D01*
X190963668Y-50711681D01*
X190956662Y-50693372D01*
X190909043Y-50598135D01*
X190898600Y-50581544D01*
X190869123Y-50555980D01*
X190832107Y-50543641D01*
X190793187Y-50546407D01*
X190758288Y-50563856D01*
X190732724Y-50593333D01*
X190720385Y-50630349D01*
X190723151Y-50669269D01*
X190730157Y-50687577D01*
X190767219Y-50761701D01*
X190767219Y-50904963D01*
X190745064Y-50949272D01*
X190700754Y-50971427D01*
X190615865Y-50971427D01*
X190536705Y-50575625D01*
X190530995Y-50556872D01*
X190525543Y-50548731D01*
X190521794Y-50539680D01*
X190514794Y-50532680D01*
X190509284Y-50524452D01*
X190501130Y-50519016D01*
X190494204Y-50512090D01*
X190485057Y-50508301D01*
X190476819Y-50502809D01*
X190467208Y-50500907D01*
X190458156Y-50497158D01*
X190438647Y-50495237D01*
X190343409Y-50495237D01*
X190323900Y-50497158D01*
X190320579Y-50498533D01*
X190316996Y-50498788D01*
X190298687Y-50505794D01*
X190203450Y-50553413D01*
X190200186Y-50555467D01*
X190198648Y-50555980D01*
X190196732Y-50557641D01*
X190186859Y-50563856D01*
X190178641Y-50573331D01*
X190169171Y-50581545D01*
X190162957Y-50591416D01*
X190161295Y-50593333D01*
X190160781Y-50594871D01*
X190158728Y-50598135D01*
X190111109Y-50693373D01*
X190104103Y-50711681D01*
X190103848Y-50715264D01*
X190102473Y-50718585D01*
X190100552Y-50738094D01*
X187905227Y-50738094D01*
X187905227Y-49718585D01*
X189769140Y-49718585D01*
X189769140Y-49757603D01*
X189784072Y-49793651D01*
X189811662Y-49821241D01*
X189847710Y-49836173D01*
X189867219Y-49838094D01*
X190100552Y-49838094D01*
X190100552Y-50023808D01*
X190102473Y-50043317D01*
X190103848Y-50046637D01*
X190104103Y-50050221D01*
X190111109Y-50068529D01*
X190158728Y-50163767D01*
X190164013Y-50172163D01*
X190165024Y-50174603D01*
X190167277Y-50177349D01*
X190169171Y-50180357D01*
X190171165Y-50182086D01*
X190177460Y-50189757D01*
X190225079Y-50237375D01*
X190232745Y-50243667D01*
X190234478Y-50245665D01*
X190237486Y-50247558D01*
X190240232Y-50249812D01*
X190242672Y-50250822D01*
X190251069Y-50256108D01*
X190346306Y-50303727D01*
X190364615Y-50310733D01*
X190368198Y-50310987D01*
X190371519Y-50312363D01*
X190391028Y-50314284D01*
X190676742Y-50314284D01*
X190696251Y-50312363D01*
X190699571Y-50310987D01*
X190703155Y-50310733D01*
X190721463Y-50303727D01*
X190816701Y-50256108D01*
X190825093Y-50250824D01*
X190827537Y-50249813D01*
X190830286Y-50247556D01*
X190833291Y-50245665D01*
X190835020Y-50243670D01*
X190842690Y-50237376D01*
X190890310Y-50189758D01*
X190896603Y-50182089D01*
X190898600Y-50180358D01*
X190900493Y-50177349D01*
X190902747Y-50174604D01*
X190903757Y-50172163D01*
X190909043Y-50163767D01*
X190956662Y-50068530D01*
X190963668Y-50050221D01*
X190963922Y-50046637D01*
X190965298Y-50043317D01*
X190967219Y-50023808D01*
X190967219Y-49833332D01*
X190965298Y-49813823D01*
X190963922Y-49810502D01*
X190963668Y-49806919D01*
X190956662Y-49788610D01*
X190954360Y-49784007D01*
X190965298Y-49757603D01*
X190965298Y-49718585D01*
X190950366Y-49682537D01*
X190922776Y-49654947D01*
X190886728Y-49640015D01*
X190867219Y-49638094D01*
X189867219Y-49638094D01*
X189847710Y-49640015D01*
X189811662Y-49654947D01*
X189784072Y-49682537D01*
X189769140Y-49718585D01*
X187905227Y-49718585D01*
X187905227Y-48813823D01*
X190102473Y-48813823D01*
X190102473Y-48852841D01*
X190117405Y-48888889D01*
X190144995Y-48916479D01*
X190181043Y-48931411D01*
X190200552Y-48933332D01*
X190730560Y-48933332D01*
X190737414Y-48940186D01*
X190767219Y-48999796D01*
X190767219Y-49095439D01*
X190745064Y-49139748D01*
X190700754Y-49161903D01*
X190200552Y-49161903D01*
X190181043Y-49163824D01*
X190144995Y-49178756D01*
X190117405Y-49206346D01*
X190102473Y-49242394D01*
X190102473Y-49281412D01*
X190117405Y-49317460D01*
X190144995Y-49345050D01*
X190181043Y-49359982D01*
X190200552Y-49361903D01*
X190724361Y-49361903D01*
X190743870Y-49359982D01*
X190747190Y-49358606D01*
X190750773Y-49358352D01*
X190769082Y-49351346D01*
X190864321Y-49303727D01*
X190867584Y-49301673D01*
X190869123Y-49301160D01*
X190871039Y-49299497D01*
X190880911Y-49293284D01*
X190889125Y-49283812D01*
X190898600Y-49275596D01*
X190904812Y-49265725D01*
X190906476Y-49263808D01*
X190906989Y-49262267D01*
X190909043Y-49259005D01*
X190956662Y-49163768D01*
X190963668Y-49145459D01*
X190963922Y-49141875D01*
X190965298Y-49138555D01*
X190967219Y-49119046D01*
X190967219Y-48976189D01*
X190965298Y-48956680D01*
X190963922Y-48953359D01*
X190963668Y-48949776D01*
X190956662Y-48931467D01*
X190940370Y-48898884D01*
X190950366Y-48888889D01*
X190965298Y-48852841D01*
X190965298Y-48813823D01*
X190950366Y-48777775D01*
X190922776Y-48750185D01*
X190886728Y-48735253D01*
X190867219Y-48733332D01*
X190200552Y-48733332D01*
X190181043Y-48735253D01*
X190144995Y-48750185D01*
X190117405Y-48777775D01*
X190102473Y-48813823D01*
X187905227Y-48813823D01*
X187905227Y-48337632D01*
X189769140Y-48337632D01*
X189769140Y-48376650D01*
X189784072Y-48412698D01*
X189811662Y-48440288D01*
X189847710Y-48455220D01*
X189867219Y-48457141D01*
X190867219Y-48457141D01*
X190886728Y-48455220D01*
X190922776Y-48440288D01*
X190950366Y-48412698D01*
X190965298Y-48376650D01*
X190965298Y-48337632D01*
X190950366Y-48301584D01*
X190922776Y-48273994D01*
X190886728Y-48259062D01*
X190867219Y-48257141D01*
X190659282Y-48257141D01*
X190927219Y-48056189D01*
X190941674Y-48042947D01*
X190961553Y-48009372D01*
X190967071Y-47970746D01*
X190957388Y-47932949D01*
X190933977Y-47901734D01*
X190900403Y-47881855D01*
X190861777Y-47876337D01*
X190823979Y-47886020D01*
X190807219Y-47896189D01*
X190495649Y-48129865D01*
X190271263Y-47905478D01*
X190256109Y-47893042D01*
X190220061Y-47878110D01*
X190181043Y-47878110D01*
X190144995Y-47893042D01*
X190117405Y-47920632D01*
X190102473Y-47956680D01*
X190102473Y-47995698D01*
X190117405Y-48031746D01*
X190129841Y-48046900D01*
X190340083Y-48257141D01*
X189867219Y-48257141D01*
X189847710Y-48259062D01*
X189811662Y-48273994D01*
X189784072Y-48301584D01*
X189769140Y-48337632D01*
X187905227Y-48337632D01*
X187905227Y-47261903D01*
X190100552Y-47261903D01*
X190100552Y-47452379D01*
X190102473Y-47471888D01*
X190103848Y-47475208D01*
X190104103Y-47478792D01*
X190111109Y-47497100D01*
X190158728Y-47592338D01*
X190160781Y-47595601D01*
X190161295Y-47597140D01*
X190162957Y-47599056D01*
X190169171Y-47608928D01*
X190178641Y-47617141D01*
X190186859Y-47626617D01*
X190196732Y-47632831D01*
X190198648Y-47634493D01*
X190200186Y-47635005D01*
X190203450Y-47637060D01*
X190298687Y-47684679D01*
X190316996Y-47691685D01*
X190320579Y-47691939D01*
X190323900Y-47693315D01*
X190343409Y-47695236D01*
X190533990Y-47695236D01*
X190724361Y-47695236D01*
X190743870Y-47693315D01*
X190747190Y-47691939D01*
X190750773Y-47691685D01*
X190769082Y-47684679D01*
X190864321Y-47637060D01*
X190867584Y-47635006D01*
X190869123Y-47634493D01*
X190871039Y-47632830D01*
X190880911Y-47626617D01*
X190889125Y-47617145D01*
X190898600Y-47608929D01*
X190904812Y-47599058D01*
X190906476Y-47597141D01*
X190906989Y-47595600D01*
X190909043Y-47592338D01*
X190956662Y-47497101D01*
X190963668Y-47478792D01*
X190963922Y-47475208D01*
X190965298Y-47471888D01*
X190967219Y-47452379D01*
X190967219Y-47261903D01*
X190965298Y-47242394D01*
X190963922Y-47239073D01*
X190963668Y-47235490D01*
X190956662Y-47217181D01*
X190909043Y-47121944D01*
X190898600Y-47105353D01*
X190869123Y-47079789D01*
X190832107Y-47067450D01*
X190793187Y-47070216D01*
X190758288Y-47087665D01*
X190732724Y-47117142D01*
X190720385Y-47154158D01*
X190723151Y-47193078D01*
X190730157Y-47211386D01*
X190767219Y-47285510D01*
X190767219Y-47428772D01*
X190745064Y-47473081D01*
X190700754Y-47495236D01*
X190615865Y-47495236D01*
X190536705Y-47099434D01*
X190530995Y-47080681D01*
X190525543Y-47072540D01*
X190521794Y-47063489D01*
X190514794Y-47056489D01*
X190509284Y-47048261D01*
X190501130Y-47042825D01*
X190494204Y-47035899D01*
X190485057Y-47032110D01*
X190476819Y-47026618D01*
X190467208Y-47024716D01*
X190458156Y-47020967D01*
X190438647Y-47019046D01*
X190343409Y-47019046D01*
X190323900Y-47020967D01*
X190320579Y-47022342D01*
X190316996Y-47022597D01*
X190298687Y-47029603D01*
X190203450Y-47077222D01*
X190200186Y-47079276D01*
X190198648Y-47079789D01*
X190196732Y-47081450D01*
X190186859Y-47087665D01*
X190178641Y-47097140D01*
X190169171Y-47105354D01*
X190162957Y-47115225D01*
X190161295Y-47117142D01*
X190160781Y-47118680D01*
X190158728Y-47121944D01*
X190111109Y-47217182D01*
X190104103Y-47235490D01*
X190103848Y-47239073D01*
X190102473Y-47242394D01*
X190100552Y-47261903D01*
X187905227Y-47261903D01*
X187905227Y-46907935D01*
X191409742Y-46907935D01*
X191409742Y-62092063D01*
G37*
D11*
X194285714Y-74969104D02*
X194761904Y-74969104D01*
X194190476Y-75254819D02*
X194523809Y-74254819D01*
X194523809Y-74254819D02*
X194857142Y-75254819D01*
X195619047Y-74254819D02*
X195428571Y-74254819D01*
X195428571Y-74254819D02*
X195333333Y-74302438D01*
X195333333Y-74302438D02*
X195285714Y-74350057D01*
X195285714Y-74350057D02*
X195190476Y-74492914D01*
X195190476Y-74492914D02*
X195142857Y-74683390D01*
X195142857Y-74683390D02*
X195142857Y-75064342D01*
X195142857Y-75064342D02*
X195190476Y-75159580D01*
X195190476Y-75159580D02*
X195238095Y-75207200D01*
X195238095Y-75207200D02*
X195333333Y-75254819D01*
X195333333Y-75254819D02*
X195523809Y-75254819D01*
X195523809Y-75254819D02*
X195619047Y-75207200D01*
X195619047Y-75207200D02*
X195666666Y-75159580D01*
X195666666Y-75159580D02*
X195714285Y-75064342D01*
X195714285Y-75064342D02*
X195714285Y-74826247D01*
X195714285Y-74826247D02*
X195666666Y-74731009D01*
X195666666Y-74731009D02*
X195619047Y-74683390D01*
X195619047Y-74683390D02*
X195523809Y-74635771D01*
X195523809Y-74635771D02*
X195333333Y-74635771D01*
X195333333Y-74635771D02*
X195238095Y-74683390D01*
X195238095Y-74683390D02*
X195190476Y-74731009D01*
X195190476Y-74731009D02*
X195142857Y-74826247D01*
X185960714Y-74969104D02*
X186436904Y-74969104D01*
X185865476Y-75254819D02*
X186198809Y-74254819D01*
X186198809Y-74254819D02*
X186532142Y-75254819D01*
X186770238Y-74254819D02*
X187436904Y-74254819D01*
X187436904Y-74254819D02*
X187008333Y-75254819D01*
X178060714Y-74969104D02*
X178536904Y-74969104D01*
X177965476Y-75254819D02*
X178298809Y-74254819D01*
X178298809Y-74254819D02*
X178632142Y-75254819D01*
X179108333Y-74683390D02*
X179013095Y-74635771D01*
X179013095Y-74635771D02*
X178965476Y-74588152D01*
X178965476Y-74588152D02*
X178917857Y-74492914D01*
X178917857Y-74492914D02*
X178917857Y-74445295D01*
X178917857Y-74445295D02*
X178965476Y-74350057D01*
X178965476Y-74350057D02*
X179013095Y-74302438D01*
X179013095Y-74302438D02*
X179108333Y-74254819D01*
X179108333Y-74254819D02*
X179298809Y-74254819D01*
X179298809Y-74254819D02*
X179394047Y-74302438D01*
X179394047Y-74302438D02*
X179441666Y-74350057D01*
X179441666Y-74350057D02*
X179489285Y-74445295D01*
X179489285Y-74445295D02*
X179489285Y-74492914D01*
X179489285Y-74492914D02*
X179441666Y-74588152D01*
X179441666Y-74588152D02*
X179394047Y-74635771D01*
X179394047Y-74635771D02*
X179298809Y-74683390D01*
X179298809Y-74683390D02*
X179108333Y-74683390D01*
X179108333Y-74683390D02*
X179013095Y-74731009D01*
X179013095Y-74731009D02*
X178965476Y-74778628D01*
X178965476Y-74778628D02*
X178917857Y-74873866D01*
X178917857Y-74873866D02*
X178917857Y-75064342D01*
X178917857Y-75064342D02*
X178965476Y-75159580D01*
X178965476Y-75159580D02*
X179013095Y-75207200D01*
X179013095Y-75207200D02*
X179108333Y-75254819D01*
X179108333Y-75254819D02*
X179298809Y-75254819D01*
X179298809Y-75254819D02*
X179394047Y-75207200D01*
X179394047Y-75207200D02*
X179441666Y-75159580D01*
X179441666Y-75159580D02*
X179489285Y-75064342D01*
X179489285Y-75064342D02*
X179489285Y-74873866D01*
X179489285Y-74873866D02*
X179441666Y-74778628D01*
X179441666Y-74778628D02*
X179394047Y-74731009D01*
X179394047Y-74731009D02*
X179298809Y-74683390D01*
X169925714Y-74969104D02*
X170401904Y-74969104D01*
X169830476Y-75254819D02*
X170163809Y-74254819D01*
X170163809Y-74254819D02*
X170497142Y-75254819D01*
X170878095Y-75254819D02*
X171068571Y-75254819D01*
X171068571Y-75254819D02*
X171163809Y-75207200D01*
X171163809Y-75207200D02*
X171211428Y-75159580D01*
X171211428Y-75159580D02*
X171306666Y-75016723D01*
X171306666Y-75016723D02*
X171354285Y-74826247D01*
X171354285Y-74826247D02*
X171354285Y-74445295D01*
X171354285Y-74445295D02*
X171306666Y-74350057D01*
X171306666Y-74350057D02*
X171259047Y-74302438D01*
X171259047Y-74302438D02*
X171163809Y-74254819D01*
X171163809Y-74254819D02*
X170973333Y-74254819D01*
X170973333Y-74254819D02*
X170878095Y-74302438D01*
X170878095Y-74302438D02*
X170830476Y-74350057D01*
X170830476Y-74350057D02*
X170782857Y-74445295D01*
X170782857Y-74445295D02*
X170782857Y-74683390D01*
X170782857Y-74683390D02*
X170830476Y-74778628D01*
X170830476Y-74778628D02*
X170878095Y-74826247D01*
X170878095Y-74826247D02*
X170973333Y-74873866D01*
X170973333Y-74873866D02*
X171163809Y-74873866D01*
X171163809Y-74873866D02*
X171259047Y-74826247D01*
X171259047Y-74826247D02*
X171306666Y-74778628D01*
X171306666Y-74778628D02*
X171354285Y-74683390D01*
X199210714Y-66694104D02*
X199686904Y-66694104D01*
X199115476Y-66979819D02*
X199448809Y-65979819D01*
X199448809Y-65979819D02*
X199782142Y-66979819D01*
X200305952Y-65979819D02*
X200401190Y-65979819D01*
X200401190Y-65979819D02*
X200496428Y-66027438D01*
X200496428Y-66027438D02*
X200544047Y-66075057D01*
X200544047Y-66075057D02*
X200591666Y-66170295D01*
X200591666Y-66170295D02*
X200639285Y-66360771D01*
X200639285Y-66360771D02*
X200639285Y-66598866D01*
X200639285Y-66598866D02*
X200591666Y-66789342D01*
X200591666Y-66789342D02*
X200544047Y-66884580D01*
X200544047Y-66884580D02*
X200496428Y-66932200D01*
X200496428Y-66932200D02*
X200401190Y-66979819D01*
X200401190Y-66979819D02*
X200305952Y-66979819D01*
X200305952Y-66979819D02*
X200210714Y-66932200D01*
X200210714Y-66932200D02*
X200163095Y-66884580D01*
X200163095Y-66884580D02*
X200115476Y-66789342D01*
X200115476Y-66789342D02*
X200067857Y-66598866D01*
X200067857Y-66598866D02*
X200067857Y-66360771D01*
X200067857Y-66360771D02*
X200115476Y-66170295D01*
X200115476Y-66170295D02*
X200163095Y-66075057D01*
X200163095Y-66075057D02*
X200210714Y-66027438D01*
X200210714Y-66027438D02*
X200305952Y-65979819D01*
X199210714Y-58694104D02*
X199686904Y-58694104D01*
X199115476Y-58979819D02*
X199448809Y-57979819D01*
X199448809Y-57979819D02*
X199782142Y-58979819D01*
X200639285Y-58979819D02*
X200067857Y-58979819D01*
X200353571Y-58979819D02*
X200353571Y-57979819D01*
X200353571Y-57979819D02*
X200258333Y-58122676D01*
X200258333Y-58122676D02*
X200163095Y-58217914D01*
X200163095Y-58217914D02*
X200067857Y-58265533D01*
X199210714Y-50759104D02*
X199686904Y-50759104D01*
X199115476Y-51044819D02*
X199448809Y-50044819D01*
X199448809Y-50044819D02*
X199782142Y-51044819D01*
X200067857Y-50140057D02*
X200115476Y-50092438D01*
X200115476Y-50092438D02*
X200210714Y-50044819D01*
X200210714Y-50044819D02*
X200448809Y-50044819D01*
X200448809Y-50044819D02*
X200544047Y-50092438D01*
X200544047Y-50092438D02*
X200591666Y-50140057D01*
X200591666Y-50140057D02*
X200639285Y-50235295D01*
X200639285Y-50235295D02*
X200639285Y-50330533D01*
X200639285Y-50330533D02*
X200591666Y-50473390D01*
X200591666Y-50473390D02*
X200020238Y-51044819D01*
X200020238Y-51044819D02*
X200639285Y-51044819D01*
X199235714Y-42862354D02*
X199711904Y-42862354D01*
X199140476Y-43148069D02*
X199473809Y-42148069D01*
X199473809Y-42148069D02*
X199807142Y-43148069D01*
X200045238Y-42148069D02*
X200664285Y-42148069D01*
X200664285Y-42148069D02*
X200330952Y-42529021D01*
X200330952Y-42529021D02*
X200473809Y-42529021D01*
X200473809Y-42529021D02*
X200569047Y-42576640D01*
X200569047Y-42576640D02*
X200616666Y-42624259D01*
X200616666Y-42624259D02*
X200664285Y-42719497D01*
X200664285Y-42719497D02*
X200664285Y-42957592D01*
X200664285Y-42957592D02*
X200616666Y-43052830D01*
X200616666Y-43052830D02*
X200569047Y-43100450D01*
X200569047Y-43100450D02*
X200473809Y-43148069D01*
X200473809Y-43148069D02*
X200188095Y-43148069D01*
X200188095Y-43148069D02*
X200092857Y-43100450D01*
X200092857Y-43100450D02*
X200045238Y-43052830D01*
X202744104Y-76024285D02*
X202744104Y-75548095D01*
X203029819Y-76119523D02*
X202029819Y-75786190D01*
X202029819Y-75786190D02*
X203029819Y-75452857D01*
X202029819Y-74929047D02*
X202029819Y-74833809D01*
X202029819Y-74833809D02*
X202077438Y-74738571D01*
X202077438Y-74738571D02*
X202125057Y-74690952D01*
X202125057Y-74690952D02*
X202220295Y-74643333D01*
X202220295Y-74643333D02*
X202410771Y-74595714D01*
X202410771Y-74595714D02*
X202648866Y-74595714D01*
X202648866Y-74595714D02*
X202839342Y-74643333D01*
X202839342Y-74643333D02*
X202934580Y-74690952D01*
X202934580Y-74690952D02*
X202982200Y-74738571D01*
X202982200Y-74738571D02*
X203029819Y-74833809D01*
X203029819Y-74833809D02*
X203029819Y-74929047D01*
X203029819Y-74929047D02*
X202982200Y-75024285D01*
X202982200Y-75024285D02*
X202934580Y-75071904D01*
X202934580Y-75071904D02*
X202839342Y-75119523D01*
X202839342Y-75119523D02*
X202648866Y-75167142D01*
X202648866Y-75167142D02*
X202410771Y-75167142D01*
X202410771Y-75167142D02*
X202220295Y-75119523D01*
X202220295Y-75119523D02*
X202125057Y-75071904D01*
X202125057Y-75071904D02*
X202077438Y-75024285D01*
X202077438Y-75024285D02*
X202029819Y-74929047D01*
X205619104Y-86024285D02*
X205619104Y-85548095D01*
X205904819Y-86119523D02*
X204904819Y-85786190D01*
X204904819Y-85786190D02*
X205904819Y-85452857D01*
X205904819Y-84595714D02*
X205904819Y-85167142D01*
X205904819Y-84881428D02*
X204904819Y-84881428D01*
X204904819Y-84881428D02*
X205047676Y-84976666D01*
X205047676Y-84976666D02*
X205142914Y-85071904D01*
X205142914Y-85071904D02*
X205190533Y-85167142D01*
X208494104Y-76024285D02*
X208494104Y-75548095D01*
X208779819Y-76119523D02*
X207779819Y-75786190D01*
X207779819Y-75786190D02*
X208779819Y-75452857D01*
X207875057Y-75167142D02*
X207827438Y-75119523D01*
X207827438Y-75119523D02*
X207779819Y-75024285D01*
X207779819Y-75024285D02*
X207779819Y-74786190D01*
X207779819Y-74786190D02*
X207827438Y-74690952D01*
X207827438Y-74690952D02*
X207875057Y-74643333D01*
X207875057Y-74643333D02*
X207970295Y-74595714D01*
X207970295Y-74595714D02*
X208065533Y-74595714D01*
X208065533Y-74595714D02*
X208208390Y-74643333D01*
X208208390Y-74643333D02*
X208779819Y-75214761D01*
X208779819Y-75214761D02*
X208779819Y-74595714D01*
X211319104Y-86024285D02*
X211319104Y-85548095D01*
X211604819Y-86119523D02*
X210604819Y-85786190D01*
X210604819Y-85786190D02*
X211604819Y-85452857D01*
X210604819Y-85214761D02*
X210604819Y-84595714D01*
X210604819Y-84595714D02*
X210985771Y-84929047D01*
X210985771Y-84929047D02*
X210985771Y-84786190D01*
X210985771Y-84786190D02*
X211033390Y-84690952D01*
X211033390Y-84690952D02*
X211081009Y-84643333D01*
X211081009Y-84643333D02*
X211176247Y-84595714D01*
X211176247Y-84595714D02*
X211414342Y-84595714D01*
X211414342Y-84595714D02*
X211509580Y-84643333D01*
X211509580Y-84643333D02*
X211557200Y-84690952D01*
X211557200Y-84690952D02*
X211604819Y-84786190D01*
X211604819Y-84786190D02*
X211604819Y-85071904D01*
X211604819Y-85071904D02*
X211557200Y-85167142D01*
X211557200Y-85167142D02*
X211509580Y-85214761D01*
X188738095Y-71434819D02*
X188738095Y-72244342D01*
X188738095Y-72244342D02*
X188785714Y-72339580D01*
X188785714Y-72339580D02*
X188833333Y-72387200D01*
X188833333Y-72387200D02*
X188928571Y-72434819D01*
X188928571Y-72434819D02*
X189119047Y-72434819D01*
X189119047Y-72434819D02*
X189214285Y-72387200D01*
X189214285Y-72387200D02*
X189261904Y-72339580D01*
X189261904Y-72339580D02*
X189309523Y-72244342D01*
X189309523Y-72244342D02*
X189309523Y-71434819D01*
X190309523Y-72434819D02*
X189738095Y-72434819D01*
X190023809Y-72434819D02*
X190023809Y-71434819D01*
X190023809Y-71434819D02*
X189928571Y-71577676D01*
X189928571Y-71577676D02*
X189833333Y-71672914D01*
X189833333Y-71672914D02*
X189738095Y-71720533D01*
X186880952Y-42183152D02*
X187261904Y-42183152D01*
X187023809Y-41849819D02*
X187023809Y-42706961D01*
X187023809Y-42706961D02*
X187071428Y-42802200D01*
X187071428Y-42802200D02*
X187166666Y-42849819D01*
X187166666Y-42849819D02*
X187261904Y-42849819D01*
X187738095Y-42849819D02*
X187642857Y-42802200D01*
X187642857Y-42802200D02*
X187595238Y-42754580D01*
X187595238Y-42754580D02*
X187547619Y-42659342D01*
X187547619Y-42659342D02*
X187547619Y-42373628D01*
X187547619Y-42373628D02*
X187595238Y-42278390D01*
X187595238Y-42278390D02*
X187642857Y-42230771D01*
X187642857Y-42230771D02*
X187738095Y-42183152D01*
X187738095Y-42183152D02*
X187880952Y-42183152D01*
X187880952Y-42183152D02*
X187976190Y-42230771D01*
X187976190Y-42230771D02*
X188023809Y-42278390D01*
X188023809Y-42278390D02*
X188071428Y-42373628D01*
X188071428Y-42373628D02*
X188071428Y-42659342D01*
X188071428Y-42659342D02*
X188023809Y-42754580D01*
X188023809Y-42754580D02*
X187976190Y-42802200D01*
X187976190Y-42802200D02*
X187880952Y-42849819D01*
X187880952Y-42849819D02*
X187738095Y-42849819D01*
X188500000Y-42183152D02*
X188500000Y-43183152D01*
X188500000Y-42230771D02*
X188595238Y-42183152D01*
X188595238Y-42183152D02*
X188785714Y-42183152D01*
X188785714Y-42183152D02*
X188880952Y-42230771D01*
X188880952Y-42230771D02*
X188928571Y-42278390D01*
X188928571Y-42278390D02*
X188976190Y-42373628D01*
X188976190Y-42373628D02*
X188976190Y-42659342D01*
X188976190Y-42659342D02*
X188928571Y-42754580D01*
X188928571Y-42754580D02*
X188880952Y-42802200D01*
X188880952Y-42802200D02*
X188785714Y-42849819D01*
X188785714Y-42849819D02*
X188595238Y-42849819D01*
X188595238Y-42849819D02*
X188500000Y-42802200D01*
X189357143Y-42802200D02*
X189452381Y-42849819D01*
X189452381Y-42849819D02*
X189642857Y-42849819D01*
X189642857Y-42849819D02*
X189738095Y-42802200D01*
X189738095Y-42802200D02*
X189785714Y-42706961D01*
X189785714Y-42706961D02*
X189785714Y-42659342D01*
X189785714Y-42659342D02*
X189738095Y-42564104D01*
X189738095Y-42564104D02*
X189642857Y-42516485D01*
X189642857Y-42516485D02*
X189500000Y-42516485D01*
X189500000Y-42516485D02*
X189404762Y-42468866D01*
X189404762Y-42468866D02*
X189357143Y-42373628D01*
X189357143Y-42373628D02*
X189357143Y-42326009D01*
X189357143Y-42326009D02*
X189404762Y-42230771D01*
X189404762Y-42230771D02*
X189500000Y-42183152D01*
X189500000Y-42183152D02*
X189642857Y-42183152D01*
X189642857Y-42183152D02*
X189738095Y-42230771D01*
X190214286Y-42849819D02*
X190214286Y-42183152D01*
X190214286Y-41849819D02*
X190166667Y-41897438D01*
X190166667Y-41897438D02*
X190214286Y-41945057D01*
X190214286Y-41945057D02*
X190261905Y-41897438D01*
X190261905Y-41897438D02*
X190214286Y-41849819D01*
X190214286Y-41849819D02*
X190214286Y-41945057D01*
X191119047Y-42849819D02*
X191119047Y-41849819D01*
X191119047Y-42802200D02*
X191023809Y-42849819D01*
X191023809Y-42849819D02*
X190833333Y-42849819D01*
X190833333Y-42849819D02*
X190738095Y-42802200D01*
X190738095Y-42802200D02*
X190690476Y-42754580D01*
X190690476Y-42754580D02*
X190642857Y-42659342D01*
X190642857Y-42659342D02*
X190642857Y-42373628D01*
X190642857Y-42373628D02*
X190690476Y-42278390D01*
X190690476Y-42278390D02*
X190738095Y-42230771D01*
X190738095Y-42230771D02*
X190833333Y-42183152D01*
X190833333Y-42183152D02*
X191023809Y-42183152D01*
X191023809Y-42183152D02*
X191119047Y-42230771D01*
X191976190Y-42802200D02*
X191880952Y-42849819D01*
X191880952Y-42849819D02*
X191690476Y-42849819D01*
X191690476Y-42849819D02*
X191595238Y-42802200D01*
X191595238Y-42802200D02*
X191547619Y-42706961D01*
X191547619Y-42706961D02*
X191547619Y-42326009D01*
X191547619Y-42326009D02*
X191595238Y-42230771D01*
X191595238Y-42230771D02*
X191690476Y-42183152D01*
X191690476Y-42183152D02*
X191880952Y-42183152D01*
X191880952Y-42183152D02*
X191976190Y-42230771D01*
X191976190Y-42230771D02*
X192023809Y-42326009D01*
X192023809Y-42326009D02*
X192023809Y-42421247D01*
X192023809Y-42421247D02*
X191547619Y-42516485D01*
X188238095Y-40449819D02*
X188238095Y-41259342D01*
X188238095Y-41259342D02*
X188285714Y-41354580D01*
X188285714Y-41354580D02*
X188333333Y-41402200D01*
X188333333Y-41402200D02*
X188428571Y-41449819D01*
X188428571Y-41449819D02*
X188619047Y-41449819D01*
X188619047Y-41449819D02*
X188714285Y-41402200D01*
X188714285Y-41402200D02*
X188761904Y-41354580D01*
X188761904Y-41354580D02*
X188809523Y-41259342D01*
X188809523Y-41259342D02*
X188809523Y-40449819D01*
X189238095Y-41402200D02*
X189380952Y-41449819D01*
X189380952Y-41449819D02*
X189619047Y-41449819D01*
X189619047Y-41449819D02*
X189714285Y-41402200D01*
X189714285Y-41402200D02*
X189761904Y-41354580D01*
X189761904Y-41354580D02*
X189809523Y-41259342D01*
X189809523Y-41259342D02*
X189809523Y-41164104D01*
X189809523Y-41164104D02*
X189761904Y-41068866D01*
X189761904Y-41068866D02*
X189714285Y-41021247D01*
X189714285Y-41021247D02*
X189619047Y-40973628D01*
X189619047Y-40973628D02*
X189428571Y-40926009D01*
X189428571Y-40926009D02*
X189333333Y-40878390D01*
X189333333Y-40878390D02*
X189285714Y-40830771D01*
X189285714Y-40830771D02*
X189238095Y-40735533D01*
X189238095Y-40735533D02*
X189238095Y-40640295D01*
X189238095Y-40640295D02*
X189285714Y-40545057D01*
X189285714Y-40545057D02*
X189333333Y-40497438D01*
X189333333Y-40497438D02*
X189428571Y-40449819D01*
X189428571Y-40449819D02*
X189666666Y-40449819D01*
X189666666Y-40449819D02*
X189809523Y-40497438D01*
X190571428Y-40926009D02*
X190714285Y-40973628D01*
X190714285Y-40973628D02*
X190761904Y-41021247D01*
X190761904Y-41021247D02*
X190809523Y-41116485D01*
X190809523Y-41116485D02*
X190809523Y-41259342D01*
X190809523Y-41259342D02*
X190761904Y-41354580D01*
X190761904Y-41354580D02*
X190714285Y-41402200D01*
X190714285Y-41402200D02*
X190619047Y-41449819D01*
X190619047Y-41449819D02*
X190238095Y-41449819D01*
X190238095Y-41449819D02*
X190238095Y-40449819D01*
X190238095Y-40449819D02*
X190571428Y-40449819D01*
X190571428Y-40449819D02*
X190666666Y-40497438D01*
X190666666Y-40497438D02*
X190714285Y-40545057D01*
X190714285Y-40545057D02*
X190761904Y-40640295D01*
X190761904Y-40640295D02*
X190761904Y-40735533D01*
X190761904Y-40735533D02*
X190714285Y-40830771D01*
X190714285Y-40830771D02*
X190666666Y-40878390D01*
X190666666Y-40878390D02*
X190571428Y-40926009D01*
X190571428Y-40926009D02*
X190238095Y-40926009D01*
X182165714Y-42479819D02*
X181594286Y-42479819D01*
X181880000Y-42479819D02*
X181880000Y-41479819D01*
X181880000Y-41479819D02*
X181784762Y-41622676D01*
X181784762Y-41622676D02*
X181689524Y-41717914D01*
X181689524Y-41717914D02*
X181594286Y-41765533D01*
X170694104Y-51709285D02*
X170694104Y-51233095D01*
X170979819Y-51804523D02*
X169979819Y-51471190D01*
X169979819Y-51471190D02*
X170979819Y-51137857D01*
X170408390Y-50661666D02*
X170360771Y-50756904D01*
X170360771Y-50756904D02*
X170313152Y-50804523D01*
X170313152Y-50804523D02*
X170217914Y-50852142D01*
X170217914Y-50852142D02*
X170170295Y-50852142D01*
X170170295Y-50852142D02*
X170075057Y-50804523D01*
X170075057Y-50804523D02*
X170027438Y-50756904D01*
X170027438Y-50756904D02*
X169979819Y-50661666D01*
X169979819Y-50661666D02*
X169979819Y-50471190D01*
X169979819Y-50471190D02*
X170027438Y-50375952D01*
X170027438Y-50375952D02*
X170075057Y-50328333D01*
X170075057Y-50328333D02*
X170170295Y-50280714D01*
X170170295Y-50280714D02*
X170217914Y-50280714D01*
X170217914Y-50280714D02*
X170313152Y-50328333D01*
X170313152Y-50328333D02*
X170360771Y-50375952D01*
X170360771Y-50375952D02*
X170408390Y-50471190D01*
X170408390Y-50471190D02*
X170408390Y-50661666D01*
X170408390Y-50661666D02*
X170456009Y-50756904D01*
X170456009Y-50756904D02*
X170503628Y-50804523D01*
X170503628Y-50804523D02*
X170598866Y-50852142D01*
X170598866Y-50852142D02*
X170789342Y-50852142D01*
X170789342Y-50852142D02*
X170884580Y-50804523D01*
X170884580Y-50804523D02*
X170932200Y-50756904D01*
X170932200Y-50756904D02*
X170979819Y-50661666D01*
X170979819Y-50661666D02*
X170979819Y-50471190D01*
X170979819Y-50471190D02*
X170932200Y-50375952D01*
X170932200Y-50375952D02*
X170884580Y-50328333D01*
X170884580Y-50328333D02*
X170789342Y-50280714D01*
X170789342Y-50280714D02*
X170598866Y-50280714D01*
X170598866Y-50280714D02*
X170503628Y-50328333D01*
X170503628Y-50328333D02*
X170456009Y-50375952D01*
X170456009Y-50375952D02*
X170408390Y-50471190D01*
X167769104Y-46584285D02*
X167769104Y-46108095D01*
X168054819Y-46679523D02*
X167054819Y-46346190D01*
X167054819Y-46346190D02*
X168054819Y-46012857D01*
X168054819Y-45631904D02*
X168054819Y-45441428D01*
X168054819Y-45441428D02*
X168007200Y-45346190D01*
X168007200Y-45346190D02*
X167959580Y-45298571D01*
X167959580Y-45298571D02*
X167816723Y-45203333D01*
X167816723Y-45203333D02*
X167626247Y-45155714D01*
X167626247Y-45155714D02*
X167245295Y-45155714D01*
X167245295Y-45155714D02*
X167150057Y-45203333D01*
X167150057Y-45203333D02*
X167102438Y-45250952D01*
X167102438Y-45250952D02*
X167054819Y-45346190D01*
X167054819Y-45346190D02*
X167054819Y-45536666D01*
X167054819Y-45536666D02*
X167102438Y-45631904D01*
X167102438Y-45631904D02*
X167150057Y-45679523D01*
X167150057Y-45679523D02*
X167245295Y-45727142D01*
X167245295Y-45727142D02*
X167483390Y-45727142D01*
X167483390Y-45727142D02*
X167578628Y-45679523D01*
X167578628Y-45679523D02*
X167626247Y-45631904D01*
X167626247Y-45631904D02*
X167673866Y-45536666D01*
X167673866Y-45536666D02*
X167673866Y-45346190D01*
X167673866Y-45346190D02*
X167626247Y-45250952D01*
X167626247Y-45250952D02*
X167578628Y-45203333D01*
X167578628Y-45203333D02*
X167483390Y-45155714D01*
X176469104Y-51624285D02*
X176469104Y-51148095D01*
X176754819Y-51719523D02*
X175754819Y-51386190D01*
X175754819Y-51386190D02*
X176754819Y-51052857D01*
X175754819Y-50290952D02*
X175754819Y-50481428D01*
X175754819Y-50481428D02*
X175802438Y-50576666D01*
X175802438Y-50576666D02*
X175850057Y-50624285D01*
X175850057Y-50624285D02*
X175992914Y-50719523D01*
X175992914Y-50719523D02*
X176183390Y-50767142D01*
X176183390Y-50767142D02*
X176564342Y-50767142D01*
X176564342Y-50767142D02*
X176659580Y-50719523D01*
X176659580Y-50719523D02*
X176707200Y-50671904D01*
X176707200Y-50671904D02*
X176754819Y-50576666D01*
X176754819Y-50576666D02*
X176754819Y-50386190D01*
X176754819Y-50386190D02*
X176707200Y-50290952D01*
X176707200Y-50290952D02*
X176659580Y-50243333D01*
X176659580Y-50243333D02*
X176564342Y-50195714D01*
X176564342Y-50195714D02*
X176326247Y-50195714D01*
X176326247Y-50195714D02*
X176231009Y-50243333D01*
X176231009Y-50243333D02*
X176183390Y-50290952D01*
X176183390Y-50290952D02*
X176135771Y-50386190D01*
X176135771Y-50386190D02*
X176135771Y-50576666D01*
X176135771Y-50576666D02*
X176183390Y-50671904D01*
X176183390Y-50671904D02*
X176231009Y-50719523D01*
X176231009Y-50719523D02*
X176326247Y-50767142D01*
X173569104Y-46534285D02*
X173569104Y-46058095D01*
X173854819Y-46629523D02*
X172854819Y-46296190D01*
X172854819Y-46296190D02*
X173854819Y-45962857D01*
X172854819Y-45724761D02*
X172854819Y-45058095D01*
X172854819Y-45058095D02*
X173854819Y-45486666D01*
D12*
X190580000Y-78590000D02*
X190580000Y-81350000D01*
X190580000Y-81350000D02*
X195880000Y-81350000D01*
X191530000Y-78277358D02*
X191530000Y-78590000D01*
X191530000Y-87350000D02*
X191530000Y-81350000D01*
X192390000Y-78277358D02*
X192390000Y-78590000D01*
X192390000Y-81350000D02*
X192390000Y-87350000D01*
X192390000Y-87350000D02*
X191530000Y-87350000D01*
X193230000Y-78590000D02*
X193230000Y-81350000D01*
X194070000Y-78360000D02*
X194070000Y-78590000D01*
X194500000Y-75930000D02*
X195770000Y-75930000D01*
X194930000Y-78360000D02*
X194930000Y-78590000D01*
X195770000Y-75930000D02*
X195770000Y-77200000D01*
X195880000Y-78590000D02*
X190580000Y-78590000D01*
X195880000Y-81350000D02*
X195880000Y-78590000D01*
X194930000Y-81350000D02*
X194070000Y-81350000D01*
X194070000Y-87350000D01*
X194930000Y-87350000D01*
X194930000Y-81350000D01*
G36*
X194930000Y-81350000D02*
G01*
X194070000Y-81350000D01*
X194070000Y-87350000D01*
X194930000Y-87350000D01*
X194930000Y-81350000D01*
G37*
X182355000Y-78590000D02*
X182355000Y-81350000D01*
X182355000Y-81350000D02*
X187655000Y-81350000D01*
X183305000Y-78277358D02*
X183305000Y-78590000D01*
X183305000Y-87350000D02*
X183305000Y-81350000D01*
X184165000Y-78277358D02*
X184165000Y-78590000D01*
X184165000Y-81350000D02*
X184165000Y-87350000D01*
X184165000Y-87350000D02*
X183305000Y-87350000D01*
X185005000Y-78590000D02*
X185005000Y-81350000D01*
X185845000Y-78360000D02*
X185845000Y-78590000D01*
X186275000Y-75930000D02*
X187545000Y-75930000D01*
X186705000Y-78360000D02*
X186705000Y-78590000D01*
X187545000Y-75930000D02*
X187545000Y-77200000D01*
X187655000Y-78590000D02*
X182355000Y-78590000D01*
X187655000Y-81350000D02*
X187655000Y-78590000D01*
X186705000Y-81350000D02*
X185845000Y-81350000D01*
X185845000Y-87350000D01*
X186705000Y-87350000D01*
X186705000Y-81350000D01*
G36*
X186705000Y-81350000D02*
G01*
X185845000Y-81350000D01*
X185845000Y-87350000D01*
X186705000Y-87350000D01*
X186705000Y-81350000D01*
G37*
X174355000Y-78590000D02*
X174355000Y-81350000D01*
X174355000Y-81350000D02*
X179655000Y-81350000D01*
X175305000Y-78277358D02*
X175305000Y-78590000D01*
X175305000Y-87350000D02*
X175305000Y-81350000D01*
X176165000Y-78277358D02*
X176165000Y-78590000D01*
X176165000Y-81350000D02*
X176165000Y-87350000D01*
X176165000Y-87350000D02*
X175305000Y-87350000D01*
X177005000Y-78590000D02*
X177005000Y-81350000D01*
X177845000Y-78360000D02*
X177845000Y-78590000D01*
X178275000Y-75930000D02*
X179545000Y-75930000D01*
X178705000Y-78360000D02*
X178705000Y-78590000D01*
X179545000Y-75930000D02*
X179545000Y-77200000D01*
X179655000Y-78590000D02*
X174355000Y-78590000D01*
X179655000Y-81350000D02*
X179655000Y-78590000D01*
X178705000Y-81350000D02*
X177845000Y-81350000D01*
X177845000Y-87350000D01*
X178705000Y-87350000D01*
X178705000Y-81350000D01*
G36*
X178705000Y-81350000D02*
G01*
X177845000Y-81350000D01*
X177845000Y-87350000D01*
X178705000Y-87350000D01*
X178705000Y-81350000D01*
G37*
X166220000Y-78590000D02*
X166220000Y-81350000D01*
X166220000Y-81350000D02*
X171520000Y-81350000D01*
X167170000Y-78277358D02*
X167170000Y-78590000D01*
X167170000Y-87350000D02*
X167170000Y-81350000D01*
X168030000Y-78277358D02*
X168030000Y-78590000D01*
X168030000Y-81350000D02*
X168030000Y-87350000D01*
X168030000Y-87350000D02*
X167170000Y-87350000D01*
X168870000Y-78590000D02*
X168870000Y-81350000D01*
X169710000Y-78360000D02*
X169710000Y-78590000D01*
X170140000Y-75930000D02*
X171410000Y-75930000D01*
X170570000Y-78360000D02*
X170570000Y-78590000D01*
X171410000Y-75930000D02*
X171410000Y-77200000D01*
X171520000Y-78590000D02*
X166220000Y-78590000D01*
X171520000Y-81350000D02*
X171520000Y-78590000D01*
X170570000Y-81350000D02*
X169710000Y-81350000D01*
X169710000Y-87350000D01*
X170570000Y-87350000D01*
X170570000Y-81350000D01*
G36*
X170570000Y-81350000D02*
G01*
X169710000Y-81350000D01*
X169710000Y-87350000D01*
X170570000Y-87350000D01*
X170570000Y-81350000D01*
G37*
X201355000Y-65955000D02*
X202625000Y-65955000D01*
X201355000Y-67225000D02*
X201355000Y-65955000D01*
X203702358Y-69335000D02*
X204015000Y-69335000D01*
X203702358Y-70195000D02*
X204015000Y-70195000D01*
X203785000Y-66795000D02*
X204015000Y-66795000D01*
X203785000Y-67655000D02*
X204015000Y-67655000D01*
X204015000Y-65845000D02*
X204015000Y-71145000D01*
X204015000Y-68495000D02*
X206775000Y-68495000D01*
X204015000Y-71145000D02*
X206775000Y-71145000D01*
X206775000Y-65845000D02*
X204015000Y-65845000D01*
X206775000Y-69335000D02*
X212775000Y-69335000D01*
X206775000Y-71145000D02*
X206775000Y-65845000D01*
X212775000Y-69335000D02*
X212775000Y-70195000D01*
X212775000Y-70195000D02*
X206775000Y-70195000D01*
X206775000Y-66795000D02*
X212775000Y-66795000D01*
X212775000Y-67655000D01*
X206775000Y-67655000D01*
X206775000Y-66795000D01*
G36*
X206775000Y-66795000D02*
G01*
X212775000Y-66795000D01*
X212775000Y-67655000D01*
X206775000Y-67655000D01*
X206775000Y-66795000D01*
G37*
X201355000Y-57955000D02*
X202625000Y-57955000D01*
X201355000Y-59225000D02*
X201355000Y-57955000D01*
X203702358Y-61335000D02*
X204015000Y-61335000D01*
X203702358Y-62195000D02*
X204015000Y-62195000D01*
X203785000Y-58795000D02*
X204015000Y-58795000D01*
X203785000Y-59655000D02*
X204015000Y-59655000D01*
X204015000Y-57845000D02*
X204015000Y-63145000D01*
X204015000Y-60495000D02*
X206775000Y-60495000D01*
X204015000Y-63145000D02*
X206775000Y-63145000D01*
X206775000Y-57845000D02*
X204015000Y-57845000D01*
X206775000Y-61335000D02*
X212775000Y-61335000D01*
X206775000Y-63145000D02*
X206775000Y-57845000D01*
X212775000Y-61335000D02*
X212775000Y-62195000D01*
X212775000Y-62195000D02*
X206775000Y-62195000D01*
X206775000Y-58795000D02*
X212775000Y-58795000D01*
X212775000Y-59655000D01*
X206775000Y-59655000D01*
X206775000Y-58795000D01*
G36*
X206775000Y-58795000D02*
G01*
X212775000Y-58795000D01*
X212775000Y-59655000D01*
X206775000Y-59655000D01*
X206775000Y-58795000D01*
G37*
X201355000Y-49955000D02*
X202625000Y-49955000D01*
X201355000Y-51225000D02*
X201355000Y-49955000D01*
X203702358Y-53335000D02*
X204015000Y-53335000D01*
X203702358Y-54195000D02*
X204015000Y-54195000D01*
X203785000Y-50795000D02*
X204015000Y-50795000D01*
X203785000Y-51655000D02*
X204015000Y-51655000D01*
X204015000Y-49845000D02*
X204015000Y-55145000D01*
X204015000Y-52495000D02*
X206775000Y-52495000D01*
X204015000Y-55145000D02*
X206775000Y-55145000D01*
X206775000Y-49845000D02*
X204015000Y-49845000D01*
X206775000Y-53335000D02*
X212775000Y-53335000D01*
X206775000Y-55145000D02*
X206775000Y-49845000D01*
X212775000Y-53335000D02*
X212775000Y-54195000D01*
X212775000Y-54195000D02*
X206775000Y-54195000D01*
X206775000Y-50795000D02*
X212775000Y-50795000D01*
X212775000Y-51655000D01*
X206775000Y-51655000D01*
X206775000Y-50795000D01*
G36*
X206775000Y-50795000D02*
G01*
X212775000Y-50795000D01*
X212775000Y-51655000D01*
X206775000Y-51655000D01*
X206775000Y-50795000D01*
G37*
X201380000Y-42123250D02*
X202650000Y-42123250D01*
X201380000Y-43393250D02*
X201380000Y-42123250D01*
X203727358Y-45503250D02*
X204040000Y-45503250D01*
X203727358Y-46363250D02*
X204040000Y-46363250D01*
X203810000Y-42963250D02*
X204040000Y-42963250D01*
X203810000Y-43823250D02*
X204040000Y-43823250D01*
X204040000Y-42013250D02*
X204040000Y-47313250D01*
X204040000Y-44663250D02*
X206800000Y-44663250D01*
X204040000Y-47313250D02*
X206800000Y-47313250D01*
X206800000Y-42013250D02*
X204040000Y-42013250D01*
X206800000Y-45503250D02*
X212800000Y-45503250D01*
X206800000Y-47313250D02*
X206800000Y-42013250D01*
X212800000Y-45503250D02*
X212800000Y-46363250D01*
X212800000Y-46363250D02*
X206800000Y-46363250D01*
X206800000Y-42963250D02*
X212800000Y-42963250D01*
X212800000Y-43823250D01*
X206800000Y-43823250D01*
X206800000Y-42963250D01*
G36*
X206800000Y-42963250D02*
G01*
X212800000Y-42963250D01*
X212800000Y-43823250D01*
X206800000Y-43823250D01*
X206800000Y-42963250D01*
G37*
X203495000Y-83920000D02*
X203495000Y-80080000D01*
X203495000Y-80080000D02*
X201655000Y-80080000D01*
X202575000Y-84870000D02*
X202575000Y-83920000D01*
X202575000Y-79130000D02*
X202575000Y-80080000D01*
X201655000Y-83920000D02*
X203495000Y-83920000D01*
X201655000Y-80080000D02*
X201655000Y-83920000D01*
X206370000Y-80420000D02*
X206370000Y-76580000D01*
X206370000Y-76580000D02*
X204530000Y-76580000D01*
X205450000Y-81370000D02*
X205450000Y-80420000D01*
X205450000Y-75630000D02*
X205450000Y-76580000D01*
X204530000Y-80420000D02*
X206370000Y-80420000D01*
X204530000Y-76580000D02*
X204530000Y-80420000D01*
X209245000Y-83920000D02*
X209245000Y-80080000D01*
X209245000Y-80080000D02*
X207405000Y-80080000D01*
X208325000Y-84870000D02*
X208325000Y-83920000D01*
X208325000Y-79130000D02*
X208325000Y-80080000D01*
X207405000Y-83920000D02*
X209245000Y-83920000D01*
X207405000Y-80080000D02*
X207405000Y-83920000D01*
X212070000Y-80420000D02*
X212070000Y-76580000D01*
X212070000Y-76580000D02*
X210230000Y-76580000D01*
X211150000Y-81370000D02*
X211150000Y-80420000D01*
X211150000Y-75630000D02*
X211150000Y-76580000D01*
X210230000Y-80420000D02*
X212070000Y-80420000D01*
X210230000Y-76580000D02*
X210230000Y-80420000D01*
D11*
X185950000Y-43580000D02*
X185950000Y-40000000D01*
X193050000Y-43580000D02*
X185950000Y-43580000D01*
X193050000Y-43580000D02*
X193050000Y-40000000D01*
X180610000Y-40000000D02*
X198390000Y-40000000D01*
X198390000Y-73020000D01*
X180610000Y-73020000D01*
X180610000Y-40000000D01*
D12*
X169605000Y-55765000D02*
X169605000Y-59605000D01*
X169605000Y-59605000D02*
X171445000Y-59605000D01*
X170525000Y-54815000D02*
X170525000Y-55765000D01*
X170525000Y-60555000D02*
X170525000Y-59605000D01*
X171445000Y-55765000D02*
X169605000Y-55765000D01*
X171445000Y-59605000D02*
X171445000Y-55765000D01*
X166680000Y-50640000D02*
X166680000Y-54480000D01*
X166680000Y-54480000D02*
X168520000Y-54480000D01*
X167600000Y-49690000D02*
X167600000Y-50640000D01*
X167600000Y-55430000D02*
X167600000Y-54480000D01*
X168520000Y-50640000D02*
X166680000Y-50640000D01*
X168520000Y-54480000D02*
X168520000Y-50640000D01*
X175380000Y-55800000D02*
X175380000Y-59640000D01*
X175380000Y-59640000D02*
X177220000Y-59640000D01*
X176300000Y-54850000D02*
X176300000Y-55800000D01*
X176300000Y-60590000D02*
X176300000Y-59640000D01*
X177220000Y-55800000D02*
X175380000Y-55800000D01*
X177220000Y-59640000D02*
X177220000Y-55800000D01*
X172480000Y-50590000D02*
X172480000Y-54430000D01*
X172480000Y-54430000D02*
X174320000Y-54430000D01*
X173400000Y-49640000D02*
X173400000Y-50590000D01*
X173400000Y-55380000D02*
X173400000Y-54430000D01*
X174320000Y-50590000D02*
X172480000Y-50590000D01*
X174320000Y-54430000D02*
X174320000Y-50590000D01*
%LPC*%
D13*
X194500000Y-77200000D03*
D14*
X191960000Y-77200000D03*
D13*
X186275000Y-77200000D03*
D14*
X183735000Y-77200000D03*
D13*
X178275000Y-77200000D03*
D14*
X175735000Y-77200000D03*
D13*
X170140000Y-77200000D03*
D14*
X167600000Y-77200000D03*
D13*
X202625000Y-67225000D03*
D14*
X202625000Y-69765000D03*
D13*
X202625000Y-59225000D03*
D14*
X202625000Y-61765000D03*
D13*
X202625000Y-51225000D03*
D14*
X202625000Y-53765000D03*
D13*
X202650000Y-43393250D03*
D14*
X202650000Y-45933250D03*
D15*
X202575000Y-78190000D03*
X202575000Y-85810000D03*
X205450000Y-74690000D03*
X205450000Y-82310000D03*
X208325000Y-78190000D03*
X208325000Y-85810000D03*
X211150000Y-74690000D03*
X211150000Y-82310000D03*
X170525000Y-61495000D03*
X170525000Y-53875000D03*
X167600000Y-56370000D03*
X167600000Y-48750000D03*
X176300000Y-53910000D03*
X176300000Y-61530000D03*
X173400000Y-56320000D03*
X173400000Y-48700000D03*
%LPD*%
M02*
