G04 #@! TF.GenerationSoftware,KiCad,Pcbnew,9.0.2*
G04 #@! TF.CreationDate,2026-08-11T20:35:35+03:00*
G04 #@! TF.ProjectId,fixed_new_new_2026_copyright,66697865-645f-46e6-9577-5f6e65775f32,rev?*
G04 #@! TF.SameCoordinates,Original*
G04 #@! TF.FileFunction,Copper,L2,Bot*
G04 #@! TF.FilePolarity,Positive*
%FSLAX46Y46*%
G04 Gerber Fmt 4.6, Leading zero omitted, Abs format (unit mm)*
G04 Created by KiCad (PCBNEW 9.0.2) date 2026-08-11 20:35:35*
%MOMM*%
%LPD*%
G01*
G04 APERTURE LIST*
G04 Aperture macros list*
%AMRoundRect*
0 Rectangle with rounded corners*
0 $1 Rounding radius*
0 $2 $3 $4 $5 $6 $7 $8 $9 X,Y pos of 4 corners*
0 Add a 4 corners polygon primitive as box body*
4,1,4,$2,$3,$4,$5,$6,$7,$8,$9,$2,$3,0*
0 Add four circle primitives for the rounded corners*
1,1,$1+$1,$2,$3*
1,1,$1+$1,$4,$5*
1,1,$1+$1,$6,$7*
1,1,$1+$1,$8,$9*
0 Add four rect primitives between the rounded corners*
20,1,$1+$1,$2,$3,$4,$5,0*
20,1,$1+$1,$4,$5,$6,$7,0*
20,1,$1+$1,$6,$7,$8,$9,0*
20,1,$1+$1,$8,$9,$2,$3,0*%
G04 Aperture macros list end*
G04 #@! TA.AperFunction,ComponentPad*
%ADD10R,1.700000X1.700000*%
G04 #@! TD*
G04 #@! TA.AperFunction,ComponentPad*
%ADD11C,1.700000*%
G04 #@! TD*
G04 #@! TA.AperFunction,ComponentPad*
%ADD12C,1.600000*%
G04 #@! TD*
G04 #@! TA.AperFunction,ComponentPad*
%ADD13C,1.800000*%
G04 #@! TD*
G04 #@! TA.AperFunction,ComponentPad*
%ADD14RoundRect,0.450000X-0.450000X-0.450000X0.450000X-0.450000X0.450000X0.450000X-0.450000X0.450000X0*%
G04 #@! TD*
G04 #@! TA.AperFunction,Conductor*
%ADD15C,0.600000*%
G04 #@! TD*
G04 APERTURE END LIST*
D10*
X194500000Y-77200000D03*
D11*
X191960000Y-77200000D03*
D10*
X186275000Y-77200000D03*
D11*
X183735000Y-77200000D03*
D10*
X178275000Y-77200000D03*
D11*
X175735000Y-77200000D03*
D10*
X170140000Y-77200000D03*
D11*
X167600000Y-77200000D03*
D10*
X202625000Y-67225000D03*
D11*
X202625000Y-69765000D03*
D10*
X202625000Y-59225000D03*
D11*
X202625000Y-61765000D03*
D10*
X202625000Y-51225000D03*
D11*
X202625000Y-53765000D03*
D10*
X202650000Y-43393250D03*
D11*
X202650000Y-45933250D03*
D12*
X202575000Y-78190000D03*
X202575000Y-85810000D03*
X205450000Y-74690000D03*
X205450000Y-82310000D03*
X208325000Y-78190000D03*
X208325000Y-85810000D03*
X211150000Y-74690000D03*
X211150000Y-82310000D03*
D13*
X181880000Y-43810000D03*
X181880000Y-46350000D03*
D14*
X181880000Y-48890000D03*
X181880000Y-51430000D03*
D13*
X181880000Y-53970000D03*
X181880000Y-56510000D03*
X181880000Y-59050000D03*
X181880000Y-61590000D03*
X181880000Y-64130000D03*
X181880000Y-66670000D03*
X181880000Y-69210000D03*
X181880000Y-71750000D03*
X197120000Y-43810000D03*
D14*
X197120000Y-46350000D03*
D13*
X197120000Y-48890000D03*
X197120000Y-51430000D03*
X197120000Y-53970000D03*
X197120000Y-56510000D03*
X197120000Y-59050000D03*
X197120000Y-61590000D03*
X197120000Y-64130000D03*
X197120000Y-66670000D03*
X197120000Y-69210000D03*
X197120000Y-71750000D03*
D12*
X170525000Y-61495000D03*
X170525000Y-53875000D03*
X167600000Y-56370000D03*
X167600000Y-48750000D03*
X176300000Y-53910000D03*
X176300000Y-61530000D03*
X173400000Y-56320000D03*
X173400000Y-48700000D03*
D15*
X202625000Y-78140000D02*
X202575000Y-78190000D01*
X202575000Y-78190000D02*
X202575000Y-78690000D01*
X173350000Y-56600000D02*
X173400000Y-56550000D01*
X197120000Y-69170000D02*
X197120000Y-69210000D01*
G04 #@! TA.AperFunction,Conductor*
G36*
X212505395Y-40050972D02*
G01*
X212654069Y-40063979D01*
X212675354Y-40067732D01*
X212723198Y-40080551D01*
X212814274Y-40104955D01*
X212834575Y-40112344D01*
X212964920Y-40173125D01*
X212983635Y-40183930D01*
X213084200Y-40254347D01*
X213101440Y-40266418D01*
X213117998Y-40280312D01*
X213219687Y-40382001D01*
X213233581Y-40398559D01*
X213316068Y-40516363D01*
X213326875Y-40535081D01*
X213387652Y-40665417D01*
X213395045Y-40685729D01*
X213432267Y-40824645D01*
X213436020Y-40845930D01*
X213449028Y-40994603D01*
X213449500Y-41005411D01*
X213449500Y-86994588D01*
X213449028Y-87005395D01*
X213449028Y-87005396D01*
X213436020Y-87154069D01*
X213432267Y-87175354D01*
X213395045Y-87314270D01*
X213387652Y-87334582D01*
X213326875Y-87464918D01*
X213316068Y-87483636D01*
X213233581Y-87601440D01*
X213219687Y-87617998D01*
X213117998Y-87719687D01*
X213101440Y-87733581D01*
X212983636Y-87816068D01*
X212964918Y-87826875D01*
X212834582Y-87887652D01*
X212814270Y-87895045D01*
X212675354Y-87932267D01*
X212654069Y-87936020D01*
X212520921Y-87947669D01*
X212505394Y-87949028D01*
X212494588Y-87949500D01*
X166505412Y-87949500D01*
X166494605Y-87949028D01*
X166477265Y-87947511D01*
X166345930Y-87936020D01*
X166324645Y-87932267D01*
X166185729Y-87895045D01*
X166165417Y-87887652D01*
X166035081Y-87826875D01*
X166016363Y-87816068D01*
X165898559Y-87733581D01*
X165882001Y-87719687D01*
X165780312Y-87617998D01*
X165766418Y-87601440D01*
X165683931Y-87483636D01*
X165673124Y-87464918D01*
X165664142Y-87445656D01*
X165612344Y-87334575D01*
X165604954Y-87314270D01*
X165567732Y-87175354D01*
X165563979Y-87154068D01*
X165550972Y-87005395D01*
X165550500Y-86994588D01*
X165550500Y-85707682D01*
X201275000Y-85707682D01*
X201275000Y-85912317D01*
X201307009Y-86114417D01*
X201370244Y-86309031D01*
X201463141Y-86491350D01*
X201463147Y-86491359D01*
X201495523Y-86535921D01*
X201495524Y-86535922D01*
X202051212Y-85980233D01*
X202062482Y-86022292D01*
X202134890Y-86147708D01*
X202237292Y-86250110D01*
X202362708Y-86322518D01*
X202404765Y-86333787D01*
X201849076Y-86889474D01*
X201893650Y-86921859D01*
X202075968Y-87014755D01*
X202270582Y-87077990D01*
X202472683Y-87110000D01*
X202677317Y-87110000D01*
X202879417Y-87077990D01*
X203074031Y-87014755D01*
X203256349Y-86921859D01*
X203300921Y-86889474D01*
X202745234Y-86333787D01*
X202787292Y-86322518D01*
X202912708Y-86250110D01*
X203015110Y-86147708D01*
X203087518Y-86022292D01*
X203098787Y-85980234D01*
X203654474Y-86535921D01*
X203686859Y-86491349D01*
X203779755Y-86309031D01*
X203842990Y-86114417D01*
X203875000Y-85912317D01*
X203875000Y-85707682D01*
X207025000Y-85707682D01*
X207025000Y-85912317D01*
X207057009Y-86114417D01*
X207120244Y-86309031D01*
X207213141Y-86491350D01*
X207213147Y-86491359D01*
X207245523Y-86535921D01*
X207245524Y-86535922D01*
X207801212Y-85980233D01*
X207812482Y-86022292D01*
X207884890Y-86147708D01*
X207987292Y-86250110D01*
X208112708Y-86322518D01*
X208154765Y-86333787D01*
X207599076Y-86889474D01*
X207643650Y-86921859D01*
X207825968Y-87014755D01*
X208020582Y-87077990D01*
X208222683Y-87110000D01*
X208427317Y-87110000D01*
X208629417Y-87077990D01*
X208824031Y-87014755D01*
X209006349Y-86921859D01*
X209050921Y-86889474D01*
X208495234Y-86333787D01*
X208537292Y-86322518D01*
X208662708Y-86250110D01*
X208765110Y-86147708D01*
X208837518Y-86022292D01*
X208848787Y-85980234D01*
X209404474Y-86535921D01*
X209436859Y-86491349D01*
X209529755Y-86309031D01*
X209592990Y-86114417D01*
X209625000Y-85912317D01*
X209625000Y-85707682D01*
X209592990Y-85505582D01*
X209529755Y-85310968D01*
X209436859Y-85128650D01*
X209404474Y-85084077D01*
X209404474Y-85084076D01*
X208848787Y-85639764D01*
X208837518Y-85597708D01*
X208765110Y-85472292D01*
X208662708Y-85369890D01*
X208537292Y-85297482D01*
X208495233Y-85286212D01*
X209050922Y-84730524D01*
X209050921Y-84730523D01*
X209006359Y-84698147D01*
X209006350Y-84698141D01*
X208824031Y-84605244D01*
X208629417Y-84542009D01*
X208427317Y-84510000D01*
X208222683Y-84510000D01*
X208020582Y-84542009D01*
X207825968Y-84605244D01*
X207643644Y-84698143D01*
X207599077Y-84730523D01*
X207599077Y-84730524D01*
X208154766Y-85286212D01*
X208112708Y-85297482D01*
X207987292Y-85369890D01*
X207884890Y-85472292D01*
X207812482Y-85597708D01*
X207801212Y-85639765D01*
X207245524Y-85084077D01*
X207245523Y-85084077D01*
X207213143Y-85128644D01*
X207120244Y-85310968D01*
X207057009Y-85505582D01*
X207025000Y-85707682D01*
X203875000Y-85707682D01*
X203842990Y-85505582D01*
X203779755Y-85310968D01*
X203686859Y-85128650D01*
X203654474Y-85084077D01*
X203654474Y-85084076D01*
X203098787Y-85639764D01*
X203087518Y-85597708D01*
X203015110Y-85472292D01*
X202912708Y-85369890D01*
X202787292Y-85297482D01*
X202745233Y-85286212D01*
X203300922Y-84730524D01*
X203300921Y-84730523D01*
X203256359Y-84698147D01*
X203256350Y-84698141D01*
X203074031Y-84605244D01*
X202879417Y-84542009D01*
X202677317Y-84510000D01*
X202472683Y-84510000D01*
X202270582Y-84542009D01*
X202075968Y-84605244D01*
X201893644Y-84698143D01*
X201849077Y-84730523D01*
X201849077Y-84730524D01*
X202404766Y-85286212D01*
X202362708Y-85297482D01*
X202237292Y-85369890D01*
X202134890Y-85472292D01*
X202062482Y-85597708D01*
X202051212Y-85639765D01*
X201495524Y-85084077D01*
X201495523Y-85084077D01*
X201463143Y-85128644D01*
X201370244Y-85310968D01*
X201307009Y-85505582D01*
X201275000Y-85707682D01*
X165550500Y-85707682D01*
X165550500Y-82207682D01*
X204150000Y-82207682D01*
X204150000Y-82412317D01*
X204182009Y-82614417D01*
X204245244Y-82809031D01*
X204338141Y-82991350D01*
X204338147Y-82991359D01*
X204370523Y-83035921D01*
X204370524Y-83035922D01*
X204926212Y-82480234D01*
X204937482Y-82522292D01*
X205009890Y-82647708D01*
X205112292Y-82750110D01*
X205237708Y-82822518D01*
X205279765Y-82833787D01*
X204724076Y-83389474D01*
X204768650Y-83421859D01*
X204950968Y-83514755D01*
X205145582Y-83577990D01*
X205347683Y-83610000D01*
X205552317Y-83610000D01*
X205754417Y-83577990D01*
X205949031Y-83514755D01*
X206131349Y-83421859D01*
X206175921Y-83389474D01*
X205620234Y-82833787D01*
X205662292Y-82822518D01*
X205787708Y-82750110D01*
X205890110Y-82647708D01*
X205962518Y-82522292D01*
X205973787Y-82480235D01*
X206529474Y-83035922D01*
X206529474Y-83035921D01*
X206561859Y-82991349D01*
X206654755Y-82809031D01*
X206717990Y-82614417D01*
X206750000Y-82412317D01*
X206750000Y-82207682D01*
X209850000Y-82207682D01*
X209850000Y-82412317D01*
X209882009Y-82614417D01*
X209945244Y-82809031D01*
X210038141Y-82991350D01*
X210038147Y-82991359D01*
X210070523Y-83035921D01*
X210070524Y-83035922D01*
X210626212Y-82480234D01*
X210637482Y-82522292D01*
X210709890Y-82647708D01*
X210812292Y-82750110D01*
X210937708Y-82822518D01*
X210979765Y-82833787D01*
X210424076Y-83389474D01*
X210468650Y-83421859D01*
X210650968Y-83514755D01*
X210845582Y-83577990D01*
X211047683Y-83610000D01*
X211252317Y-83610000D01*
X211454417Y-83577990D01*
X211649031Y-83514755D01*
X211831349Y-83421859D01*
X211875921Y-83389474D01*
X211320234Y-82833787D01*
X211362292Y-82822518D01*
X211487708Y-82750110D01*
X211590110Y-82647708D01*
X211662518Y-82522292D01*
X211673787Y-82480234D01*
X212229474Y-83035921D01*
X212261859Y-82991349D01*
X212354755Y-82809031D01*
X212417990Y-82614417D01*
X212450000Y-82412317D01*
X212450000Y-82207682D01*
X212417990Y-82005582D01*
X212354755Y-81810968D01*
X212261859Y-81628650D01*
X212229474Y-81584077D01*
X212229474Y-81584076D01*
X211673787Y-82139764D01*
X211662518Y-82097708D01*
X211590110Y-81972292D01*
X211487708Y-81869890D01*
X211362292Y-81797482D01*
X211320233Y-81786212D01*
X211875922Y-81230524D01*
X211875921Y-81230523D01*
X211831359Y-81198147D01*
X211831350Y-81198141D01*
X211649031Y-81105244D01*
X211454417Y-81042009D01*
X211252317Y-81010000D01*
X211047683Y-81010000D01*
X210845582Y-81042009D01*
X210650968Y-81105244D01*
X210468644Y-81198143D01*
X210424077Y-81230523D01*
X210424077Y-81230524D01*
X210979766Y-81786212D01*
X210937708Y-81797482D01*
X210812292Y-81869890D01*
X210709890Y-81972292D01*
X210637482Y-82097708D01*
X210626212Y-82139765D01*
X210070524Y-81584077D01*
X210070523Y-81584077D01*
X210038143Y-81628644D01*
X209945244Y-81810968D01*
X209882009Y-82005582D01*
X209850000Y-82207682D01*
X206750000Y-82207682D01*
X206717990Y-82005582D01*
X206654755Y-81810968D01*
X206561859Y-81628650D01*
X206529474Y-81584077D01*
X206529474Y-81584076D01*
X205973787Y-82139764D01*
X205962518Y-82097708D01*
X205890110Y-81972292D01*
X205787708Y-81869890D01*
X205662292Y-81797482D01*
X205620233Y-81786212D01*
X206175922Y-81230524D01*
X206175921Y-81230523D01*
X206131359Y-81198147D01*
X206131350Y-81198141D01*
X205949031Y-81105244D01*
X205754417Y-81042009D01*
X205552317Y-81010000D01*
X205347683Y-81010000D01*
X205145582Y-81042009D01*
X204950968Y-81105244D01*
X204768644Y-81198143D01*
X204724077Y-81230523D01*
X204724077Y-81230524D01*
X205279766Y-81786212D01*
X205237708Y-81797482D01*
X205112292Y-81869890D01*
X205009890Y-81972292D01*
X204937482Y-82097708D01*
X204926212Y-82139765D01*
X204370524Y-81584077D01*
X204370523Y-81584077D01*
X204338143Y-81628644D01*
X204245244Y-81810968D01*
X204182009Y-82005582D01*
X204150000Y-82207682D01*
X165550500Y-82207682D01*
X165550500Y-77077973D01*
X166049500Y-77077973D01*
X166049500Y-77322027D01*
X166087679Y-77563076D01*
X166104226Y-77614003D01*
X166163097Y-77795187D01*
X166273896Y-78012642D01*
X166417339Y-78210076D01*
X166417343Y-78210081D01*
X166589918Y-78382656D01*
X166589923Y-78382660D01*
X166705478Y-78466615D01*
X166787361Y-78526106D01*
X167004815Y-78636904D01*
X167236924Y-78712321D01*
X167477973Y-78750500D01*
X167477974Y-78750500D01*
X167722026Y-78750500D01*
X167722027Y-78750500D01*
X167963076Y-78712321D01*
X168195185Y-78636904D01*
X168412639Y-78526106D01*
X168544302Y-78430447D01*
X168610107Y-78406968D01*
X168678161Y-78422793D01*
X168723302Y-78466615D01*
X168734528Y-78485185D01*
X168734531Y-78485189D01*
X168854811Y-78605469D01*
X168854813Y-78605470D01*
X168854815Y-78605472D01*
X169000394Y-78693478D01*
X169162804Y-78744086D01*
X169233384Y-78750500D01*
X169233387Y-78750500D01*
X171046613Y-78750500D01*
X171046616Y-78750500D01*
X171117196Y-78744086D01*
X171279606Y-78693478D01*
X171425185Y-78605472D01*
X171545472Y-78485185D01*
X171633478Y-78339606D01*
X171684086Y-78177196D01*
X171690500Y-78106616D01*
X171690500Y-77077973D01*
X174184500Y-77077973D01*
X174184500Y-77322027D01*
X174222679Y-77563076D01*
X174239226Y-77614003D01*
X174298097Y-77795187D01*
X174408896Y-78012642D01*
X174552339Y-78210076D01*
X174552343Y-78210081D01*
X174724918Y-78382656D01*
X174724923Y-78382660D01*
X174840478Y-78466615D01*
X174922361Y-78526106D01*
X175139815Y-78636904D01*
X175371924Y-78712321D01*
X175612973Y-78750500D01*
X175612974Y-78750500D01*
X175857026Y-78750500D01*
X175857027Y-78750500D01*
X176098076Y-78712321D01*
X176330185Y-78636904D01*
X176547639Y-78526106D01*
X176679302Y-78430447D01*
X176745107Y-78406968D01*
X176813161Y-78422793D01*
X176858302Y-78466615D01*
X176869528Y-78485185D01*
X176869531Y-78485189D01*
X176989811Y-78605469D01*
X176989813Y-78605470D01*
X176989815Y-78605472D01*
X177135394Y-78693478D01*
X177297804Y-78744086D01*
X177368384Y-78750500D01*
X177368387Y-78750500D01*
X179181613Y-78750500D01*
X179181616Y-78750500D01*
X179252196Y-78744086D01*
X179414606Y-78693478D01*
X179560185Y-78605472D01*
X179680472Y-78485185D01*
X179768478Y-78339606D01*
X179819086Y-78177196D01*
X179825500Y-78106616D01*
X179825500Y-77077973D01*
X182184500Y-77077973D01*
X182184500Y-77322027D01*
X182222679Y-77563076D01*
X182239226Y-77614003D01*
X182298097Y-77795187D01*
X182408896Y-78012642D01*
X182552339Y-78210076D01*
X182552343Y-78210081D01*
X182724918Y-78382656D01*
X182724923Y-78382660D01*
X182840478Y-78466615D01*
X182922361Y-78526106D01*
X183139815Y-78636904D01*
X183371924Y-78712321D01*
X183612973Y-78750500D01*
X183612974Y-78750500D01*
X183857026Y-78750500D01*
X183857027Y-78750500D01*
X184098076Y-78712321D01*
X184330185Y-78636904D01*
X184547639Y-78526106D01*
X184679302Y-78430447D01*
X184745107Y-78406968D01*
X184813161Y-78422793D01*
X184858302Y-78466615D01*
X184869528Y-78485185D01*
X184869531Y-78485189D01*
X184989811Y-78605469D01*
X184989813Y-78605470D01*
X184989815Y-78605472D01*
X185135394Y-78693478D01*
X185297804Y-78744086D01*
X185368384Y-78750500D01*
X185368387Y-78750500D01*
X187181613Y-78750500D01*
X187181616Y-78750500D01*
X187252196Y-78744086D01*
X187414606Y-78693478D01*
X187560185Y-78605472D01*
X187680472Y-78485185D01*
X187768478Y-78339606D01*
X187819086Y-78177196D01*
X187825500Y-78106616D01*
X187825500Y-77077973D01*
X190409500Y-77077973D01*
X190409500Y-77322027D01*
X190447679Y-77563076D01*
X190464226Y-77614003D01*
X190523097Y-77795187D01*
X190633896Y-78012642D01*
X190777339Y-78210076D01*
X190777343Y-78210081D01*
X190949918Y-78382656D01*
X190949923Y-78382660D01*
X191065478Y-78466615D01*
X191147361Y-78526106D01*
X191364815Y-78636904D01*
X191596924Y-78712321D01*
X191837973Y-78750500D01*
X191837974Y-78750500D01*
X192082026Y-78750500D01*
X192082027Y-78750500D01*
X192323076Y-78712321D01*
X192555185Y-78636904D01*
X192772639Y-78526106D01*
X192904302Y-78430447D01*
X192970107Y-78406968D01*
X193038161Y-78422793D01*
X193083302Y-78466615D01*
X193094528Y-78485185D01*
X193094531Y-78485189D01*
X193214811Y-78605469D01*
X193214813Y-78605470D01*
X193214815Y-78605472D01*
X193360394Y-78693478D01*
X193522804Y-78744086D01*
X193593384Y-78750500D01*
X193593387Y-78750500D01*
X195406613Y-78750500D01*
X195406616Y-78750500D01*
X195477196Y-78744086D01*
X195639606Y-78693478D01*
X195785185Y-78605472D01*
X195905472Y-78485185D01*
X195993478Y-78339606D01*
X196044086Y-78177196D01*
X196050500Y-78106616D01*
X196050500Y-78071902D01*
X201074500Y-78071902D01*
X201074500Y-78308097D01*
X201111446Y-78541368D01*
X201184433Y-78765996D01*
X201291657Y-78976433D01*
X201430483Y-79167510D01*
X201597490Y-79334517D01*
X201788567Y-79473343D01*
X201887991Y-79524002D01*
X201999003Y-79580566D01*
X201999005Y-79580566D01*
X201999008Y-79580568D01*
X202119412Y-79619689D01*
X202223631Y-79653553D01*
X202456903Y-79690500D01*
X202456908Y-79690500D01*
X202693097Y-79690500D01*
X202926368Y-79653553D01*
X203150992Y-79580568D01*
X203361433Y-79473343D01*
X203552510Y-79334517D01*
X203719517Y-79167510D01*
X203858343Y-78976433D01*
X203965568Y-78765992D01*
X204038553Y-78541368D01*
X204047451Y-78485188D01*
X204075500Y-78308097D01*
X204075500Y-78071902D01*
X206824500Y-78071902D01*
X206824500Y-78308097D01*
X206861446Y-78541368D01*
X206934433Y-78765996D01*
X207041657Y-78976433D01*
X207180483Y-79167510D01*
X207347490Y-79334517D01*
X207538567Y-79473343D01*
X207637991Y-79524002D01*
X207749003Y-79580566D01*
X207749005Y-79580566D01*
X207749008Y-79580568D01*
X207869412Y-79619689D01*
X207973631Y-79653553D01*
X208206903Y-79690500D01*
X208206908Y-79690500D01*
X208443097Y-79690500D01*
X208676368Y-79653553D01*
X208900992Y-79580568D01*
X209111433Y-79473343D01*
X209302510Y-79334517D01*
X209469517Y-79167510D01*
X209608343Y-78976433D01*
X209715568Y-78765992D01*
X209788553Y-78541368D01*
X209797451Y-78485188D01*
X209825500Y-78308097D01*
X209825500Y-78071902D01*
X209788553Y-77838631D01*
X209715566Y-77614003D01*
X209608342Y-77403566D01*
X209469517Y-77212490D01*
X209302510Y-77045483D01*
X209111433Y-76906657D01*
X208900996Y-76799433D01*
X208676368Y-76726446D01*
X208443097Y-76689500D01*
X208443092Y-76689500D01*
X208206908Y-76689500D01*
X208206903Y-76689500D01*
X207973631Y-76726446D01*
X207749003Y-76799433D01*
X207538566Y-76906657D01*
X207429550Y-76985862D01*
X207347490Y-77045483D01*
X207347488Y-77045485D01*
X207347487Y-77045485D01*
X207180485Y-77212487D01*
X207180485Y-77212488D01*
X207180483Y-77212490D01*
X207120862Y-77294550D01*
X207041657Y-77403566D01*
X206934433Y-77614003D01*
X206861446Y-77838631D01*
X206824500Y-78071902D01*
X204075500Y-78071902D01*
X204038553Y-77838631D01*
X203965566Y-77614003D01*
X203858342Y-77403566D01*
X203719517Y-77212490D01*
X203552510Y-77045483D01*
X203361433Y-76906657D01*
X203150996Y-76799433D01*
X202926368Y-76726446D01*
X202693097Y-76689500D01*
X202693092Y-76689500D01*
X202456908Y-76689500D01*
X202456903Y-76689500D01*
X202223631Y-76726446D01*
X201999003Y-76799433D01*
X201788566Y-76906657D01*
X201679550Y-76985862D01*
X201597490Y-77045483D01*
X201597488Y-77045485D01*
X201597487Y-77045485D01*
X201430485Y-77212487D01*
X201430485Y-77212488D01*
X201430483Y-77212490D01*
X201370862Y-77294550D01*
X201291657Y-77403566D01*
X201184433Y-77614003D01*
X201111446Y-77838631D01*
X201074500Y-78071902D01*
X196050500Y-78071902D01*
X196050500Y-76293384D01*
X196044086Y-76222804D01*
X195993478Y-76060394D01*
X195905472Y-75914815D01*
X195905470Y-75914813D01*
X195905469Y-75914811D01*
X195785188Y-75794530D01*
X195639606Y-75706522D01*
X195579132Y-75687678D01*
X195477196Y-75655914D01*
X195477194Y-75655913D01*
X195477192Y-75655913D01*
X195427778Y-75651423D01*
X195406616Y-75649500D01*
X193593384Y-75649500D01*
X193574145Y-75651248D01*
X193522807Y-75655913D01*
X193360393Y-75706522D01*
X193214811Y-75794530D01*
X193094531Y-75914810D01*
X193094526Y-75914817D01*
X193083301Y-75933385D01*
X193031772Y-75980572D01*
X192962913Y-75992409D01*
X192904301Y-75969551D01*
X192772642Y-75873896D01*
X192772641Y-75873895D01*
X192772639Y-75873894D01*
X192555185Y-75763096D01*
X192323076Y-75687679D01*
X192323074Y-75687678D01*
X192323072Y-75687678D01*
X192154769Y-75661021D01*
X192082027Y-75649500D01*
X191837973Y-75649500D01*
X191797484Y-75655913D01*
X191596927Y-75687678D01*
X191364812Y-75763097D01*
X191147357Y-75873896D01*
X190949923Y-76017339D01*
X190949918Y-76017343D01*
X190777343Y-76189918D01*
X190777339Y-76189923D01*
X190633896Y-76387357D01*
X190523097Y-76604812D01*
X190447678Y-76836927D01*
X190436634Y-76906657D01*
X190409500Y-77077973D01*
X187825500Y-77077973D01*
X187825500Y-76293384D01*
X187819086Y-76222804D01*
X187768478Y-76060394D01*
X187680472Y-75914815D01*
X187680470Y-75914813D01*
X187680469Y-75914811D01*
X187560188Y-75794530D01*
X187414606Y-75706522D01*
X187354132Y-75687678D01*
X187252196Y-75655914D01*
X187252194Y-75655913D01*
X187252192Y-75655913D01*
X187202778Y-75651423D01*
X187181616Y-75649500D01*
X185368384Y-75649500D01*
X185349145Y-75651248D01*
X185297807Y-75655913D01*
X185135393Y-75706522D01*
X184989811Y-75794530D01*
X184869531Y-75914810D01*
X184869526Y-75914817D01*
X184858301Y-75933385D01*
X184806772Y-75980572D01*
X184737913Y-75992409D01*
X184679301Y-75969551D01*
X184547642Y-75873896D01*
X184547641Y-75873895D01*
X184547639Y-75873894D01*
X184330185Y-75763096D01*
X184098076Y-75687679D01*
X184098074Y-75687678D01*
X184098072Y-75687678D01*
X183929769Y-75661021D01*
X183857027Y-75649500D01*
X183612973Y-75649500D01*
X183572484Y-75655913D01*
X183371927Y-75687678D01*
X183139812Y-75763097D01*
X182922357Y-75873896D01*
X182724923Y-76017339D01*
X182724918Y-76017343D01*
X182552343Y-76189918D01*
X182552339Y-76189923D01*
X182408896Y-76387357D01*
X182298097Y-76604812D01*
X182222678Y-76836927D01*
X182211634Y-76906657D01*
X182184500Y-77077973D01*
X179825500Y-77077973D01*
X179825500Y-76293384D01*
X179819086Y-76222804D01*
X179768478Y-76060394D01*
X179680472Y-75914815D01*
X179680470Y-75914813D01*
X179680469Y-75914811D01*
X179560188Y-75794530D01*
X179414606Y-75706522D01*
X179354132Y-75687678D01*
X179252196Y-75655914D01*
X179252194Y-75655913D01*
X179252192Y-75655913D01*
X179202778Y-75651423D01*
X179181616Y-75649500D01*
X177368384Y-75649500D01*
X177349145Y-75651248D01*
X177297807Y-75655913D01*
X177135393Y-75706522D01*
X176989811Y-75794530D01*
X176869531Y-75914810D01*
X176869526Y-75914817D01*
X176858301Y-75933385D01*
X176806772Y-75980572D01*
X176737913Y-75992409D01*
X176679301Y-75969551D01*
X176547642Y-75873896D01*
X176547641Y-75873895D01*
X176547639Y-75873894D01*
X176330185Y-75763096D01*
X176098076Y-75687679D01*
X176098074Y-75687678D01*
X176098072Y-75687678D01*
X175929769Y-75661021D01*
X175857027Y-75649500D01*
X175612973Y-75649500D01*
X175572484Y-75655913D01*
X175371927Y-75687678D01*
X175139812Y-75763097D01*
X174922357Y-75873896D01*
X174724923Y-76017339D01*
X174724918Y-76017343D01*
X174552343Y-76189918D01*
X174552339Y-76189923D01*
X174408896Y-76387357D01*
X174298097Y-76604812D01*
X174222678Y-76836927D01*
X174211634Y-76906657D01*
X174184500Y-77077973D01*
X171690500Y-77077973D01*
X171690500Y-76293384D01*
X171684086Y-76222804D01*
X171633478Y-76060394D01*
X171545472Y-75914815D01*
X171545470Y-75914813D01*
X171545469Y-75914811D01*
X171425188Y-75794530D01*
X171279606Y-75706522D01*
X171219132Y-75687678D01*
X171117196Y-75655914D01*
X171117194Y-75655913D01*
X171117192Y-75655913D01*
X171067778Y-75651423D01*
X171046616Y-75649500D01*
X169233384Y-75649500D01*
X169214145Y-75651248D01*
X169162807Y-75655913D01*
X169000393Y-75706522D01*
X168854811Y-75794530D01*
X168734531Y-75914810D01*
X168734526Y-75914817D01*
X168723301Y-75933385D01*
X168671772Y-75980572D01*
X168602913Y-75992409D01*
X168544301Y-75969551D01*
X168412642Y-75873896D01*
X168412641Y-75873895D01*
X168412639Y-75873894D01*
X168195185Y-75763096D01*
X167963076Y-75687679D01*
X167963074Y-75687678D01*
X167963072Y-75687678D01*
X167794769Y-75661021D01*
X167722027Y-75649500D01*
X167477973Y-75649500D01*
X167437484Y-75655913D01*
X167236927Y-75687678D01*
X167004812Y-75763097D01*
X166787357Y-75873896D01*
X166589923Y-76017339D01*
X166589918Y-76017343D01*
X166417343Y-76189918D01*
X166417339Y-76189923D01*
X166273896Y-76387357D01*
X166163097Y-76604812D01*
X166087678Y-76836927D01*
X166076634Y-76906657D01*
X166049500Y-77077973D01*
X165550500Y-77077973D01*
X165550500Y-74571902D01*
X203949500Y-74571902D01*
X203949500Y-74808097D01*
X203986446Y-75041368D01*
X204059433Y-75265996D01*
X204166657Y-75476433D01*
X204305483Y-75667510D01*
X204472490Y-75834517D01*
X204663567Y-75973343D01*
X204749914Y-76017339D01*
X204874003Y-76080566D01*
X204874005Y-76080566D01*
X204874008Y-76080568D01*
X204994412Y-76119689D01*
X205098631Y-76153553D01*
X205331903Y-76190500D01*
X205331908Y-76190500D01*
X205568097Y-76190500D01*
X205801368Y-76153553D01*
X206025992Y-76080568D01*
X206236433Y-75973343D01*
X206427510Y-75834517D01*
X206594517Y-75667510D01*
X206733343Y-75476433D01*
X206840568Y-75265992D01*
X206913553Y-75041368D01*
X206950500Y-74808097D01*
X206950500Y-74571902D01*
X209649500Y-74571902D01*
X209649500Y-74808097D01*
X209686446Y-75041368D01*
X209759433Y-75265996D01*
X209866657Y-75476433D01*
X210005483Y-75667510D01*
X210172490Y-75834517D01*
X210363567Y-75973343D01*
X210449914Y-76017339D01*
X210574003Y-76080566D01*
X210574005Y-76080566D01*
X210574008Y-76080568D01*
X210694412Y-76119689D01*
X210798631Y-76153553D01*
X211031903Y-76190500D01*
X211031908Y-76190500D01*
X211268097Y-76190500D01*
X211501368Y-76153553D01*
X211725992Y-76080568D01*
X211936433Y-75973343D01*
X212127510Y-75834517D01*
X212294517Y-75667510D01*
X212433343Y-75476433D01*
X212540568Y-75265992D01*
X212613553Y-75041368D01*
X212650500Y-74808097D01*
X212650500Y-74571902D01*
X212613553Y-74338631D01*
X212540566Y-74114003D01*
X212433342Y-73903566D01*
X212294517Y-73712490D01*
X212127510Y-73545483D01*
X211936433Y-73406657D01*
X211725996Y-73299433D01*
X211501368Y-73226446D01*
X211268097Y-73189500D01*
X211268092Y-73189500D01*
X211031908Y-73189500D01*
X211031903Y-73189500D01*
X210798631Y-73226446D01*
X210574003Y-73299433D01*
X210363566Y-73406657D01*
X210254550Y-73485862D01*
X210172490Y-73545483D01*
X210172488Y-73545485D01*
X210172487Y-73545485D01*
X210005485Y-73712487D01*
X210005485Y-73712488D01*
X210005483Y-73712490D01*
X209945862Y-73794550D01*
X209866657Y-73903566D01*
X209759433Y-74114003D01*
X209686446Y-74338631D01*
X209649500Y-74571902D01*
X206950500Y-74571902D01*
X206913553Y-74338631D01*
X206840566Y-74114003D01*
X206733342Y-73903566D01*
X206594517Y-73712490D01*
X206427510Y-73545483D01*
X206236433Y-73406657D01*
X206025996Y-73299433D01*
X205801368Y-73226446D01*
X205568097Y-73189500D01*
X205568092Y-73189500D01*
X205331908Y-73189500D01*
X205331903Y-73189500D01*
X205098631Y-73226446D01*
X204874003Y-73299433D01*
X204663566Y-73406657D01*
X204554550Y-73485862D01*
X204472490Y-73545483D01*
X204472488Y-73545485D01*
X204472487Y-73545485D01*
X204305485Y-73712487D01*
X204305485Y-73712488D01*
X204305483Y-73712490D01*
X204245862Y-73794550D01*
X204166657Y-73903566D01*
X204059433Y-74114003D01*
X203986446Y-74338631D01*
X203949500Y-74571902D01*
X165550500Y-74571902D01*
X165550500Y-61376902D01*
X169024500Y-61376902D01*
X169024500Y-61613097D01*
X169061446Y-61846368D01*
X169134433Y-62070996D01*
X169202396Y-62204379D01*
X169241657Y-62281433D01*
X169380483Y-62472510D01*
X169547490Y-62639517D01*
X169738567Y-62778343D01*
X169813780Y-62816666D01*
X169949003Y-62885566D01*
X169949005Y-62885566D01*
X169949008Y-62885568D01*
X170056727Y-62920568D01*
X170173631Y-62958553D01*
X170406903Y-62995500D01*
X170406908Y-62995500D01*
X170643097Y-62995500D01*
X170876368Y-62958553D01*
X170909908Y-62947655D01*
X171100992Y-62885568D01*
X171311433Y-62778343D01*
X171502510Y-62639517D01*
X171669517Y-62472510D01*
X171808343Y-62281433D01*
X171915568Y-62070992D01*
X171988553Y-61846368D01*
X172025500Y-61613097D01*
X172025500Y-61411902D01*
X174799500Y-61411902D01*
X174799500Y-61648097D01*
X174836446Y-61881368D01*
X174909433Y-62105996D01*
X175016657Y-62316433D01*
X175155483Y-62507510D01*
X175322490Y-62674517D01*
X175513567Y-62813343D01*
X175605137Y-62860000D01*
X175724003Y-62920566D01*
X175724005Y-62920566D01*
X175724008Y-62920568D01*
X175807453Y-62947681D01*
X175948631Y-62993553D01*
X176181903Y-63030500D01*
X176181908Y-63030500D01*
X176418097Y-63030500D01*
X176651368Y-62993553D01*
X176875992Y-62920568D01*
X177086433Y-62813343D01*
X177277510Y-62674517D01*
X177444517Y-62507510D01*
X177583343Y-62316433D01*
X177690568Y-62105992D01*
X177763553Y-61881368D01*
X177800500Y-61648097D01*
X177800500Y-61411902D01*
X177763553Y-61178631D01*
X177729689Y-61074412D01*
X177690568Y-60954008D01*
X177690566Y-60954005D01*
X177690566Y-60954003D01*
X177622643Y-60820698D01*
X177583343Y-60743567D01*
X177444517Y-60552490D01*
X177277510Y-60385483D01*
X177086433Y-60246657D01*
X177017742Y-60211657D01*
X176875996Y-60139433D01*
X176651368Y-60066446D01*
X176418097Y-60029500D01*
X176418092Y-60029500D01*
X176181908Y-60029500D01*
X176181903Y-60029500D01*
X175948631Y-60066446D01*
X175724003Y-60139433D01*
X175513566Y-60246657D01*
X175412619Y-60320000D01*
X175322490Y-60385483D01*
X175322488Y-60385485D01*
X175322487Y-60385485D01*
X175155485Y-60552487D01*
X175155485Y-60552488D01*
X175155483Y-60552490D01*
X175098826Y-60630471D01*
X175016657Y-60743566D01*
X174909433Y-60954003D01*
X174836446Y-61178631D01*
X174799500Y-61411902D01*
X172025500Y-61411902D01*
X172025500Y-61376902D01*
X171988553Y-61143631D01*
X171926940Y-60954008D01*
X171915568Y-60919008D01*
X171915566Y-60919005D01*
X171915566Y-60919003D01*
X171831946Y-60754891D01*
X171808343Y-60708567D01*
X171669517Y-60517490D01*
X171502510Y-60350483D01*
X171311433Y-60211657D01*
X171292857Y-60202192D01*
X171100996Y-60104433D01*
X170876368Y-60031446D01*
X170643097Y-59994500D01*
X170643092Y-59994500D01*
X170406908Y-59994500D01*
X170406903Y-59994500D01*
X170173631Y-60031446D01*
X169949003Y-60104433D01*
X169738566Y-60211657D01*
X169649090Y-60276666D01*
X169547490Y-60350483D01*
X169547488Y-60350485D01*
X169547487Y-60350485D01*
X169380485Y-60517487D01*
X169380485Y-60517488D01*
X169380483Y-60517490D01*
X169355054Y-60552490D01*
X169241657Y-60708566D01*
X169134433Y-60919003D01*
X169061446Y-61143631D01*
X169024500Y-61376902D01*
X165550500Y-61376902D01*
X165550500Y-56251902D01*
X166099500Y-56251902D01*
X166099500Y-56488097D01*
X166136446Y-56721368D01*
X166209433Y-56945996D01*
X166300325Y-57124379D01*
X166316657Y-57156433D01*
X166455483Y-57347510D01*
X166622490Y-57514517D01*
X166813567Y-57653343D01*
X166890062Y-57692319D01*
X167024003Y-57760566D01*
X167024005Y-57760566D01*
X167024008Y-57760568D01*
X167144412Y-57799689D01*
X167248631Y-57833553D01*
X167481903Y-57870500D01*
X167481908Y-57870500D01*
X167718097Y-57870500D01*
X167951368Y-57833553D01*
X168175992Y-57760568D01*
X168386433Y-57653343D01*
X168577510Y-57514517D01*
X168744517Y-57347510D01*
X168883343Y-57156433D01*
X168990568Y-56945992D01*
X169063553Y-56721368D01*
X169077080Y-56635961D01*
X169100500Y-56488097D01*
X169100500Y-56251903D01*
X169094882Y-56216435D01*
X169094882Y-56216434D01*
X169092580Y-56201902D01*
X171899500Y-56201902D01*
X171899500Y-56438097D01*
X171936446Y-56671368D01*
X172009433Y-56895996D01*
X172034910Y-56945996D01*
X172116657Y-57106433D01*
X172255483Y-57297510D01*
X172422490Y-57464517D01*
X172613567Y-57603343D01*
X172711696Y-57653342D01*
X172824003Y-57710566D01*
X172824005Y-57710566D01*
X172824008Y-57710568D01*
X172944412Y-57749689D01*
X173048631Y-57783553D01*
X173281903Y-57820500D01*
X173281908Y-57820500D01*
X173518097Y-57820500D01*
X173751368Y-57783553D01*
X173822114Y-57760566D01*
X173975992Y-57710568D01*
X174186433Y-57603343D01*
X174377510Y-57464517D01*
X174544517Y-57297510D01*
X174683343Y-57106433D01*
X174790568Y-56895992D01*
X174863553Y-56671368D01*
X174869161Y-56635961D01*
X174900500Y-56438097D01*
X174900500Y-56201902D01*
X174863553Y-55968631D01*
X174790566Y-55744003D01*
X174683342Y-55533566D01*
X174635233Y-55467350D01*
X174544517Y-55342490D01*
X174377510Y-55175483D01*
X174194519Y-55042532D01*
X174194519Y-55042531D01*
X174186435Y-55036658D01*
X173975996Y-54929433D01*
X173751368Y-54856446D01*
X173518097Y-54819500D01*
X173518092Y-54819500D01*
X173281908Y-54819500D01*
X173281903Y-54819500D01*
X173048631Y-54856446D01*
X172824003Y-54929433D01*
X172613566Y-55036657D01*
X172506075Y-55114755D01*
X172422490Y-55175483D01*
X172422488Y-55175485D01*
X172422487Y-55175485D01*
X172255485Y-55342487D01*
X172255485Y-55342488D01*
X172255483Y-55342490D01*
X172219158Y-55392487D01*
X172116657Y-55533566D01*
X172009433Y-55744003D01*
X171936446Y-55968631D01*
X171899500Y-56201902D01*
X169092580Y-56201902D01*
X169063553Y-56018631D01*
X169023584Y-55895621D01*
X168990568Y-55794008D01*
X168990566Y-55794005D01*
X168990566Y-55794003D01*
X168883342Y-55583566D01*
X168744517Y-55392490D01*
X168577510Y-55225483D01*
X168386433Y-55086657D01*
X168241184Y-55012649D01*
X168175996Y-54979433D01*
X167951368Y-54906446D01*
X167718097Y-54869500D01*
X167718092Y-54869500D01*
X167481908Y-54869500D01*
X167481903Y-54869500D01*
X167248631Y-54906446D01*
X167024003Y-54979433D01*
X166813566Y-55086657D01*
X166723191Y-55152319D01*
X166622490Y-55225483D01*
X166622488Y-55225485D01*
X166622487Y-55225485D01*
X166455485Y-55392487D01*
X166455485Y-55392488D01*
X166455483Y-55392490D01*
X166401094Y-55467350D01*
X166316657Y-55583566D01*
X166209433Y-55794003D01*
X166136446Y-56018631D01*
X166099500Y-56251902D01*
X165550500Y-56251902D01*
X165550500Y-53772682D01*
X169225000Y-53772682D01*
X169225000Y-53977317D01*
X169257009Y-54179417D01*
X169320244Y-54374031D01*
X169413141Y-54556350D01*
X169413147Y-54556359D01*
X169445523Y-54600921D01*
X169445524Y-54600922D01*
X170001212Y-54045233D01*
X170012482Y-54087292D01*
X170084890Y-54212708D01*
X170187292Y-54315110D01*
X170312708Y-54387518D01*
X170354765Y-54398787D01*
X169799076Y-54954474D01*
X169843650Y-54986859D01*
X170025968Y-55079755D01*
X170220582Y-55142990D01*
X170422683Y-55175000D01*
X170627317Y-55175000D01*
X170829417Y-55142990D01*
X171024031Y-55079755D01*
X171206349Y-54986859D01*
X171250921Y-54954474D01*
X170695234Y-54398787D01*
X170737292Y-54387518D01*
X170862708Y-54315110D01*
X170965110Y-54212708D01*
X171037518Y-54087292D01*
X171048787Y-54045234D01*
X171604474Y-54600921D01*
X171636859Y-54556349D01*
X171729755Y-54374031D01*
X171792990Y-54179417D01*
X171825000Y-53977317D01*
X171825000Y-53807682D01*
X175000000Y-53807682D01*
X175000000Y-54012317D01*
X175032009Y-54214417D01*
X175095244Y-54409031D01*
X175188141Y-54591350D01*
X175188147Y-54591359D01*
X175220523Y-54635921D01*
X175220524Y-54635922D01*
X175776212Y-54080234D01*
X175787482Y-54122292D01*
X175859890Y-54247708D01*
X175962292Y-54350110D01*
X176087708Y-54422518D01*
X176129765Y-54433787D01*
X175574076Y-54989474D01*
X175618650Y-55021859D01*
X175800968Y-55114755D01*
X175995582Y-55177990D01*
X176197683Y-55210000D01*
X176402317Y-55210000D01*
X176604417Y-55177990D01*
X176799031Y-55114755D01*
X176981349Y-55021859D01*
X177025921Y-54989474D01*
X176470234Y-54433787D01*
X176512292Y-54422518D01*
X176637708Y-54350110D01*
X176740110Y-54247708D01*
X176812518Y-54122292D01*
X176823787Y-54080234D01*
X177379474Y-54635921D01*
X177411859Y-54591349D01*
X177504755Y-54409031D01*
X177567990Y-54214417D01*
X177600000Y-54012317D01*
X177600000Y-53807682D01*
X177567990Y-53605582D01*
X177504755Y-53410968D01*
X177411859Y-53228650D01*
X177379474Y-53184077D01*
X177379474Y-53184076D01*
X176823787Y-53739764D01*
X176812518Y-53697708D01*
X176740110Y-53572292D01*
X176637708Y-53469890D01*
X176512292Y-53397482D01*
X176470233Y-53386212D01*
X177025922Y-52830524D01*
X177025921Y-52830523D01*
X176981359Y-52798147D01*
X176981350Y-52798141D01*
X176799031Y-52705244D01*
X176604417Y-52642009D01*
X176402317Y-52610000D01*
X176197683Y-52610000D01*
X175995582Y-52642009D01*
X175800968Y-52705244D01*
X175618644Y-52798143D01*
X175574077Y-52830523D01*
X175574077Y-52830524D01*
X176129766Y-53386212D01*
X176087708Y-53397482D01*
X175962292Y-53469890D01*
X175859890Y-53572292D01*
X175787482Y-53697708D01*
X175776212Y-53739765D01*
X175220524Y-53184077D01*
X175220523Y-53184077D01*
X175188143Y-53228644D01*
X175095244Y-53410968D01*
X175032009Y-53605582D01*
X175000000Y-53807682D01*
X171825000Y-53807682D01*
X171825000Y-53772682D01*
X171792990Y-53570582D01*
X171729755Y-53375968D01*
X171636859Y-53193650D01*
X171604474Y-53149077D01*
X171604474Y-53149076D01*
X171048787Y-53704764D01*
X171037518Y-53662708D01*
X170965110Y-53537292D01*
X170862708Y-53434890D01*
X170737292Y-53362482D01*
X170695233Y-53351212D01*
X171250922Y-52795524D01*
X171250921Y-52795523D01*
X171206359Y-52763147D01*
X171206350Y-52763141D01*
X171024031Y-52670244D01*
X170829417Y-52607009D01*
X170627317Y-52575000D01*
X170422683Y-52575000D01*
X170220582Y-52607009D01*
X170025968Y-52670244D01*
X169843644Y-52763143D01*
X169799077Y-52795523D01*
X169799077Y-52795524D01*
X170354766Y-53351212D01*
X170312708Y-53362482D01*
X170187292Y-53434890D01*
X170084890Y-53537292D01*
X170012482Y-53662708D01*
X170001212Y-53704765D01*
X169445524Y-53149077D01*
X169445523Y-53149077D01*
X169413143Y-53193644D01*
X169320244Y-53375968D01*
X169257009Y-53570582D01*
X169225000Y-53772682D01*
X165550500Y-53772682D01*
X165550500Y-48647682D01*
X166300000Y-48647682D01*
X166300000Y-48852317D01*
X166332009Y-49054417D01*
X166395244Y-49249031D01*
X166488141Y-49431350D01*
X166488147Y-49431359D01*
X166520523Y-49475921D01*
X166520524Y-49475922D01*
X167076212Y-48920234D01*
X167087482Y-48962292D01*
X167159890Y-49087708D01*
X167262292Y-49190110D01*
X167387708Y-49262518D01*
X167429765Y-49273787D01*
X166874076Y-49829474D01*
X166918650Y-49861859D01*
X167100968Y-49954755D01*
X167295582Y-50017990D01*
X167497683Y-50050000D01*
X167702317Y-50050000D01*
X167904417Y-50017990D01*
X168099031Y-49954755D01*
X168281349Y-49861859D01*
X168325921Y-49829474D01*
X168325922Y-49829474D01*
X168316344Y-49819896D01*
X167770234Y-49273787D01*
X167812292Y-49262518D01*
X167937708Y-49190110D01*
X168040110Y-49087708D01*
X168112518Y-48962292D01*
X168123787Y-48920234D01*
X168679474Y-49475921D01*
X168711859Y-49431349D01*
X168804755Y-49249031D01*
X168867990Y-49054417D01*
X168900000Y-48852317D01*
X168900000Y-48647683D01*
X168894382Y-48612215D01*
X168894382Y-48612214D01*
X168892080Y-48597682D01*
X172100000Y-48597682D01*
X172100000Y-48802317D01*
X172132009Y-49004417D01*
X172195244Y-49199031D01*
X172288141Y-49381350D01*
X172288147Y-49381359D01*
X172320523Y-49425921D01*
X172320524Y-49425922D01*
X172876212Y-48870234D01*
X172887482Y-48912292D01*
X172959890Y-49037708D01*
X173062292Y-49140110D01*
X173187708Y-49212518D01*
X173229765Y-49223787D01*
X172674076Y-49779474D01*
X172718650Y-49811859D01*
X172900968Y-49904755D01*
X173095582Y-49967990D01*
X173297683Y-50000000D01*
X173502317Y-50000000D01*
X173704417Y-49967990D01*
X173899031Y-49904755D01*
X174081349Y-49811859D01*
X174125921Y-49779474D01*
X173570234Y-49223787D01*
X173612292Y-49212518D01*
X173737708Y-49140110D01*
X173840110Y-49037708D01*
X173912518Y-48912292D01*
X173923787Y-48870234D01*
X174479474Y-49425921D01*
X174511859Y-49381349D01*
X174604755Y-49199031D01*
X174667990Y-49004417D01*
X174700000Y-48802317D01*
X174700000Y-48597682D01*
X174667990Y-48395582D01*
X174604755Y-48200968D01*
X174511859Y-48018650D01*
X174479474Y-47974077D01*
X174479474Y-47974076D01*
X173923787Y-48529764D01*
X173912518Y-48487708D01*
X173840110Y-48362292D01*
X173737708Y-48259890D01*
X173612292Y-48187482D01*
X173570233Y-48176212D01*
X174125922Y-47620524D01*
X174125921Y-47620523D01*
X174081359Y-47588147D01*
X174081350Y-47588141D01*
X173899031Y-47495244D01*
X173704417Y-47432009D01*
X173502317Y-47400000D01*
X173297683Y-47400000D01*
X173095582Y-47432009D01*
X172900968Y-47495244D01*
X172718644Y-47588143D01*
X172674077Y-47620523D01*
X172674077Y-47620524D01*
X173229766Y-48176212D01*
X173187708Y-48187482D01*
X173062292Y-48259890D01*
X172959890Y-48362292D01*
X172887482Y-48487708D01*
X172876212Y-48529765D01*
X172320524Y-47974077D01*
X172320523Y-47974077D01*
X172288143Y-48018644D01*
X172195244Y-48200968D01*
X172132009Y-48395582D01*
X172100000Y-48597682D01*
X168892080Y-48597682D01*
X168867990Y-48445582D01*
X168804755Y-48250968D01*
X168711859Y-48068650D01*
X168679474Y-48024077D01*
X168679474Y-48024076D01*
X168123787Y-48579764D01*
X168112518Y-48537708D01*
X168040110Y-48412292D01*
X167937708Y-48309890D01*
X167812292Y-48237482D01*
X167770233Y-48226212D01*
X168325922Y-47670524D01*
X168325921Y-47670523D01*
X168281359Y-47638147D01*
X168281350Y-47638141D01*
X168099031Y-47545244D01*
X167904417Y-47482009D01*
X167702317Y-47450000D01*
X167497683Y-47450000D01*
X167295582Y-47482009D01*
X167100968Y-47545244D01*
X166918644Y-47638143D01*
X166874077Y-47670523D01*
X166874077Y-47670524D01*
X167429766Y-48226212D01*
X167387708Y-48237482D01*
X167262292Y-48309890D01*
X167159890Y-48412292D01*
X167087482Y-48537708D01*
X167076212Y-48579765D01*
X166520524Y-48024077D01*
X166520523Y-48024077D01*
X166488143Y-48068644D01*
X166395244Y-48250968D01*
X166332009Y-48445582D01*
X166300000Y-48647682D01*
X165550500Y-48647682D01*
X165550500Y-43684038D01*
X180279500Y-43684038D01*
X180279500Y-43935961D01*
X180318910Y-44184785D01*
X180396760Y-44424383D01*
X180511132Y-44648848D01*
X180659201Y-44852649D01*
X180659205Y-44852654D01*
X180798870Y-44992319D01*
X180832355Y-45053642D01*
X180827371Y-45123334D01*
X180798870Y-45167681D01*
X180659205Y-45307345D01*
X180659201Y-45307350D01*
X180511132Y-45511151D01*
X180396760Y-45735616D01*
X180318910Y-45975214D01*
X180279500Y-46224038D01*
X180279500Y-46475961D01*
X180318910Y-46724785D01*
X180396760Y-46964383D01*
X180511132Y-47188848D01*
X180659201Y-47392649D01*
X180659205Y-47392654D01*
X180667067Y-47400516D01*
X180700552Y-47461839D01*
X180695568Y-47531531D01*
X180667068Y-47575878D01*
X180541088Y-47701858D01*
X180420592Y-47877761D01*
X180334467Y-48072817D01*
X180334465Y-48072823D01*
X180285652Y-48280359D01*
X180285650Y-48280375D01*
X180279500Y-48368984D01*
X180279500Y-49411015D01*
X180285650Y-49499624D01*
X180285652Y-49499640D01*
X180334465Y-49707176D01*
X180334467Y-49707182D01*
X180334468Y-49707185D01*
X180420591Y-49902237D01*
X180541089Y-50078142D01*
X180681383Y-50218436D01*
X180714867Y-50279757D01*
X180709883Y-50349449D01*
X180689803Y-50384476D01*
X180632689Y-50454520D01*
X180632687Y-50454524D01*
X180543228Y-50625784D01*
X180490079Y-50811538D01*
X180490078Y-50811541D01*
X180480000Y-50924902D01*
X180480000Y-51180000D01*
X181446988Y-51180000D01*
X181414075Y-51237007D01*
X181380000Y-51364174D01*
X181380000Y-51495826D01*
X181414075Y-51622993D01*
X181446988Y-51680000D01*
X180480001Y-51680000D01*
X180480001Y-51935098D01*
X180490078Y-52048460D01*
X180543228Y-52234215D01*
X180632686Y-52405474D01*
X180754786Y-52555217D01*
X180800750Y-52592696D01*
X180840268Y-52650316D01*
X180842360Y-52720155D01*
X180810072Y-52776479D01*
X180659200Y-52927351D01*
X180511132Y-53131151D01*
X180396760Y-53355616D01*
X180318910Y-53595214D01*
X180290802Y-53772682D01*
X180279500Y-53844038D01*
X180279500Y-54095962D01*
X180292718Y-54179417D01*
X180318910Y-54344785D01*
X180396760Y-54584383D01*
X180423021Y-54635922D01*
X180493927Y-54775083D01*
X180511132Y-54808848D01*
X180659201Y-55012649D01*
X180659205Y-55012654D01*
X180798870Y-55152319D01*
X180832355Y-55213642D01*
X180827371Y-55283334D01*
X180798870Y-55327681D01*
X180659205Y-55467345D01*
X180659201Y-55467350D01*
X180511132Y-55671151D01*
X180396760Y-55895616D01*
X180318910Y-56135214D01*
X180279500Y-56384038D01*
X180279500Y-56635961D01*
X180318910Y-56884785D01*
X180396760Y-57124383D01*
X180475413Y-57278747D01*
X180510450Y-57347511D01*
X180511132Y-57348848D01*
X180659201Y-57552649D01*
X180659205Y-57552654D01*
X180798870Y-57692319D01*
X180832355Y-57753642D01*
X180827371Y-57823334D01*
X180798870Y-57867681D01*
X180659205Y-58007345D01*
X180659201Y-58007350D01*
X180511132Y-58211151D01*
X180396760Y-58435616D01*
X180318910Y-58675214D01*
X180279500Y-58924038D01*
X180279500Y-59175961D01*
X180318910Y-59424785D01*
X180396760Y-59664383D01*
X180511132Y-59888848D01*
X180659201Y-60092649D01*
X180659205Y-60092654D01*
X180798870Y-60232319D01*
X180832355Y-60293642D01*
X180827371Y-60363334D01*
X180798870Y-60407681D01*
X180659205Y-60547345D01*
X180659201Y-60547350D01*
X180511132Y-60751151D01*
X180396760Y-60975616D01*
X180318910Y-61215214D01*
X180318910Y-61215215D01*
X180279500Y-61464038D01*
X180279500Y-61715962D01*
X180305698Y-61881368D01*
X180318910Y-61964785D01*
X180396760Y-62204383D01*
X180511132Y-62428848D01*
X180659201Y-62632649D01*
X180659205Y-62632654D01*
X180798870Y-62772319D01*
X180832355Y-62833642D01*
X180827371Y-62903334D01*
X180798870Y-62947681D01*
X180659205Y-63087345D01*
X180659201Y-63087350D01*
X180511132Y-63291151D01*
X180396760Y-63515616D01*
X180318910Y-63755214D01*
X180279500Y-64004038D01*
X180279500Y-64255961D01*
X180318910Y-64504785D01*
X180396760Y-64744383D01*
X180511132Y-64968848D01*
X180659201Y-65172649D01*
X180659205Y-65172654D01*
X180798870Y-65312319D01*
X180832355Y-65373642D01*
X180827371Y-65443334D01*
X180798870Y-65487681D01*
X180659205Y-65627345D01*
X180659201Y-65627350D01*
X180511132Y-65831151D01*
X180396760Y-66055616D01*
X180318910Y-66295214D01*
X180279500Y-66544038D01*
X180279500Y-66795961D01*
X180318910Y-67044785D01*
X180396760Y-67284383D01*
X180511132Y-67508848D01*
X180659201Y-67712649D01*
X180659205Y-67712654D01*
X180798870Y-67852319D01*
X180832355Y-67913642D01*
X180827371Y-67983334D01*
X180798870Y-68027681D01*
X180659205Y-68167345D01*
X180659201Y-68167350D01*
X180511132Y-68371151D01*
X180396760Y-68595616D01*
X180318910Y-68835214D01*
X180300356Y-68952357D01*
X180279500Y-69084038D01*
X180279500Y-69335962D01*
X180289948Y-69401927D01*
X180318910Y-69584785D01*
X180396760Y-69824383D01*
X180511132Y-70048848D01*
X180659201Y-70252649D01*
X180659205Y-70252654D01*
X180798870Y-70392319D01*
X180832355Y-70453642D01*
X180827371Y-70523334D01*
X180798870Y-70567681D01*
X180659205Y-70707345D01*
X180659201Y-70707350D01*
X180511132Y-70911151D01*
X180396760Y-71135616D01*
X180318910Y-71375214D01*
X180279500Y-71624038D01*
X180279500Y-71875961D01*
X180318910Y-72124785D01*
X180396760Y-72364383D01*
X180511132Y-72588848D01*
X180659201Y-72792649D01*
X180659205Y-72792654D01*
X180837345Y-72970794D01*
X180837350Y-72970798D01*
X181015117Y-73099952D01*
X181041155Y-73118870D01*
X181179774Y-73189500D01*
X181265616Y-73233239D01*
X181265618Y-73233239D01*
X181265621Y-73233241D01*
X181505215Y-73311090D01*
X181754038Y-73350500D01*
X181754039Y-73350500D01*
X182005961Y-73350500D01*
X182005962Y-73350500D01*
X182254785Y-73311090D01*
X182494379Y-73233241D01*
X182718845Y-73118870D01*
X182922656Y-72970793D01*
X183100793Y-72792656D01*
X183248870Y-72588845D01*
X183363241Y-72364379D01*
X183441090Y-72124785D01*
X183480500Y-71875962D01*
X183480500Y-71624038D01*
X183441090Y-71375215D01*
X183363241Y-71135621D01*
X183363239Y-71135618D01*
X183363239Y-71135616D01*
X183321747Y-71054184D01*
X183248870Y-70911155D01*
X183229952Y-70885117D01*
X183100798Y-70707350D01*
X183100794Y-70707345D01*
X182961130Y-70567681D01*
X182927645Y-70506358D01*
X182932629Y-70436666D01*
X182961130Y-70392319D01*
X182993264Y-70360185D01*
X183100793Y-70252656D01*
X183248870Y-70048845D01*
X183363241Y-69824379D01*
X183441090Y-69584785D01*
X183480500Y-69335962D01*
X183480500Y-69084038D01*
X183441090Y-68835215D01*
X183363241Y-68595621D01*
X183363239Y-68595618D01*
X183363239Y-68595616D01*
X183319709Y-68510185D01*
X183248870Y-68371155D01*
X183229952Y-68345117D01*
X183100798Y-68167350D01*
X183100794Y-68167345D01*
X182961130Y-68027681D01*
X182927645Y-67966358D01*
X182932629Y-67896666D01*
X182961130Y-67852319D01*
X183100793Y-67712656D01*
X183248870Y-67508845D01*
X183363241Y-67284379D01*
X183441090Y-67044785D01*
X183480500Y-66795962D01*
X183480500Y-66544038D01*
X183441090Y-66295215D01*
X183363241Y-66055621D01*
X183363239Y-66055618D01*
X183363239Y-66055616D01*
X183304233Y-65939811D01*
X183248870Y-65831155D01*
X183139714Y-65680914D01*
X183100798Y-65627350D01*
X183100794Y-65627345D01*
X182961130Y-65487681D01*
X182927645Y-65426358D01*
X182932629Y-65356666D01*
X182961130Y-65312319D01*
X183100793Y-65172656D01*
X183248870Y-64968845D01*
X183363241Y-64744379D01*
X183441090Y-64504785D01*
X183480500Y-64255962D01*
X183480500Y-64004038D01*
X183441090Y-63755215D01*
X183363241Y-63515621D01*
X183363239Y-63515618D01*
X183363239Y-63515616D01*
X183261274Y-63315500D01*
X183248870Y-63291155D01*
X183184024Y-63201902D01*
X183100798Y-63087350D01*
X183100794Y-63087345D01*
X182961130Y-62947681D01*
X182927645Y-62886358D01*
X182932629Y-62816666D01*
X182961130Y-62772319D01*
X183100793Y-62632656D01*
X183248870Y-62428845D01*
X183363241Y-62204379D01*
X183441090Y-61964785D01*
X183480500Y-61715962D01*
X183480500Y-61464038D01*
X183441090Y-61215215D01*
X183363241Y-60975621D01*
X183363239Y-60975618D01*
X183363239Y-60975616D01*
X183284304Y-60820699D01*
X183248870Y-60751155D01*
X183202141Y-60686838D01*
X183100798Y-60547350D01*
X183100794Y-60547345D01*
X182961130Y-60407681D01*
X182927645Y-60346358D01*
X182932629Y-60276666D01*
X182961130Y-60232319D01*
X182991257Y-60202192D01*
X183100793Y-60092656D01*
X183248870Y-59888845D01*
X183363241Y-59664379D01*
X183441090Y-59424785D01*
X183480500Y-59175962D01*
X183480500Y-58924038D01*
X183441090Y-58675215D01*
X183363241Y-58435621D01*
X183363239Y-58435618D01*
X183363239Y-58435616D01*
X183303506Y-58318384D01*
X183248870Y-58211155D01*
X183157499Y-58085393D01*
X183100798Y-58007350D01*
X183100794Y-58007345D01*
X182961130Y-57867681D01*
X182927645Y-57806358D01*
X182932629Y-57736666D01*
X182961130Y-57692319D01*
X183000107Y-57653342D01*
X183100793Y-57552656D01*
X183248870Y-57348845D01*
X183363241Y-57124379D01*
X183441090Y-56884785D01*
X183480500Y-56635962D01*
X183480500Y-56384038D01*
X183441090Y-56135215D01*
X183363241Y-55895621D01*
X183363239Y-55895618D01*
X183363239Y-55895616D01*
X183285990Y-55744008D01*
X183248870Y-55671155D01*
X183148906Y-55533566D01*
X183100798Y-55467350D01*
X183100794Y-55467345D01*
X182961130Y-55327681D01*
X182927645Y-55266358D01*
X182932629Y-55196666D01*
X182961130Y-55152319D01*
X183026792Y-55086657D01*
X183100793Y-55012656D01*
X183248870Y-54808845D01*
X183363241Y-54584379D01*
X183441090Y-54344785D01*
X183480500Y-54095962D01*
X183480500Y-53844038D01*
X183441090Y-53595215D01*
X183363241Y-53355621D01*
X183363239Y-53355618D01*
X183363239Y-53355616D01*
X183298543Y-53228644D01*
X183248870Y-53131155D01*
X183118969Y-52952361D01*
X183100798Y-52927350D01*
X183100794Y-52927345D01*
X182949928Y-52776479D01*
X182916443Y-52715156D01*
X182921427Y-52645464D01*
X182959250Y-52592695D01*
X183005214Y-52555217D01*
X183127313Y-52405474D01*
X183216771Y-52234215D01*
X183269920Y-52048461D01*
X183269921Y-52048458D01*
X183279999Y-51935097D01*
X183280000Y-51935095D01*
X183280000Y-51680000D01*
X182313012Y-51680000D01*
X182345925Y-51622993D01*
X182380000Y-51495826D01*
X182380000Y-51364174D01*
X182345925Y-51237007D01*
X182313012Y-51180000D01*
X183279999Y-51180000D01*
X183279999Y-50924907D01*
X183279998Y-50924901D01*
X183269921Y-50811539D01*
X183216771Y-50625784D01*
X183127313Y-50454525D01*
X183070196Y-50384477D01*
X183043087Y-50320081D01*
X183055096Y-50251251D01*
X183078611Y-50218441D01*
X183218911Y-50078142D01*
X183339409Y-49902237D01*
X183425532Y-49707185D01*
X183474349Y-49499630D01*
X183480500Y-49411012D01*
X183480500Y-48368988D01*
X183474349Y-48280370D01*
X183474347Y-48280364D01*
X183474347Y-48280359D01*
X183425534Y-48072823D01*
X183425532Y-48072817D01*
X183425532Y-48072815D01*
X183339409Y-47877763D01*
X183218911Y-47701858D01*
X183092930Y-47575877D01*
X183059447Y-47514557D01*
X183064431Y-47444865D01*
X183092936Y-47400513D01*
X183093471Y-47399977D01*
X183100793Y-47392656D01*
X183248870Y-47188845D01*
X183363241Y-46964379D01*
X183441090Y-46724785D01*
X183480500Y-46475962D01*
X183480500Y-46224038D01*
X183441090Y-45975215D01*
X183363241Y-45735621D01*
X183363239Y-45735618D01*
X183363239Y-45735616D01*
X183278943Y-45570177D01*
X183248870Y-45511155D01*
X183147107Y-45371090D01*
X183100798Y-45307350D01*
X183100794Y-45307345D01*
X182961130Y-45167681D01*
X182927645Y-45106358D01*
X182932629Y-45036666D01*
X182961130Y-44992319D01*
X183030308Y-44923141D01*
X183100793Y-44852656D01*
X183248870Y-44648845D01*
X183363241Y-44424379D01*
X183441090Y-44184785D01*
X183480500Y-43935962D01*
X183480500Y-43684038D01*
X195519500Y-43684038D01*
X195519500Y-43935961D01*
X195558910Y-44184785D01*
X195636760Y-44424383D01*
X195751132Y-44648848D01*
X195899201Y-44852649D01*
X195899205Y-44852654D01*
X196050071Y-45003520D01*
X196083556Y-45064843D01*
X196078572Y-45134535D01*
X196040751Y-45187303D01*
X195994784Y-45224784D01*
X195872686Y-45374525D01*
X195783228Y-45545784D01*
X195730079Y-45731538D01*
X195730078Y-45731541D01*
X195720000Y-45844902D01*
X195720000Y-46100000D01*
X196686988Y-46100000D01*
X196654075Y-46157007D01*
X196620000Y-46284174D01*
X196620000Y-46415826D01*
X196654075Y-46542993D01*
X196686988Y-46600000D01*
X195720001Y-46600000D01*
X195720001Y-46855098D01*
X195730078Y-46968460D01*
X195783228Y-47154215D01*
X195872686Y-47325474D01*
X195994786Y-47475217D01*
X196040750Y-47512696D01*
X196080268Y-47570316D01*
X196082360Y-47640155D01*
X196050072Y-47696479D01*
X195899200Y-47847351D01*
X195751132Y-48051151D01*
X195636760Y-48275616D01*
X195558910Y-48515214D01*
X195519500Y-48764038D01*
X195519500Y-49015961D01*
X195558910Y-49264785D01*
X195636760Y-49504383D01*
X195715413Y-49658747D01*
X195726707Y-49680913D01*
X195751132Y-49728848D01*
X195899201Y-49932649D01*
X195899205Y-49932654D01*
X196038870Y-50072319D01*
X196072355Y-50133642D01*
X196067371Y-50203334D01*
X196038870Y-50247681D01*
X195899205Y-50387345D01*
X195899201Y-50387350D01*
X195751132Y-50591151D01*
X195636760Y-50815616D01*
X195558910Y-51055214D01*
X195519500Y-51304038D01*
X195519500Y-51555961D01*
X195558910Y-51804785D01*
X195636760Y-52044383D01*
X195751132Y-52268848D01*
X195899201Y-52472649D01*
X195899205Y-52472654D01*
X196038870Y-52612319D01*
X196072355Y-52673642D01*
X196067371Y-52743334D01*
X196038870Y-52787681D01*
X195899205Y-52927345D01*
X195899201Y-52927350D01*
X195751132Y-53131151D01*
X195636760Y-53355616D01*
X195558910Y-53595214D01*
X195530802Y-53772682D01*
X195519500Y-53844038D01*
X195519500Y-54095962D01*
X195532718Y-54179417D01*
X195558910Y-54344785D01*
X195636760Y-54584383D01*
X195663021Y-54635922D01*
X195733927Y-54775083D01*
X195751132Y-54808848D01*
X195899201Y-55012649D01*
X195899205Y-55012654D01*
X196038870Y-55152319D01*
X196072355Y-55213642D01*
X196067371Y-55283334D01*
X196038870Y-55327681D01*
X195899205Y-55467345D01*
X195899201Y-55467350D01*
X195751132Y-55671151D01*
X195636760Y-55895616D01*
X195558910Y-56135214D01*
X195519500Y-56384038D01*
X195519500Y-56635961D01*
X195558910Y-56884785D01*
X195636760Y-57124383D01*
X195715413Y-57278747D01*
X195750450Y-57347511D01*
X195751132Y-57348848D01*
X195899201Y-57552649D01*
X195899205Y-57552654D01*
X196038870Y-57692319D01*
X196072355Y-57753642D01*
X196067371Y-57823334D01*
X196038870Y-57867681D01*
X195899205Y-58007345D01*
X195899201Y-58007350D01*
X195751132Y-58211151D01*
X195636760Y-58435616D01*
X195558910Y-58675214D01*
X195519500Y-58924038D01*
X195519500Y-59175961D01*
X195558910Y-59424785D01*
X195636760Y-59664383D01*
X195751132Y-59888848D01*
X195899201Y-60092649D01*
X195899205Y-60092654D01*
X196038870Y-60232319D01*
X196072355Y-60293642D01*
X196067371Y-60363334D01*
X196038870Y-60407681D01*
X195899205Y-60547345D01*
X195899201Y-60547350D01*
X195751132Y-60751151D01*
X195636760Y-60975616D01*
X195558910Y-61215214D01*
X195558910Y-61215215D01*
X195519500Y-61464038D01*
X195519500Y-61715962D01*
X195545698Y-61881368D01*
X195558910Y-61964785D01*
X195636760Y-62204383D01*
X195751132Y-62428848D01*
X195899201Y-62632649D01*
X195899205Y-62632654D01*
X196038870Y-62772319D01*
X196072355Y-62833642D01*
X196067371Y-62903334D01*
X196038870Y-62947681D01*
X195899205Y-63087345D01*
X195899201Y-63087350D01*
X195751132Y-63291151D01*
X195636760Y-63515616D01*
X195558910Y-63755214D01*
X195519500Y-64004038D01*
X195519500Y-64255961D01*
X195558910Y-64504785D01*
X195636760Y-64744383D01*
X195751132Y-64968848D01*
X195899201Y-65172649D01*
X195899205Y-65172654D01*
X196038870Y-65312319D01*
X196072355Y-65373642D01*
X196067371Y-65443334D01*
X196038870Y-65487681D01*
X195899205Y-65627345D01*
X195899201Y-65627350D01*
X195751132Y-65831151D01*
X195636760Y-66055616D01*
X195558910Y-66295214D01*
X195519500Y-66544038D01*
X195519500Y-66795961D01*
X195558910Y-67044785D01*
X195636760Y-67284383D01*
X195751132Y-67508848D01*
X195899201Y-67712649D01*
X195899205Y-67712654D01*
X196038870Y-67852319D01*
X196072355Y-67913642D01*
X196067371Y-67983334D01*
X196038870Y-68027681D01*
X195899205Y-68167345D01*
X195899201Y-68167350D01*
X195751132Y-68371151D01*
X195636760Y-68595616D01*
X195558910Y-68835214D01*
X195540356Y-68952357D01*
X195519500Y-69084038D01*
X195519500Y-69335962D01*
X195529948Y-69401927D01*
X195558910Y-69584785D01*
X195636760Y-69824383D01*
X195751132Y-70048848D01*
X195899201Y-70252649D01*
X195899205Y-70252654D01*
X196038870Y-70392319D01*
X196072355Y-70453642D01*
X196067371Y-70523334D01*
X196038870Y-70567681D01*
X195899205Y-70707345D01*
X195899201Y-70707350D01*
X195751132Y-70911151D01*
X195636760Y-71135616D01*
X195558910Y-71375214D01*
X195519500Y-71624038D01*
X195519500Y-71875961D01*
X195558910Y-72124785D01*
X195636760Y-72364383D01*
X195751132Y-72588848D01*
X195899201Y-72792649D01*
X195899205Y-72792654D01*
X196077345Y-72970794D01*
X196077350Y-72970798D01*
X196255117Y-73099952D01*
X196281155Y-73118870D01*
X196419774Y-73189500D01*
X196505616Y-73233239D01*
X196505618Y-73233239D01*
X196505621Y-73233241D01*
X196745215Y-73311090D01*
X196994038Y-73350500D01*
X196994039Y-73350500D01*
X197245961Y-73350500D01*
X197245962Y-73350500D01*
X197494785Y-73311090D01*
X197734379Y-73233241D01*
X197958845Y-73118870D01*
X198162656Y-72970793D01*
X198340793Y-72792656D01*
X198488870Y-72588845D01*
X198603241Y-72364379D01*
X198681090Y-72124785D01*
X198720500Y-71875962D01*
X198720500Y-71624038D01*
X198681090Y-71375215D01*
X198603241Y-71135621D01*
X198603239Y-71135618D01*
X198603239Y-71135616D01*
X198561747Y-71054184D01*
X198488870Y-70911155D01*
X198469952Y-70885117D01*
X198340798Y-70707350D01*
X198340794Y-70707345D01*
X198201130Y-70567681D01*
X198167645Y-70506358D01*
X198172629Y-70436666D01*
X198201130Y-70392319D01*
X198233264Y-70360185D01*
X198340793Y-70252656D01*
X198488870Y-70048845D01*
X198603241Y-69824379D01*
X198681090Y-69584785D01*
X198720500Y-69335962D01*
X198720500Y-69084038D01*
X198681090Y-68835215D01*
X198603241Y-68595621D01*
X198603239Y-68595618D01*
X198603239Y-68595616D01*
X198559709Y-68510185D01*
X198488870Y-68371155D01*
X198469952Y-68345117D01*
X198340798Y-68167350D01*
X198340794Y-68167345D01*
X198201130Y-68027681D01*
X198167645Y-67966358D01*
X198172629Y-67896666D01*
X198201130Y-67852319D01*
X198340793Y-67712656D01*
X198488870Y-67508845D01*
X198603241Y-67284379D01*
X198681090Y-67044785D01*
X198720500Y-66795962D01*
X198720500Y-66544038D01*
X198684760Y-66318386D01*
X201074500Y-66318386D01*
X201074500Y-68131613D01*
X201080913Y-68202192D01*
X201131522Y-68364606D01*
X201219530Y-68510188D01*
X201339813Y-68630471D01*
X201339817Y-68630474D01*
X201358382Y-68641697D01*
X201405570Y-68693224D01*
X201417409Y-68762084D01*
X201394551Y-68820699D01*
X201298896Y-68952357D01*
X201188097Y-69169812D01*
X201112678Y-69401927D01*
X201083716Y-69584785D01*
X201074500Y-69642973D01*
X201074500Y-69887027D01*
X201112679Y-70128076D01*
X201188096Y-70360185D01*
X201293820Y-70567681D01*
X201298896Y-70577642D01*
X201442339Y-70775076D01*
X201442343Y-70775081D01*
X201614918Y-70947656D01*
X201614923Y-70947660D01*
X201787136Y-71072779D01*
X201812361Y-71091106D01*
X202029815Y-71201904D01*
X202261924Y-71277321D01*
X202502973Y-71315500D01*
X202502974Y-71315500D01*
X202747026Y-71315500D01*
X202747027Y-71315500D01*
X202988076Y-71277321D01*
X203220185Y-71201904D01*
X203437639Y-71091106D01*
X203635083Y-70947655D01*
X203807655Y-70775083D01*
X203951106Y-70577639D01*
X204061904Y-70360185D01*
X204137321Y-70128076D01*
X204175500Y-69887027D01*
X204175500Y-69642973D01*
X204137321Y-69401924D01*
X204061904Y-69169815D01*
X203951106Y-68952361D01*
X203951104Y-68952358D01*
X203951103Y-68952356D01*
X203855449Y-68820698D01*
X203831969Y-68754891D01*
X203847795Y-68686838D01*
X203891621Y-68641694D01*
X203910185Y-68630472D01*
X204030472Y-68510185D01*
X204118478Y-68364606D01*
X204169086Y-68202196D01*
X204175500Y-68131616D01*
X204175500Y-66318384D01*
X204169086Y-66247804D01*
X204118478Y-66085394D01*
X204030472Y-65939815D01*
X204030470Y-65939813D01*
X204030469Y-65939811D01*
X203910188Y-65819530D01*
X203764606Y-65731522D01*
X203602196Y-65680914D01*
X203602194Y-65680913D01*
X203602192Y-65680913D01*
X203552778Y-65676423D01*
X203531616Y-65674500D01*
X201718384Y-65674500D01*
X201699145Y-65676248D01*
X201647807Y-65680913D01*
X201485393Y-65731522D01*
X201339811Y-65819530D01*
X201219530Y-65939811D01*
X201131522Y-66085393D01*
X201080913Y-66247807D01*
X201074500Y-66318386D01*
X198684760Y-66318386D01*
X198681090Y-66295215D01*
X198603241Y-66055621D01*
X198603239Y-66055618D01*
X198603239Y-66055616D01*
X198544233Y-65939811D01*
X198488870Y-65831155D01*
X198379714Y-65680914D01*
X198340798Y-65627350D01*
X198340794Y-65627345D01*
X198201130Y-65487681D01*
X198167645Y-65426358D01*
X198172629Y-65356666D01*
X198201130Y-65312319D01*
X198340793Y-65172656D01*
X198488870Y-64968845D01*
X198603241Y-64744379D01*
X198681090Y-64504785D01*
X198720500Y-64255962D01*
X198720500Y-64004038D01*
X198681090Y-63755215D01*
X198603241Y-63515621D01*
X198603239Y-63515618D01*
X198603239Y-63515616D01*
X198501274Y-63315500D01*
X198488870Y-63291155D01*
X198424024Y-63201902D01*
X198340798Y-63087350D01*
X198340794Y-63087345D01*
X198201130Y-62947681D01*
X198167645Y-62886358D01*
X198172629Y-62816666D01*
X198201130Y-62772319D01*
X198340793Y-62632656D01*
X198488870Y-62428845D01*
X198603241Y-62204379D01*
X198681090Y-61964785D01*
X198720500Y-61715962D01*
X198720500Y-61464038D01*
X198681090Y-61215215D01*
X198603241Y-60975621D01*
X198603239Y-60975618D01*
X198603239Y-60975616D01*
X198524304Y-60820699D01*
X198488870Y-60751155D01*
X198442141Y-60686838D01*
X198340798Y-60547350D01*
X198340794Y-60547345D01*
X198201130Y-60407681D01*
X198167645Y-60346358D01*
X198172629Y-60276666D01*
X198201130Y-60232319D01*
X198231257Y-60202192D01*
X198340793Y-60092656D01*
X198488870Y-59888845D01*
X198603241Y-59664379D01*
X198681090Y-59424785D01*
X198720500Y-59175962D01*
X198720500Y-58924038D01*
X198681090Y-58675215D01*
X198603241Y-58435621D01*
X198543506Y-58318384D01*
X201074500Y-58318384D01*
X201074500Y-60131616D01*
X201076423Y-60152778D01*
X201080913Y-60202192D01*
X201080913Y-60202194D01*
X201080914Y-60202196D01*
X201125836Y-60346358D01*
X201131522Y-60364606D01*
X201219530Y-60510188D01*
X201339813Y-60630471D01*
X201339817Y-60630474D01*
X201358382Y-60641697D01*
X201405570Y-60693224D01*
X201417409Y-60762084D01*
X201394551Y-60820699D01*
X201298896Y-60952357D01*
X201188097Y-61169812D01*
X201188096Y-61169814D01*
X201188096Y-61169815D01*
X201185231Y-61178632D01*
X201112678Y-61401927D01*
X201074500Y-61642973D01*
X201074500Y-61887026D01*
X201109181Y-62105996D01*
X201112679Y-62128076D01*
X201188096Y-62360185D01*
X201245329Y-62472512D01*
X201298896Y-62577642D01*
X201442339Y-62775076D01*
X201442343Y-62775081D01*
X201614918Y-62947656D01*
X201614923Y-62947660D01*
X201787136Y-63072779D01*
X201812361Y-63091106D01*
X202029815Y-63201904D01*
X202261924Y-63277321D01*
X202502973Y-63315500D01*
X202502974Y-63315500D01*
X202747026Y-63315500D01*
X202747027Y-63315500D01*
X202988076Y-63277321D01*
X203220185Y-63201904D01*
X203437639Y-63091106D01*
X203635083Y-62947655D01*
X203807655Y-62775083D01*
X203951106Y-62577639D01*
X204061904Y-62360185D01*
X204137321Y-62128076D01*
X204175500Y-61887027D01*
X204175500Y-61642973D01*
X204137321Y-61401924D01*
X204061904Y-61169815D01*
X203951106Y-60952361D01*
X203951104Y-60952358D01*
X203951103Y-60952356D01*
X203855449Y-60820698D01*
X203831969Y-60754891D01*
X203847795Y-60686838D01*
X203891621Y-60641694D01*
X203910185Y-60630472D01*
X204030472Y-60510185D01*
X204118478Y-60364606D01*
X204169086Y-60202196D01*
X204175500Y-60131616D01*
X204175500Y-58318384D01*
X204169086Y-58247804D01*
X204118478Y-58085394D01*
X204030472Y-57939815D01*
X204030470Y-57939813D01*
X204030469Y-57939811D01*
X203910188Y-57819530D01*
X203764606Y-57731522D01*
X203602196Y-57680914D01*
X203602194Y-57680913D01*
X203602192Y-57680913D01*
X203552778Y-57676423D01*
X203531616Y-57674500D01*
X201718384Y-57674500D01*
X201699145Y-57676248D01*
X201647807Y-57680913D01*
X201485393Y-57731522D01*
X201339811Y-57819530D01*
X201219530Y-57939811D01*
X201131522Y-58085393D01*
X201080913Y-58247807D01*
X201075782Y-58304275D01*
X201074500Y-58318384D01*
X198543506Y-58318384D01*
X198488870Y-58211155D01*
X198397499Y-58085393D01*
X198340798Y-58007350D01*
X198340794Y-58007345D01*
X198201130Y-57867681D01*
X198167645Y-57806358D01*
X198172629Y-57736666D01*
X198201130Y-57692319D01*
X198240107Y-57653342D01*
X198340793Y-57552656D01*
X198488870Y-57348845D01*
X198603241Y-57124379D01*
X198681090Y-56884785D01*
X198720500Y-56635962D01*
X198720500Y-56384038D01*
X198681090Y-56135215D01*
X198603241Y-55895621D01*
X198603239Y-55895618D01*
X198603239Y-55895616D01*
X198525990Y-55744008D01*
X198488870Y-55671155D01*
X198388906Y-55533566D01*
X198340798Y-55467350D01*
X198340794Y-55467345D01*
X198201130Y-55327681D01*
X198167645Y-55266358D01*
X198172629Y-55196666D01*
X198201130Y-55152319D01*
X198266792Y-55086657D01*
X198340793Y-55012656D01*
X198488870Y-54808845D01*
X198603241Y-54584379D01*
X198681090Y-54344785D01*
X198720500Y-54095962D01*
X198720500Y-53844038D01*
X198681090Y-53595215D01*
X198603241Y-53355621D01*
X198603239Y-53355618D01*
X198603239Y-53355616D01*
X198538543Y-53228644D01*
X198488870Y-53131155D01*
X198358969Y-52952361D01*
X198340798Y-52927350D01*
X198340794Y-52927345D01*
X198201130Y-52787681D01*
X198167645Y-52726358D01*
X198172629Y-52656666D01*
X198201130Y-52612319D01*
X198258232Y-52555217D01*
X198340793Y-52472656D01*
X198488870Y-52268845D01*
X198603241Y-52044379D01*
X198681090Y-51804785D01*
X198720500Y-51555962D01*
X198720500Y-51304038D01*
X198681090Y-51055215D01*
X198603241Y-50815621D01*
X198603239Y-50815618D01*
X198603239Y-50815616D01*
X198506514Y-50625784D01*
X198488870Y-50591155D01*
X198478664Y-50577108D01*
X198347049Y-50395953D01*
X198347044Y-50395948D01*
X198340793Y-50387344D01*
X198271835Y-50318386D01*
X201074500Y-50318386D01*
X201074500Y-52131613D01*
X201080913Y-52202192D01*
X201080913Y-52202194D01*
X201080914Y-52202196D01*
X201131522Y-52364606D01*
X201205366Y-52486759D01*
X201219530Y-52510188D01*
X201339813Y-52630471D01*
X201339817Y-52630474D01*
X201358382Y-52641697D01*
X201405570Y-52693224D01*
X201417409Y-52762084D01*
X201394551Y-52820699D01*
X201298896Y-52952357D01*
X201188097Y-53169812D01*
X201112678Y-53401927D01*
X201101914Y-53469890D01*
X201074500Y-53642973D01*
X201074500Y-53887027D01*
X201078139Y-53910000D01*
X201107592Y-54095962D01*
X201112679Y-54128076D01*
X201188096Y-54360185D01*
X201288051Y-54556359D01*
X201298896Y-54577642D01*
X201442339Y-54775076D01*
X201442343Y-54775081D01*
X201614918Y-54947656D01*
X201614923Y-54947660D01*
X201745503Y-55042531D01*
X201812361Y-55091106D01*
X202029815Y-55201904D01*
X202261924Y-55277321D01*
X202502973Y-55315500D01*
X202502974Y-55315500D01*
X202747026Y-55315500D01*
X202747027Y-55315500D01*
X202988076Y-55277321D01*
X203220185Y-55201904D01*
X203437639Y-55091106D01*
X203635083Y-54947655D01*
X203807655Y-54775083D01*
X203951106Y-54577639D01*
X204061904Y-54360185D01*
X204137321Y-54128076D01*
X204175500Y-53887027D01*
X204175500Y-53642973D01*
X204137321Y-53401924D01*
X204061904Y-53169815D01*
X203951106Y-52952361D01*
X203951104Y-52952358D01*
X203951103Y-52952356D01*
X203855449Y-52820698D01*
X203831969Y-52754891D01*
X203847795Y-52686838D01*
X203891621Y-52641694D01*
X203910185Y-52630472D01*
X204030472Y-52510185D01*
X204118478Y-52364606D01*
X204169086Y-52202196D01*
X204175500Y-52131616D01*
X204175500Y-50318384D01*
X204169086Y-50247804D01*
X204118478Y-50085394D01*
X204030472Y-49939815D01*
X204030470Y-49939813D01*
X204030469Y-49939811D01*
X203910188Y-49819530D01*
X203764606Y-49731522D01*
X203686504Y-49707185D01*
X203602196Y-49680914D01*
X203602194Y-49680913D01*
X203602192Y-49680913D01*
X203552778Y-49676423D01*
X203531616Y-49674500D01*
X201718384Y-49674500D01*
X201699145Y-49676248D01*
X201647807Y-49680913D01*
X201485393Y-49731522D01*
X201339811Y-49819530D01*
X201219530Y-49939811D01*
X201131522Y-50085393D01*
X201080913Y-50247807D01*
X201074500Y-50318386D01*
X198271835Y-50318386D01*
X198200743Y-50247294D01*
X198200433Y-50246979D01*
X198184126Y-50216541D01*
X198167645Y-50186358D01*
X198167681Y-50185845D01*
X198167438Y-50185391D01*
X198170170Y-50151044D01*
X198172629Y-50116666D01*
X198172944Y-50116175D01*
X198172979Y-50115741D01*
X198174550Y-50113676D01*
X198201130Y-50072319D01*
X198255459Y-50017990D01*
X198340793Y-49932656D01*
X198488870Y-49728845D01*
X198603241Y-49504379D01*
X198681090Y-49264785D01*
X198720500Y-49015962D01*
X198720500Y-48764038D01*
X198681090Y-48515215D01*
X198603241Y-48275621D01*
X198603239Y-48275618D01*
X198603239Y-48275616D01*
X198499907Y-48072817D01*
X198488870Y-48051155D01*
X198362894Y-47877763D01*
X198340798Y-47847350D01*
X198340794Y-47847345D01*
X198189928Y-47696479D01*
X198156443Y-47635156D01*
X198161427Y-47565464D01*
X198199250Y-47512695D01*
X198245214Y-47475217D01*
X198367313Y-47325474D01*
X198456771Y-47154215D01*
X198509920Y-46968461D01*
X198509921Y-46968458D01*
X198519999Y-46855097D01*
X198520000Y-46855095D01*
X198520000Y-46600000D01*
X197553012Y-46600000D01*
X197585925Y-46542993D01*
X197620000Y-46415826D01*
X197620000Y-46284174D01*
X197585925Y-46157007D01*
X197553012Y-46100000D01*
X198519999Y-46100000D01*
X198519999Y-45844907D01*
X198519998Y-45844901D01*
X198509921Y-45731539D01*
X198456771Y-45545784D01*
X198367313Y-45374525D01*
X198245213Y-45224781D01*
X198199249Y-45187303D01*
X198159731Y-45129683D01*
X198157639Y-45059844D01*
X198189925Y-45003523D01*
X198340793Y-44852656D01*
X198488870Y-44648845D01*
X198603241Y-44424379D01*
X198681090Y-44184785D01*
X198720500Y-43935962D01*
X198720500Y-43684038D01*
X198681090Y-43435215D01*
X198603241Y-43195621D01*
X198603239Y-43195618D01*
X198603239Y-43195616D01*
X198561747Y-43114184D01*
X198488870Y-42971155D01*
X198469952Y-42945117D01*
X198340798Y-42767350D01*
X198340794Y-42767345D01*
X198162654Y-42589205D01*
X198162649Y-42589201D01*
X198155686Y-42584142D01*
X198021479Y-42486636D01*
X201099500Y-42486636D01*
X201099500Y-44299863D01*
X201105913Y-44370442D01*
X201156522Y-44532856D01*
X201244530Y-44678438D01*
X201364813Y-44798721D01*
X201364817Y-44798724D01*
X201383382Y-44809947D01*
X201430570Y-44861474D01*
X201442409Y-44930334D01*
X201419551Y-44988949D01*
X201323896Y-45120607D01*
X201213097Y-45338062D01*
X201213096Y-45338064D01*
X201213096Y-45338065D01*
X201201249Y-45374525D01*
X201137678Y-45570177D01*
X201099500Y-45811223D01*
X201099500Y-46055276D01*
X201126229Y-46224038D01*
X201137679Y-46296326D01*
X201196046Y-46475962D01*
X201213097Y-46528437D01*
X201323896Y-46745892D01*
X201467339Y-46943326D01*
X201467343Y-46943331D01*
X201639918Y-47115906D01*
X201639923Y-47115910D01*
X201812136Y-47241029D01*
X201837361Y-47259356D01*
X202054815Y-47370154D01*
X202286924Y-47445571D01*
X202527973Y-47483750D01*
X202527974Y-47483750D01*
X202772026Y-47483750D01*
X202772027Y-47483750D01*
X203013076Y-47445571D01*
X203245185Y-47370154D01*
X203462639Y-47259356D01*
X203660083Y-47115905D01*
X203832655Y-46943333D01*
X203976106Y-46745889D01*
X204086904Y-46528435D01*
X204162321Y-46296326D01*
X204200500Y-46055277D01*
X204200500Y-45811223D01*
X204162321Y-45570174D01*
X204086904Y-45338065D01*
X203976106Y-45120611D01*
X203976104Y-45120608D01*
X203976103Y-45120606D01*
X203880449Y-44988948D01*
X203856969Y-44923141D01*
X203872795Y-44855088D01*
X203916621Y-44809944D01*
X203935185Y-44798722D01*
X204055472Y-44678435D01*
X204143478Y-44532856D01*
X204194086Y-44370446D01*
X204200500Y-44299866D01*
X204200500Y-42486634D01*
X204194086Y-42416054D01*
X204143478Y-42253644D01*
X204055472Y-42108065D01*
X204055470Y-42108063D01*
X204055469Y-42108061D01*
X203935188Y-41987780D01*
X203789606Y-41899772D01*
X203627196Y-41849164D01*
X203627194Y-41849163D01*
X203627192Y-41849163D01*
X203577778Y-41844673D01*
X203556616Y-41842750D01*
X201743384Y-41842750D01*
X201724145Y-41844498D01*
X201672807Y-41849163D01*
X201510393Y-41899772D01*
X201364811Y-41987780D01*
X201244530Y-42108061D01*
X201156522Y-42253643D01*
X201105913Y-42416057D01*
X201099500Y-42486636D01*
X198021479Y-42486636D01*
X197958848Y-42441132D01*
X197958847Y-42441131D01*
X197958845Y-42441130D01*
X197888747Y-42405413D01*
X197734383Y-42326760D01*
X197494785Y-42248910D01*
X197245962Y-42209500D01*
X196994038Y-42209500D01*
X196869626Y-42229205D01*
X196745214Y-42248910D01*
X196505616Y-42326760D01*
X196281151Y-42441132D01*
X196077350Y-42589201D01*
X196077345Y-42589205D01*
X195899205Y-42767345D01*
X195899201Y-42767350D01*
X195751132Y-42971151D01*
X195636760Y-43195616D01*
X195558910Y-43435214D01*
X195519500Y-43684038D01*
X183480500Y-43684038D01*
X183441090Y-43435215D01*
X183363241Y-43195621D01*
X183363239Y-43195618D01*
X183363239Y-43195616D01*
X183321747Y-43114184D01*
X183248870Y-42971155D01*
X183229952Y-42945117D01*
X183100798Y-42767350D01*
X183100794Y-42767345D01*
X182922654Y-42589205D01*
X182922649Y-42589201D01*
X182718848Y-42441132D01*
X182718847Y-42441131D01*
X182718845Y-42441130D01*
X182648747Y-42405413D01*
X182494383Y-42326760D01*
X182254785Y-42248910D01*
X182005962Y-42209500D01*
X181754038Y-42209500D01*
X181629626Y-42229205D01*
X181505214Y-42248910D01*
X181265616Y-42326760D01*
X181041151Y-42441132D01*
X180837350Y-42589201D01*
X180837345Y-42589205D01*
X180659205Y-42767345D01*
X180659201Y-42767350D01*
X180511132Y-42971151D01*
X180396760Y-43195616D01*
X180318910Y-43435214D01*
X180279500Y-43684038D01*
X165550500Y-43684038D01*
X165550500Y-41005411D01*
X165550972Y-40994604D01*
X165563979Y-40845931D01*
X165563979Y-40845930D01*
X165567732Y-40824645D01*
X165604956Y-40685721D01*
X165612342Y-40665428D01*
X165673127Y-40535074D01*
X165683927Y-40516369D01*
X165766423Y-40398552D01*
X165780306Y-40382007D01*
X165882007Y-40280306D01*
X165898552Y-40266423D01*
X166016369Y-40183927D01*
X166035074Y-40173127D01*
X166165428Y-40112342D01*
X166185721Y-40104956D01*
X166324645Y-40067731D01*
X166345928Y-40063979D01*
X166494605Y-40050972D01*
X166505412Y-40050500D01*
X166516408Y-40050500D01*
X212483592Y-40050500D01*
X212494588Y-40050500D01*
X212505395Y-40050972D01*
G37*
G04 #@! TD.AperFunction*
M02*
