M48
; DRILL file {KiCad 9.0.2} date 2026-06-01T18:40:14+0300
; FORMAT={-:-/ absolute / metric / decimal}
; #@! TF.CreationDate,2026-06-01T18:40:14+03:00
; #@! TF.GenerationSoftware,Kicad,Pcbnew,9.0.2
; #@! TF.FileFunction,Plated,1,2,PTH
FMAT,2
METRIC
; #@! TA.AperFunction,Plated,PTH,ComponentDrill
T1C1.000
; #@! TA.AperFunction,Plated,PTH,ComponentDrill
T2C1.100
%
G90
G05
T1
X167.6Y-77.2
X170.14Y-77.2
X175.735Y-77.2
X178.275Y-77.2
X181.88Y-43.81
X181.88Y-46.35
X181.88Y-48.89
X181.88Y-51.43
X181.88Y-53.97
X181.88Y-56.51
X181.88Y-59.05
X181.88Y-61.59
X181.88Y-64.13
X181.88Y-66.67
X181.88Y-69.21
X181.88Y-71.75
X183.735Y-77.2
X186.275Y-77.2
X191.96Y-77.2
X194.5Y-77.2
X197.12Y-43.81
X197.12Y-46.35
X197.12Y-48.89
X197.12Y-51.43
X197.12Y-53.97
X197.12Y-56.51
X197.12Y-59.05
X197.12Y-61.59
X197.12Y-64.13
X197.12Y-66.67
X197.12Y-69.21
X197.12Y-71.75
X202.625Y-51.225
X202.625Y-53.765
X202.625Y-59.225
X202.625Y-61.765
X202.625Y-67.225
X202.625Y-69.765
X202.65Y-43.393
X202.65Y-45.933
T2
X167.6Y-48.75
X167.6Y-56.37
X170.525Y-53.875
X170.525Y-61.495
X173.4Y-48.7
X173.4Y-56.32
X176.3Y-53.91
X176.3Y-61.53
X202.575Y-78.19
X202.575Y-85.81
X205.45Y-74.69
X205.45Y-82.31
X208.325Y-78.19
X208.325Y-85.81
X211.15Y-74.69
X211.15Y-82.31
M30
